SplineFontDB: 3.2
FontName: jgs
FullName: jgs
FamilyName: jgs
Weight: Book
Copyright: Copyright (c) 2020, Maxime Bouton
Version: 001.000
ItalicAngle: 0
UnderlinePosition: 0
UnderlineWidth: 0
Ascent: 14
Descent: 4
InvalidEm: 0
sfntRevision: 0x00010000
LayerCount: 2
Layer: 0 1 "Back" 1
Layer: 1 1 "Fore" 0
XUID: [1021 618 1572476504 6046]
StyleMap: 0x0000
FSType: 0
OS2Version: 4
OS2_WeightWidthSlopeOnly: 0
OS2_UseTypoMetrics: 1
CreationTime: 1566681194
ModificationTime: 1663335718
PfmFamily: 17
TTFWeight: 400
TTFWidth: 5
LineGap: 2
VLineGap: 0
Panose: 2 0 5 9 0 0 0 0 0 0
OS2TypoAscent: 14
OS2TypoAOffset: 0
OS2TypoDescent: -4
OS2TypoDOffset: 0
OS2TypoLinegap: 2
OS2WinAscent: 14
OS2WinAOffset: 0
OS2WinDescent: 4
OS2WinDOffset: 0
HheadAscent: 14
HheadAOffset: 0
HheadDescent: -4
HheadDOffset: 0
OS2SubXSize: 12
OS2SubYSize: 12
OS2SubXOff: 0
OS2SubYOff: 2
OS2SupXSize: 12
OS2SupYSize: 12
OS2SupXOff: 0
OS2SupYOff: 9
OS2StrikeYSize: 1
OS2StrikeYPos: 5
OS2CapHeight: 10
OS2XHeight: 7
OS2Vendor: 'PfEd'
OS2CodePages: 60000111.c1d40000
OS2UnicodeRanges: 80000007.00007fff.00000000.00000000
MarkAttachClasses: 1
DEI: 91125
ShortTable: cvt  2
  6
  114
EndShort
ShortTable: maxp 16
  1
  0
  1914
  223
  54
  0
  0
  2
  0
  1
  1
  0
  64
  46
  0
  0
EndShort
LangName: 1033 "" "" "Regular" "FontForge 2.0 : jgs : 5-8-2021"
GaspTable: 1 65535 2 0
Encoding: UnicodeFull
UnicodeInterp: none
NameList: AGL For New Fonts
DisplaySize: -48
AntiAlias: 1
FitToEm: 0
WinInfo: 8303 19 14
BeginPrivate: 0
EndPrivate
BeginChars: 1114115 278

StartChar: exclam
Encoding: 33 33 32
Width: 9
GlyphClass: 1
Flags: W
LayerCount: 2
Fore
SplineSet
4 5 m 1,0,-1
 5 5 l 1,1,-1
 5 14 l 1,2,-1
 4 14 l 1,3,-1
 4 5 l 1,0,-1
4 -1 m 1,4,-1
 5 -1 l 1,5,-1
 5 2 l 1,6,-1
 4 2 l 1,7,-1
 4 -1 l 1,4,-1
EndSplineSet
EndChar

StartChar: quotedbl
Encoding: 34 34 33
Width: 9
GlyphClass: 1
Flags: W
LayerCount: 2
Fore
SplineSet
3 11 m 1,0,-1
 3 8 l 1,1,-1
 4 8 l 1,2,-1
 4 11 l 1,3,-1
 3 11 l 1,0,-1
5 11 m 1,4,-1
 5 8 l 1,5,-1
 6 8 l 1,6,-1
 6 11 l 1,7,-1
 5 11 l 1,4,-1
EndSplineSet
EndChar

StartChar: numbersign
Encoding: 35 35 34
Width: 9
GlyphClass: 1
Flags: W
LayerCount: 2
Fore
SplineSet
1 14 m 1,0,-1
 1 10 l 1,1,-1
 0 10 l 1,2,-1
 0 9 l 1,3,-1
 1 9 l 1,4,-1
 1 1 l 1,5,-1
 0 1 l 1,6,-1
 0 0 l 1,7,-1
 1 0 l 1,8,-1
 1 -4 l 1,9,-1
 2 -4 l 1,10,-1
 2 0 l 1,11,-1
 7 0 l 1,12,-1
 7 -4 l 1,13,-1
 8 -4 l 1,14,-1
 8 0 l 1,15,-1
 9 0 l 1,16,-1
 9 1 l 1,17,-1
 8 1 l 1,18,-1
 8 9 l 1,19,-1
 9 9 l 1,20,-1
 9 10 l 1,21,-1
 8 10 l 1,22,-1
 8 14 l 1,23,-1
 7 14 l 1,24,-1
 7 10 l 1,25,-1
 2 10 l 1,26,-1
 2 14 l 1,27,-1
 1 14 l 1,0,-1
2 9 m 1,28,-1
 7 9 l 1,29,-1
 7 1 l 1,30,-1
 2 1 l 1,31,-1
 2 9 l 1,28,-1
EndSplineSet
EndChar

StartChar: dollar
Encoding: 36 36 35
Width: 9
GlyphClass: 1
Flags: W
LayerCount: 2
Fore
SplineSet
4 11 m 1,0,-1
 4 10 l 1,1,-1
 2 10 l 1,2,-1
 2 9 l 1,3,-1
 4 9 l 1,4,-1
 4 6 l 1,5,-1
 3 6 l 1,6,-1
 2 6 l 1,7,-1
 2 5 l 1,8,-1
 3 5 l 1,9,-1
 4 5 l 1,10,-1
 4 1 l 1,11,-1
 2 1 l 1,12,-1
 2 0 l 1,13,-1
 4 0 l 1,14,-1
 4 -1 l 1,15,-1
 5 -1 l 1,16,-1
 5 0 l 1,17,-1
 7 0 l 1,18,-1
 7 1 l 1,19,-1
 5 1 l 1,20,-1
 5 4 l 1,21,-1
 7 4 l 1,22,-1
 7 5 l 1,23,-1
 5 5 l 1,24,-1
 5 9 l 1,25,-1
 7 9 l 1,26,-1
 7 10 l 1,27,-1
 5 10 l 1,28,-1
 5 11 l 1,29,-1
 4 11 l 1,0,-1
7 9 m 1,30,-1
 7 7 l 1,31,-1
 8 7 l 1,32,-1
 8 9 l 1,33,-1
 7 9 l 1,30,-1
7 4 m 1,34,-1
 7 1 l 1,35,-1
 8 1 l 1,36,-1
 8 4 l 1,37,-1
 7 4 l 1,34,-1
2 1 m 1,38,-1
 2 3 l 1,39,-1
 1 3 l 1,40,-1
 1 1 l 1,41,-1
 2 1 l 1,38,-1
2 6 m 1,42,-1
 2 9 l 1,43,-1
 1 9 l 1,44,-1
 1 6 l 1,45,-1
 2 6 l 1,42,-1
EndSplineSet
EndChar

StartChar: percent
Encoding: 37 37 36
Width: 9
GlyphClass: 1
Flags: W
LayerCount: 2
Fore
SplineSet
8 14 m 1,0,-1
 8 12 l 1,1,-1
 9 12 l 1,2,-1
 9 14 l 1,3,-1
 8 14 l 1,0,-1
8 12 m 1,4,-1
 7 12 l 1,5,-1
 7 10 l 1,6,-1
 8 10 l 1,7,-1
 8 12 l 1,4,-1
7 10 m 1,8,-1
 7 8 l 1,9,-1
 6 8 l 1,10,-1
 6 10 l 1,11,-1
 7 10 l 1,8,-1
6 8 m 1,12,-1
 5 8 l 1,13,-1
 5 6 l 1,14,-1
 6 6 l 1,15,-1
 6 8 l 1,12,-1
5 6 m 1,16,-1
 4 6 l 1,17,-1
 4 4 l 1,18,-1
 5 4 l 1,19,-1
 5 6 l 1,16,-1
4 4 m 1,20,-1
 3 4 l 1,21,-1
 3 2 l 1,22,-1
 4 2 l 1,23,-1
 4 4 l 1,20,-1
3 2 m 1,24,-1
 2 2 l 1,25,-1
 2 0 l 1,26,-1
 3 0 l 1,27,-1
 3 2 l 1,24,-1
2 0 m 1,28,-1
 1 0 l 1,29,-1
 1 -2 l 1,30,-1
 2 -2 l 1,31,-1
 2 0 l 1,28,-1
1 -2 m 1,32,-1
 1 -4 l 1,33,-1
 0 -4 l 1,34,-1
 0 -2 l 1,35,-1
 1 -2 l 1,32,-1
2 13 m 1,36,-1
 2 12 l 1,37,-1
 4 12 l 1,38,-1
 4 13 l 1,39,-1
 2 13 l 1,36,-1
4 12 m 1,40,-1
 4 10 l 1,41,-1
 5 10 l 1,42,-1
 5 12 l 1,43,-1
 4 12 l 1,40,-1
4 10 m 1,44,-1
 4 9 l 1,45,-1
 2 9 l 1,46,-1
 2 10 l 1,47,-1
 4 10 l 1,44,-1
2 10 m 1,48,-1
 2 12 l 1,49,-1
 1 12 l 1,50,-1
 1 10 l 1,51,-1
 2 10 l 1,48,-1
5 1 m 1,52,-1
 5 0 l 1,53,-1
 7 0 l 1,54,-1
 7 1 l 1,55,-1
 5 1 l 1,52,-1
7 0 m 1,56,-1
 7 -2 l 1,57,-1
 8 -2 l 1,58,-1
 8 0 l 1,59,-1
 7 0 l 1,56,-1
7 -2 m 1,60,-1
 7 -3 l 1,61,-1
 5 -3 l 1,62,-1
 5 -2 l 1,63,-1
 7 -2 l 1,60,-1
5 -2 m 1,64,-1
 5 0 l 1,65,-1
 4 0 l 1,66,-1
 4 -2 l 1,67,-1
 5 -2 l 1,64,-1
EndSplineSet
EndChar

StartChar: ampersand
Encoding: 38 38 37
Width: 9
GlyphClass: 1
Flags: W
LayerCount: 2
Fore
SplineSet
3 10 m 1,0,-1
 3 9 l 1,1,-1
 5 9 l 1,2,-1
 5 10 l 1,3,-1
 3 10 l 1,0,-1
5 9 m 1,4,-1
 6 9 l 1,5,-1
 6 8 l 1,6,-1
 5 8 l 1,7,-1
 5 9 l 1,4,-1
3 9 m 1,8,-1
 3 8 l 1,9,-1
 2 8 l 1,10,-1
 2 9 l 1,11,-1
 3 9 l 1,8,-1
2 8 m 1,12,-1
 1 8 l 1,13,-1
 1 6 l 1,14,-1
 2 6 l 1,15,-1
 2 8 l 1,12,-1
2 6 m 1,16,-1
 3 6 l 1,17,-1
 3 5 l 1,18,-1
 2 5 l 1,19,-1
 2 6 l 1,16,-1
3 5 m 1,20,-1
 4 5 l 1,21,-1
 4 4 l 1,22,-1
 3 4 l 1,23,-1
 3 5 l 1,20,-1
4 4 m 1,24,-1
 5 4 l 1,25,-1
 5 3 l 1,26,-1
 4 3 l 1,27,-1
 4 4 l 1,24,-1
5 3 m 1,28,-1
 6 3 l 1,29,-1
 6 2 l 1,30,-1
 5 2 l 1,31,-1
 5 3 l 1,28,-1
6 2 m 1,32,-1
 7 2 l 1,33,-1
 7 1 l 1,34,-1
 6 1 l 1,35,-1
 6 2 l 1,32,-1
7 2 m 1,36,-1
 7 4 l 1,37,-1
 8 4 l 1,38,-1
 8 2 l 1,39,-1
 7 2 l 1,36,-1
7 1 m 1,40,-1
 8 1 l 1,41,-1
 8 0 l 1,42,-1
 7 0 l 1,43,-1
 7 1 l 1,40,-1
6 1 m 1,44,-1
 6 0 l 1,45,-1
 3 0 l 1,46,-1
 3 1 l 1,47,-1
 6 1 l 1,44,-1
3 1 m 1,48,-1
 2 1 l 1,49,-1
 2 2 l 1,50,-1
 3 2 l 1,51,-1
 3 1 l 1,48,-1
2 2 m 1,52,-1
 1 2 l 1,53,-1
 1 4 l 1,54,-1
 1 5 l 1,55,-1
 2 5 l 1,56,-1
 2 4 l 1,57,-1
 2 2 l 1,52,-1
EndSplineSet
EndChar

StartChar: quotesingle
Encoding: 39 39 38
Width: 9
GlyphClass: 1
Flags: W
LayerCount: 2
Fore
SplineSet
5 11 m 1,0,-1
 5 10 l 1,1,-1
 6 10 l 1,2,-1
 6 11 l 1,3,-1
 5 11 l 1,0,-1
5 10 m 1,4,-1
 5 9 l 1,5,-1
 4 9 l 1,6,-1
 4 10 l 1,7,-1
 5 10 l 1,4,-1
4 9 m 1,8,-1
 4 8 l 1,9,-1
 3 8 l 1,10,-1
 3 9 l 1,11,-1
 4 9 l 1,8,-1
EndSplineSet
EndChar

StartChar: parenleft
Encoding: 40 40 39
Width: 9
GlyphClass: 1
Flags: W
LayerCount: 2
Fore
SplineSet
8 14 m 1,0,-1
 8 12 l 1,1,-1
 9 12 l 1,2,-1
 9 14 l 1,3,-1
 8 14 l 1,0,-1
8 12 m 1,4,-1
 7 12 l 1,5,-1
 7 10 l 1,6,-1
 8 10 l 1,7,-1
 8 12 l 1,4,-1
7 10 m 1,8,-1
 6 10 l 1,9,-1
 6 8 l 1,10,-1
 7 8 l 1,11,-1
 7 10 l 1,8,-1
6 8 m 1,12,-1
 5 8 l 1,13,-1
 5 6 l 1,14,-1
 5 4 l 1,15,-1
 5 2 l 1,16,-1
 6 2 l 1,17,-1
 6 4 l 1,18,-1
 6 6 l 1,19,-1
 6 8 l 1,12,-1
6 2 m 1,20,-1
 6 0 l 1,21,-1
 7 0 l 1,22,-1
 7 2 l 1,23,-1
 6 2 l 1,20,-1
7 0 m 1,24,-1
 7 -2 l 1,25,-1
 8 -2 l 1,26,-1
 8 0 l 1,27,-1
 7 0 l 1,24,-1
8 -2 m 1,28,-1
 8 -4 l 1,29,-1
 9 -4 l 1,30,-1
 9 -2 l 1,31,-1
 8 -2 l 1,28,-1
EndSplineSet
EndChar

StartChar: parenright
Encoding: 41 41 40
Width: 9
GlyphClass: 1
Flags: W
LayerCount: 2
Fore
SplineSet
1 14 m 1,0,-1
 0 14 l 1,1,-1
 0 12 l 1,2,-1
 1 12 l 1,3,-1
 1 14 l 1,0,-1
1 12 m 1,4,-1
 1 10 l 1,5,-1
 2 10 l 1,6,-1
 2 12 l 1,7,-1
 1 12 l 1,4,-1
2 10 m 1,8,-1
 2 8 l 1,9,-1
 3 8 l 1,10,-1
 3 10 l 1,11,-1
 2 10 l 1,8,-1
3 8 m 1,12,-1
 3 6 l 1,13,-1
 3 4 l 1,14,-1
 3 2 l 1,15,-1
 4 2 l 1,16,-1
 4 4 l 1,17,-1
 4 6 l 1,18,-1
 4 8 l 1,19,-1
 3 8 l 1,12,-1
3 2 m 1,20,-1
 2 2 l 1,21,-1
 2 0 l 1,22,-1
 3 0 l 1,23,-1
 3 2 l 1,20,-1
2 0 m 1,24,-1
 1 0 l 1,25,-1
 1 -2 l 1,26,-1
 2 -2 l 1,27,-1
 2 0 l 1,24,-1
1 -2 m 1,28,-1
 0 -2 l 1,29,-1
 0 -4 l 1,30,-1
 1 -4 l 1,31,-1
 1 -2 l 1,28,-1
EndSplineSet
EndChar

StartChar: asterisk
Encoding: 42 42 41
Width: 9
GlyphClass: 1
Flags: W
LayerCount: 2
Fore
SplineSet
4 10 m 1,0,1
 4 10 4 10 4 7 c 1,2,3
 4 7 4 7 3 7 c 1,4,5
 3 7 3 7 3 6 c 1,6,7
 3 6 3 6 0 6 c 1,8,9
 0 6 0 6 0 5 c 1,10,11
 0 5 0 5 3 5 c 1,12,13
 3 5 3 5 3 4 c 1,14,15
 3 4 3 4 4 4 c 1,16,17
 4 4 4 4 4 1 c 1,18,19
 4 1 4 1 5 1 c 1,20,21
 5 1 5 1 5 4 c 1,22,23
 5 4 5 4 6 4 c 1,24,25
 6 4 6 4 6 5 c 1,26,27
 6 5 6 5 9 5 c 1,28,29
 9 5 9 5 9 6 c 1,30,31
 9 6 9 6 6 6 c 1,32,33
 6 6 6 6 6 7 c 1,34,35
 6 7 6 7 5 7 c 1,36,37
 5 7 5 7 5 10 c 1,38,39
 5 10 5 10 4 10 c 1,0,1
6 7 m 1,40,41
 6 7 6 7 6 8 c 1,42,43
 6 8 6 8 7 8 c 1,44,45
 7 8 7 8 7 7 c 1,46,47
 7 7 7 7 6 7 c 1,40,41
7 8 m 1,48,49
 7 8 7 8 8 8 c 1,50,51
 8 8 8 8 8 9 c 1,52,53
 8 9 8 9 7 9 c 1,54,55
 7 9 7 9 7 8 c 1,48,49
6 4 m 1,56,57
 6 4 6 4 7 4 c 1,58,59
 7 4 7 4 7 3 c 1,60,61
 7 3 7 3 6 3 c 1,62,63
 6 3 6 3 6 4 c 1,56,57
7 3 m 1,64,65
 7 3 7 3 8 3 c 1,66,67
 8 3 8 3 8 2 c 1,68,69
 8 2 8 2 7 2 c 1,70,71
 7 2 7 2 7 3 c 1,64,65
3 4 m 1,72,73
 3 4 3 4 3 3 c 1,74,75
 3 3 3 3 2 3 c 1,76,77
 2 3 2 3 2 4 c 1,78,79
 2 4 2 4 3 4 c 1,72,73
2 3 m 1,80,81
 2 3 2 3 2 2 c 1,82,83
 2 2 2 2 1 2 c 1,84,85
 1 2 1 2 1 3 c 1,86,87
 1 3 1 3 2 3 c 1,80,81
3 7 m 1,88,89
 3 7 3 7 2 7 c 1,90,91
 2 7 2 7 2 8 c 1,92,93
 2 8 2 8 3 8 c 1,94,95
 3 8 3 8 3 7 c 1,88,89
2 8 m 1,96,97
 2 8 2 8 2 9 c 1,98,99
 2 9 2 9 1 9 c 1,100,101
 1 9 1 9 1 8 c 1,102,103
 1 8 1 8 2 8 c 1,96,97
EndSplineSet
EndChar

StartChar: plus
Encoding: 43 43 42
Width: 9
GlyphClass: 1
Flags: W
LayerCount: 2
Fore
SplineSet
4 14 m 1,0,-1
 4 6 l 1,1,-1
 0 6 l 1,2,-1
 0 5 l 1,3,-1
 4 5 l 1,4,-1
 4 -4 l 1,5,-1
 5 -4 l 1,6,-1
 5 5 l 1,7,-1
 9 5 l 1,8,-1
 9 6 l 1,9,-1
 5 6 l 1,10,-1
 5 14 l 1,11,-1
 4 14 l 1,0,-1
EndSplineSet
EndChar

StartChar: comma
Encoding: 44 44 43
Width: 9
GlyphClass: 1
Flags: W
LayerCount: 2
Fore
SplineSet
5 1 m 1,0,-1
 5 0 l 1,1,-1
 6 0 l 1,2,-1
 6 1 l 1,3,-1
 5 1 l 1,0,-1
5 0 m 1,4,-1
 5 -1 l 1,5,-1
 4 -1 l 1,6,-1
 4 0 l 1,7,-1
 5 0 l 1,4,-1
4 -1 m 1,8,-1
 4 -2 l 1,9,-1
 3 -2 l 1,10,-1
 3 -1 l 1,11,-1
 4 -1 l 1,8,-1
EndSplineSet
EndChar

StartChar: hyphen
Encoding: 45 45 44
Width: 9
GlyphClass: 1
Flags: W
LayerCount: 2
Fore
SplineSet
0 6 m 1,0,-1
 0 5 l 1,1,-1
 9 5 l 1,2,-1
 9 6 l 1,3,-1
 0 6 l 1,0,-1
EndSplineSet
EndChar

StartChar: period
Encoding: 46 46 45
Width: 9
GlyphClass: 1
Flags: W
LayerCount: 2
Fore
SplineSet
4 2 m 1,0,-1
 4 -1 l 1,1,-1
 5 -1 l 1,2,-1
 5 2 l 1,3,-1
 4 2 l 1,0,-1
EndSplineSet
EndChar

StartChar: slash
Encoding: 47 47 46
Width: 9
GlyphClass: 1
Flags: W
LayerCount: 2
Fore
SplineSet
8 14 m 1,0,-1
 8 12 l 1,1,-1
 9 12 l 1,2,-1
 9 14 l 1,3,-1
 8 14 l 1,0,-1
8 12 m 1,4,-1
 7 12 l 1,5,-1
 7 10 l 1,6,-1
 8 10 l 1,7,-1
 8 12 l 1,4,-1
7 10 m 1,8,-1
 6 10 l 1,9,-1
 6 8 l 1,10,-1
 7 8 l 1,11,-1
 7 10 l 1,8,-1
6 8 m 1,12,-1
 5 8 l 1,13,-1
 5 6 l 1,14,-1
 6 6 l 1,15,-1
 6 8 l 1,12,-1
5 6 m 1,16,-1
 4 6 l 1,17,-1
 4 4 l 1,18,-1
 5 4 l 1,19,-1
 5 6 l 1,16,-1
4 4 m 1,20,-1
 3 4 l 1,21,-1
 3 2 l 1,22,-1
 4 2 l 1,23,-1
 4 4 l 1,20,-1
3 2 m 1,24,-1
 2 2 l 1,25,-1
 2 0 l 1,26,-1
 3 0 l 1,27,-1
 3 2 l 1,24,-1
2 0 m 1,28,-1
 1 0 l 1,29,-1
 1 -2 l 1,30,-1
 2 -2 l 1,31,-1
 2 0 l 1,28,-1
1 -2 m 1,32,-1
 0 -2 l 1,33,-1
 0 -4 l 1,34,-1
 1 -4 l 1,35,-1
 1 -2 l 1,32,-1
EndSplineSet
EndChar

StartChar: zero
Encoding: 48 48 47
Width: 9
GlyphClass: 1
Flags: W
LayerCount: 2
Fore
SplineSet
3 10 m 1,0,-1
 3 9 l 1,1,-1
 6 9 l 1,2,-1
 6 10 l 1,3,-1
 3 10 l 1,0,-1
6 9 m 1,4,-1
 6 7 l 1,5,-1
 7 7 l 1,6,-1
 7 9 l 1,7,-1
 6 9 l 1,4,-1
7 7 m 1,8,-1
 7 3 l 1,9,-1
 8 3 l 1,10,-1
 8 7 l 1,11,-1
 7 7 l 1,8,-1
7 3 m 1,12,-1
 6 3 l 1,13,-1
 6 1 l 1,14,-1
 7 1 l 1,15,-1
 7 3 l 1,12,-1
6 1 m 1,16,-1
 6 0 l 1,17,-1
 3 0 l 1,18,-1
 3 1 l 1,19,-1
 6 1 l 1,16,-1
3 1 m 1,20,-1
 3 3 l 1,21,-1
 2 3 l 1,22,-1
 2 1 l 1,23,-1
 3 1 l 1,20,-1
2 3 m 1,24,-1
 2 7 l 1,25,-1
 1 7 l 1,26,-1
 1 3 l 1,27,-1
 2 3 l 1,24,-1
2 7 m 1,28,-1
 3 7 l 1,29,-1
 3 9 l 1,30,-1
 2 9 l 1,31,-1
 2 7 l 1,28,-1
4 6 m 1,32,-1
 4 4 l 1,33,-1
 5 4 l 1,34,-1
 5 6 l 1,35,-1
 4 6 l 1,32,-1
EndSplineSet
EndChar

StartChar: one
Encoding: 49 49 48
Width: 9
GlyphClass: 1
Flags: W
LayerCount: 2
Fore
SplineSet
4 10 m 1,0,-1
 4 9 l 1,1,-1
 5 9 l 1,2,-1
 5 0 l 1,3,-1
 6 0 l 1,4,-1
 6 10 l 1,5,-1
 5 10 l 1,6,-1
 4 10 l 1,0,-1
4 9 m 1,7,-1
 4 8 l 1,8,-1
 3 8 l 1,9,-1
 3 9 l 1,10,-1
 4 9 l 1,7,-1
3 8 m 1,11,-1
 3 7 l 1,12,-1
 2 7 l 1,13,-1
 2 8 l 1,14,-1
 3 8 l 1,11,-1
EndSplineSet
EndChar

StartChar: two
Encoding: 50 50 49
Width: 9
GlyphClass: 1
Flags: W
LayerCount: 2
Fore
SplineSet
3 10 m 1,0,-1
 3 9 l 1,1,-1
 6 9 l 1,2,-1
 6 10 l 1,3,-1
 3 10 l 1,0,-1
6 9 m 1,4,-1
 7 9 l 1,5,-1
 7 8 l 1,6,-1
 6 8 l 1,7,-1
 6 9 l 1,4,-1
7 8 m 1,8,-1
 8 8 l 1,9,-1
 8 6 l 1,10,-1
 7 6 l 1,11,-1
 7 8 l 1,8,-1
7 6 m 1,12,-1
 7 5 l 1,13,-1
 6 5 l 1,14,-1
 6 6 l 1,15,-1
 7 6 l 1,12,-1
6 5 m 1,16,-1
 6 4 l 1,17,-1
 5 4 l 1,18,-1
 5 5 l 1,19,-1
 6 5 l 1,16,-1
5 4 m 1,20,-1
 5 3 l 1,21,-1
 4 3 l 1,22,-1
 4 4 l 1,23,-1
 5 4 l 1,20,-1
4 3 m 1,24,-1
 4 2 l 1,25,-1
 3 2 l 1,26,-1
 3 3 l 1,27,-1
 4 3 l 1,24,-1
3 2 m 1,28,-1
 3 1 l 1,29,-1
 8 1 l 1,30,-1
 8 0 l 1,31,-1
 1 0 l 1,32,-1
 1 1 l 1,33,-1
 2 1 l 1,34,-1
 2 2 l 1,35,-1
 3 2 l 1,28,-1
3 9 m 1,36,-1
 3 8 l 1,37,-1
 2 8 l 1,38,-1
 2 9 l 1,39,-1
 3 9 l 1,36,-1
2 8 m 1,40,-1
 2 7 l 1,41,-1
 1 7 l 1,42,-1
 1 8 l 1,43,-1
 2 8 l 1,40,-1
EndSplineSet
EndChar

StartChar: three
Encoding: 51 51 50
Width: 9
GlyphClass: 1
Flags: W
LayerCount: 2
Fore
SplineSet
3 10 m 1,0,-1
 3 9 l 1,1,-1
 6 9 l 1,2,-1
 6 10 l 1,3,-1
 3 10 l 1,0,-1
6 9 m 1,4,-1
 7 9 l 1,5,-1
 7 8 l 1,6,-1
 6 8 l 1,7,-1
 6 9 l 1,4,-1
7 8 m 1,8,-1
 8 8 l 1,9,-1
 8 7 l 1,10,-1
 7 7 l 1,11,-1
 7 8 l 1,8,-1
7 7 m 1,12,-1
 7 6 l 1,13,-1
 6 6 l 1,14,-1
 6 7 l 1,15,-1
 7 7 l 1,12,-1
6 6 m 1,16,-1
 6 5 l 1,17,-1
 5 5 l 1,18,-1
 4 5 l 1,19,-1
 4 6 l 1,20,-1
 5 6 l 1,21,-1
 6 6 l 1,16,-1
6 5 m 1,22,-1
 7 5 l 1,23,-1
 7 4 l 1,24,-1
 6 4 l 1,25,-1
 6 5 l 1,22,-1
7 4 m 1,26,-1
 7 2 l 1,27,-1
 8 2 l 1,28,-1
 8 4 l 1,29,-1
 7 4 l 1,26,-1
7 2 m 1,30,-1
 7 1 l 1,31,-1
 6 1 l 1,32,-1
 6 2 l 1,33,-1
 7 2 l 1,30,-1
6 1 m 1,34,-1
 6 0 l 1,35,-1
 3 0 l 1,36,-1
 3 1 l 1,37,-1
 6 1 l 1,34,-1
3 1 m 1,38,-1
 2 1 l 1,39,-1
 2 2 l 1,40,-1
 3 2 l 1,41,-1
 3 1 l 1,38,-1
2 2 m 1,42,-1
 2 3 l 1,43,-1
 1 3 l 1,44,-1
 1 2 l 1,45,-1
 2 2 l 1,42,-1
3 9 m 1,46,-1
 3 8 l 1,47,-1
 2 8 l 1,48,-1
 2 9 l 1,49,-1
 3 9 l 1,46,-1
2 8 m 1,50,-1
 2 7 l 1,51,-1
 1 7 l 1,52,-1
 1 8 l 1,53,-1
 2 8 l 1,50,-1
EndSplineSet
EndChar

StartChar: four
Encoding: 52 52 51
Width: 9
GlyphClass: 1
Flags: W
LayerCount: 2
Fore
SplineSet
6 10 m 1,0,-1
 6 9 l 1,1,-1
 5 9 l 1,2,-1
 5 8 l 1,3,-1
 6 8 l 1,4,-1
 6 4 l 1,5,-1
 2 4 l 1,6,-1
 2 5 l 1,7,-1
 1 5 l 1,8,-1
 1 4 l 1,9,-1
 1 3 l 1,10,-1
 6 3 l 1,11,-1
 6 0 l 1,12,-1
 7 0 l 1,13,-1
 7 3 l 1,14,-1
 8 3 l 1,15,-1
 8 4 l 1,16,-1
 7 4 l 1,17,-1
 7 10 l 1,18,-1
 6 10 l 1,0,-1
2 5 m 1,19,-1
 2 6 l 1,20,-1
 3 6 l 1,21,-1
 3 5 l 1,22,-1
 2 5 l 1,19,-1
3 6 m 1,23,-1
 3 7 l 1,24,-1
 4 7 l 1,25,-1
 4 6 l 1,26,-1
 3 6 l 1,23,-1
4 7 m 1,27,-1
 4 8 l 1,28,-1
 5 8 l 1,29,-1
 5 7 l 1,30,-1
 4 7 l 1,27,-1
EndSplineSet
EndChar

StartChar: five
Encoding: 53 53 52
Width: 9
GlyphClass: 1
Flags: W
LayerCount: 2
Fore
SplineSet
1 10 m 1,0,-1
 1 9 l 1,1,-1
 1 7 l 1,2,-1
 1 6 l 1,3,-1
 6 6 l 1,4,-1
 6 7 l 1,5,-1
 2 7 l 1,6,-1
 2 9 l 1,7,-1
 8 9 l 1,8,-1
 8 10 l 1,9,-1
 1 10 l 1,0,-1
6 6 m 1,10,-1
 7 6 l 1,11,-1
 7 5 l 1,12,-1
 6 5 l 1,13,-1
 6 6 l 1,10,-1
7 5 m 1,14,-1
 7 2 l 1,15,-1
 8 2 l 1,16,-1
 8 5 l 1,17,-1
 7 5 l 1,14,-1
7 2 m 1,18,-1
 7 1 l 1,19,-1
 6 1 l 1,20,-1
 6 2 l 1,21,-1
 7 2 l 1,18,-1
6 1 m 1,22,-1
 6 0 l 1,23,-1
 3 0 l 1,24,-1
 3 1 l 1,25,-1
 6 1 l 1,22,-1
3 1 m 1,26,-1
 2 1 l 1,27,-1
 2 2 l 1,28,-1
 3 2 l 1,29,-1
 3 1 l 1,26,-1
2 2 m 1,30,-1
 2 3 l 1,31,-1
 1 3 l 1,32,-1
 1 2 l 1,33,-1
 2 2 l 1,30,-1
EndSplineSet
EndChar

StartChar: six
Encoding: 54 54 53
Width: 9
GlyphClass: 1
Flags: W
LayerCount: 2
Fore
SplineSet
3 10 m 1,0,-1
 3 9 l 1,1,-1
 6 9 l 1,2,-1
 6 10 l 1,3,-1
 3 10 l 1,0,-1
6 9 m 1,4,-1
 7 9 l 1,5,-1
 7 8 l 1,6,-1
 6 8 l 1,7,-1
 6 9 l 1,4,-1
7 8 m 1,8,-1
 8 8 l 1,9,-1
 8 7 l 1,10,-1
 7 7 l 1,11,-1
 7 8 l 1,8,-1
3 9 m 1,12,-1
 3 8 l 1,13,-1
 2 8 l 1,14,-1
 2 9 l 1,15,-1
 3 9 l 1,12,-1
2 8 m 1,16,-1
 1 8 l 1,17,-1
 1 2 l 1,18,-1
 2 2 l 1,19,-1
 2 4 l 1,20,-1
 3 4 l 1,21,-1
 3 5 l 1,22,-1
 2 5 l 1,23,-1
 2 8 l 1,16,-1
3 5 m 1,24,-1
 6 5 l 1,25,-1
 6 6 l 1,26,-1
 3 6 l 1,27,-1
 3 5 l 1,24,-1
6 5 m 1,28,-1
 7 5 l 1,29,-1
 7 4 l 1,30,-1
 6 4 l 1,31,-1
 6 5 l 1,28,-1
7 4 m 1,32,-1
 7 2 l 1,33,-1
 8 2 l 1,34,-1
 8 4 l 1,35,-1
 7 4 l 1,32,-1
7 2 m 1,36,-1
 7 1 l 1,37,-1
 6 1 l 1,38,-1
 6 2 l 1,39,-1
 7 2 l 1,36,-1
6 1 m 1,40,-1
 6 0 l 1,41,-1
 3 0 l 1,42,-1
 3 1 l 1,43,-1
 6 1 l 1,40,-1
3 1 m 1,44,-1
 2 1 l 1,45,-1
 2 2 l 1,46,-1
 3 2 l 1,47,-1
 3 1 l 1,44,-1
EndSplineSet
EndChar

StartChar: seven
Encoding: 55 55 54
Width: 9
GlyphClass: 1
Flags: W
LayerCount: 2
Fore
SplineSet
1 10 m 1,0,-1
 1 9 l 1,1,-1
 7 9 l 1,2,-1
 7 7 l 1,3,-1
 7 6 l 1,4,-1
 8 6 l 1,5,-1
 8 7 l 1,6,-1
 8 9 l 1,7,-1
 8 10 l 1,8,-1
 1 10 l 1,0,-1
7 6 m 1,9,-1
 7 5 l 1,10,-1
 6 5 l 1,11,-1
 6 6 l 1,12,-1
 7 6 l 1,9,-1
6 5 m 1,13,-1
 6 4 l 1,14,-1
 5 4 l 1,15,-1
 5 5 l 1,16,-1
 6 5 l 1,13,-1
5 4 m 1,17,-1
 5 3 l 1,18,-1
 4 3 l 1,19,-1
 4 4 l 1,20,-1
 5 4 l 1,17,-1
4 3 m 1,21,-1
 4 2 l 1,22,-1
 3 2 l 1,23,-1
 3 3 l 1,24,-1
 4 3 l 1,21,-1
3 2 m 1,25,-1
 3 1 l 1,26,-1
 2 1 l 1,27,-1
 2 2 l 1,28,-1
 3 2 l 1,25,-1
2 1 m 1,29,-1
 2 0 l 1,30,-1
 1 0 l 1,31,-1
 1 1 l 1,32,-1
 2 1 l 1,29,-1
EndSplineSet
EndChar

StartChar: eight
Encoding: 56 56 55
Width: 9
GlyphClass: 1
Flags: W
LayerCount: 2
Fore
SplineSet
3 10 m 1,0,-1
 3 9 l 1,1,-1
 6 9 l 1,2,-1
 6 10 l 1,3,-1
 3 10 l 1,0,-1
6 9 m 1,4,-1
 7 9 l 1,5,-1
 7 8 l 1,6,-1
 6 8 l 1,7,-1
 6 9 l 1,4,-1
7 8 m 1,8,-1
 8 8 l 1,9,-1
 8 7 l 1,10,-1
 7 7 l 1,11,-1
 7 8 l 1,8,-1
7 7 m 1,12,-1
 7 6 l 1,13,-1
 6 6 l 1,14,-1
 6 7 l 1,15,-1
 7 7 l 1,12,-1
6 6 m 1,16,-1
 6 5 l 1,17,-1
 3 5 l 1,18,-1
 3 6 l 1,19,-1
 6 6 l 1,16,-1
6 5 m 1,20,-1
 7 5 l 1,21,-1
 7 4 l 1,22,-1
 6 4 l 1,23,-1
 6 5 l 1,20,-1
7 4 m 1,24,-1
 7 2 l 1,25,-1
 8 2 l 1,26,-1
 8 4 l 1,27,-1
 7 4 l 1,24,-1
7 2 m 1,28,-1
 7 1 l 1,29,-1
 6 1 l 1,30,-1
 6 2 l 1,31,-1
 7 2 l 1,28,-1
6 1 m 1,32,-1
 6 0 l 1,33,-1
 3 0 l 1,34,-1
 3 1 l 1,35,-1
 6 1 l 1,32,-1
3 1 m 1,36,-1
 2 1 l 1,37,-1
 2 2 l 1,38,-1
 3 2 l 1,39,-1
 3 1 l 1,36,-1
2 2 m 1,40,-1
 2 4 l 1,41,-1
 1 4 l 1,42,-1
 1 2 l 1,43,-1
 2 2 l 1,40,-1
2 4 m 1,44,-1
 2 5 l 1,45,-1
 3 5 l 1,46,-1
 3 4 l 1,47,-1
 2 4 l 1,44,-1
3 6 m 1,48,-1
 2 6 l 1,49,-1
 2 7 l 1,50,-1
 3 7 l 1,51,-1
 3 6 l 1,48,-1
2 7 m 1,52,-1
 1 7 l 1,53,-1
 1 8 l 1,54,-1
 2 8 l 1,55,-1
 2 7 l 1,52,-1
2 8 m 1,56,-1
 2 9 l 1,57,-1
 3 9 l 1,58,-1
 3 8 l 1,59,-1
 2 8 l 1,56,-1
EndSplineSet
EndChar

StartChar: nine
Encoding: 57 57 56
Width: 9
GlyphClass: 1
Flags: W
LayerCount: 2
Fore
SplineSet
3 10 m 1,0,-1
 3 9 l 1,1,-1
 6 9 l 1,2,-1
 6 10 l 1,3,-1
 3 10 l 1,0,-1
6 9 m 1,4,-1
 7 9 l 1,5,-1
 7 8 l 1,6,-1
 6 8 l 1,7,-1
 6 9 l 1,4,-1
7 8 m 1,8,-1
 7 7 l 1,9,-1
 7 6 l 1,10,-1
 6 6 l 1,11,-1
 6 5 l 1,12,-1
 7 5 l 1,13,-1
 7 2 l 1,14,-1
 8 2 l 1,15,-1
 8 6 l 1,16,-1
 8 7 l 1,17,-1
 8 8 l 1,18,-1
 7 8 l 1,8,-1
7 2 m 1,19,-1
 7 1 l 1,20,-1
 6 1 l 1,21,-1
 6 2 l 1,22,-1
 7 2 l 1,19,-1
6 1 m 1,23,-1
 6 0 l 1,24,-1
 3 0 l 1,25,-1
 3 1 l 1,26,-1
 6 1 l 1,23,-1
3 1 m 1,27,-1
 2 1 l 1,28,-1
 2 2 l 1,29,-1
 3 2 l 1,30,-1
 3 1 l 1,27,-1
2 2 m 1,31,-1
 2 3 l 1,32,-1
 1 3 l 1,33,-1
 1 2 l 1,34,-1
 2 2 l 1,31,-1
6 5 m 1,35,-1
 6 4 l 1,36,-1
 3 4 l 1,37,-1
 3 5 l 1,38,-1
 6 5 l 1,35,-1
3 5 m 1,39,-1
 2 5 l 1,40,-1
 2 6 l 1,41,-1
 3 6 l 1,42,-1
 3 5 l 1,39,-1
2 6 m 1,43,-1
 1 6 l 1,44,-1
 1 7 l 1,45,-1
 1 8 l 1,46,-1
 2 8 l 1,47,-1
 2 7 l 1,48,-1
 2 6 l 1,43,-1
2 8 m 1,49,-1
 2 9 l 1,50,-1
 3 9 l 1,51,-1
 3 8 l 1,52,-1
 2 8 l 1,49,-1
EndSplineSet
EndChar

StartChar: colon
Encoding: 58 58 57
Width: 9
GlyphClass: 1
Flags: W
LayerCount: 2
Fore
SplineSet
4 11 m 1,0,-1
 4 8 l 1,1,-1
 5 8 l 1,2,-1
 5 11 l 1,3,-1
 4 11 l 1,0,-1
4 2 m 1,4,-1
 4 -1 l 1,5,-1
 5 -1 l 1,6,-1
 5 2 l 1,7,-1
 4 2 l 1,4,-1
EndSplineSet
EndChar

StartChar: semicolon
Encoding: 59 59 58
Width: 9
GlyphClass: 1
Flags: W
LayerCount: 2
Fore
SplineSet
4 11 m 1,0,-1
 4 8 l 1,1,-1
 5 8 l 1,2,-1
 5 11 l 1,3,-1
 4 11 l 1,0,-1
5 2 m 1,4,-1
 5 1 l 1,5,-1
 6 1 l 1,6,-1
 6 2 l 1,7,-1
 5 2 l 1,4,-1
5 1 m 1,8,-1
 5 0 l 1,9,-1
 4 0 l 1,10,-1
 4 1 l 1,11,-1
 5 1 l 1,8,-1
4 0 m 1,12,-1
 4 -1 l 1,13,-1
 3 -1 l 1,14,-1
 3 0 l 1,15,-1
 4 0 l 1,12,-1
EndSplineSet
EndChar

StartChar: less
Encoding: 60 60 59
Width: 9
GlyphClass: 1
Flags: W
LayerCount: 2
Fore
SplineSet
7 10 m 1,0,-1
 7 9 l 1,1,-1
 8 9 l 1,2,-1
 9 9 l 1,3,-1
 9 10 l 1,4,-1
 8 10 l 1,5,-1
 7 10 l 1,0,-1
7 9 m 1,6,-1
 7 8 l 1,7,-1
 6 8 l 1,8,-1
 5 8 l 1,9,-1
 5 9 l 1,10,-1
 6 9 l 1,11,-1
 7 9 l 1,6,-1
5 8 m 1,12,-1
 5 7 l 1,13,-1
 4 7 l 1,14,-1
 3 7 l 1,15,-1
 3 8 l 1,16,-1
 4 8 l 1,17,-1
 5 8 l 1,12,-1
3 7 m 1,18,-1
 3 6 l 1,19,-1
 2 6 l 1,20,-1
 1 6 l 1,21,-1
 1 7 l 1,22,-1
 2 7 l 1,23,-1
 3 7 l 1,18,-1
1 6 m 1,24,-1
 1 5 l 1,25,-1
 1 4 l 1,26,-1
 0 4 l 1,27,-1
 0 5 l 1,28,-1
 0 6 l 1,29,-1
 1 6 l 1,24,-1
1 4 m 1,30,-1
 2 4 l 1,31,-1
 3 4 l 1,32,-1
 3 3 l 1,33,-1
 2 3 l 1,34,-1
 1 3 l 1,35,-1
 1 4 l 1,30,-1
3 3 m 1,36,-1
 4 3 l 1,37,-1
 5 3 l 1,38,-1
 5 2 l 1,39,-1
 4 2 l 1,40,-1
 3 2 l 1,41,-1
 3 3 l 1,36,-1
5 2 m 1,42,-1
 6 2 l 1,43,-1
 7 2 l 1,44,-1
 7 1 l 1,45,-1
 6 1 l 1,46,-1
 5 1 l 1,47,-1
 5 2 l 1,42,-1
7 1 m 1,48,-1
 8 1 l 1,49,-1
 9 1 l 1,50,-1
 9 0 l 1,51,-1
 8 0 l 1,52,-1
 7 0 l 1,53,-1
 7 1 l 1,48,-1
EndSplineSet
EndChar

StartChar: equal
Encoding: 61 61 60
Width: 9
GlyphClass: 1
Flags: W
LayerCount: 2
Fore
SplineSet
0 10 m 1,0,-1
 0 9 l 1,1,-1
 9 9 l 1,2,-1
 9 10 l 1,3,-1
 0 10 l 1,0,-1
0 1 m 1,4,-1
 0 0 l 1,5,-1
 9 0 l 1,6,-1
 9 1 l 1,7,-1
 0 1 l 1,4,-1
EndSplineSet
EndChar

StartChar: greater
Encoding: 62 62 61
Width: 9
GlyphClass: 1
Flags: W
LayerCount: 2
Fore
SplineSet
0 10 m 1,0,-1
 0 9 l 1,1,-1
 2 9 l 1,2,-1
 2 10 l 1,3,-1
 0 10 l 1,0,-1
2 9 m 1,4,-1
 4 9 l 1,5,-1
 4 8 l 1,6,-1
 2 8 l 1,7,-1
 2 9 l 1,4,-1
4 8 m 1,8,-1
 6 8 l 1,9,-1
 6 7 l 1,10,-1
 4 7 l 1,11,-1
 4 8 l 1,8,-1
6 7 m 1,12,-1
 8 7 l 1,13,-1
 8 6 l 1,14,-1
 6 6 l 1,15,-1
 6 7 l 1,12,-1
8 6 m 1,16,-1
 8 4 l 1,17,-1
 9 4 l 1,18,-1
 9 6 l 1,19,-1
 8 6 l 1,16,-1
8 4 m 1,20,-1
 8 3 l 1,21,-1
 6 3 l 1,22,-1
 6 4 l 1,23,-1
 8 4 l 1,20,-1
6 3 m 1,24,-1
 6 2 l 1,25,-1
 4 2 l 1,26,-1
 4 3 l 1,27,-1
 6 3 l 1,24,-1
4 2 m 1,28,-1
 4 1 l 1,29,-1
 2 1 l 1,30,-1
 2 2 l 1,31,-1
 4 2 l 1,28,-1
2 1 m 1,32,-1
 2 0 l 1,33,-1
 0 0 l 1,34,-1
 0 1 l 1,35,-1
 2 1 l 1,32,-1
EndSplineSet
EndChar

StartChar: question
Encoding: 63 63 62
Width: 9
GlyphClass: 1
Flags: W
LayerCount: 2
Fore
SplineSet
3 10 m 1,0,-1
 3 9 l 1,1,-1
 6 9 l 1,2,-1
 6 10 l 1,3,-1
 3 10 l 1,0,-1
6 9 m 1,4,-1
 7 9 l 1,5,-1
 7 8 l 1,6,-1
 6 8 l 1,7,-1
 6 9 l 1,4,-1
7 8 m 1,8,-1
 8 8 l 1,9,-1
 8 7 l 1,10,-1
 7 7 l 1,11,-1
 7 8 l 1,8,-1
7 7 m 1,12,-1
 7 6 l 1,13,-1
 6 6 l 1,14,-1
 6 7 l 1,15,-1
 7 7 l 1,12,-1
6 6 m 1,16,-1
 6 5 l 1,17,-1
 5 5 l 1,18,-1
 5 6 l 1,19,-1
 6 6 l 1,16,-1
2 9 m 1,20,-1
 3 9 l 1,21,-1
 3 8 l 1,22,-1
 2 8 l 1,23,-1
 2 9 l 1,20,-1
2 8 m 1,24,-1
 2 7 l 1,25,-1
 1 7 l 1,26,-1
 1 8 l 1,27,-1
 2 8 l 1,24,-1
4 2 m 1,28,-1
 4 1 l 1,29,-1
 4 -1 l 1,30,-1
 5 -1 l 1,31,-1
 5 1 l 1,32,-1
 5 2 l 1,33,-1
 4 2 l 1,28,-1
EndSplineSet
EndChar

StartChar: at
Encoding: 64 64 63
Width: 9
GlyphClass: 1
Flags: W
LayerCount: 2
Fore
SplineSet
3 10 m 1,0,-1
 3 9 l 1,1,-1
 6 9 l 1,2,-1
 6 10 l 1,3,-1
 3 10 l 1,0,-1
6 9 m 1,4,-1
 7 9 l 1,5,-1
 7 8 l 1,6,-1
 6 8 l 1,7,-1
 6 9 l 1,4,-1
7 8 m 1,8,-1
 8 8 l 1,9,-1
 8 7 l 1,10,-1
 7 7 l 1,11,-1
 7 8 l 1,8,-1
3 9 m 1,12,-1
 3 8 l 1,13,-1
 2 8 l 1,14,-1
 2 9 l 1,15,-1
 3 9 l 1,12,-1
2 8 m 1,16,-1
 1 8 l 1,17,-1
 1 2 l 1,18,-1
 2 2 l 1,19,-1
 2 8 l 1,16,-1
2 2 m 1,20,-1
 3 2 l 1,21,-1
 3 1 l 1,22,-1
 2 1 l 1,23,-1
 2 2 l 1,20,-1
3 1 m 1,24,-1
 6 1 l 1,25,-1
 6 0 l 1,26,-1
 3 0 l 1,27,-1
 3 1 l 1,24,-1
6 1 m 1,28,-1
 7 1 l 1,29,-1
 7 5 l 1,30,-1
 6 5 l 1,31,-1
 6 3 l 1,32,-1
 5 3 l 1,33,-1
 4 3 l 1,34,-1
 4 2 l 1,35,-1
 5 2 l 1,36,-1
 6 2 l 1,37,-1
 6 1 l 1,28,-1
4 3 m 1,38,-1
 4 5 l 1,39,-1
 3 5 l 1,40,-1
 3 3 l 1,41,-1
 4 3 l 1,38,-1
4 5 m 1,42,-1
 5 5 l 1,43,-1
 6 5 l 1,44,-1
 6 6 l 1,45,-1
 5 6 l 1,46,-1
 4 6 l 1,47,-1
 4 5 l 1,42,-1
EndSplineSet
EndChar

StartChar: A
Encoding: 65 65 64
Width: 9
GlyphClass: 1
Flags: W
LayerCount: 2
Fore
SplineSet
3 10 m 1,0,-1
 3 9 l 1,1,-1
 6 9 l 1,2,-1
 6 10 l 1,3,-1
 3 10 l 1,0,-1
6 9 m 1,4,-1
 7 9 l 1,5,-1
 7 8 l 1,6,-1
 6 8 l 1,7,-1
 6 9 l 1,4,-1
7 8 m 1,8,-1
 7 6 l 1,9,-1
 2 6 l 1,10,-1
 2 8 l 1,11,-1
 1 8 l 1,12,-1
 1 0 l 1,13,-1
 2 0 l 1,14,-1
 2 5 l 1,15,-1
 7 5 l 1,16,-1
 7 0 l 1,17,-1
 8 0 l 1,18,-1
 8 8 l 1,19,-1
 7 8 l 1,8,-1
2 8 m 1,20,-1
 2 9 l 1,21,-1
 3 9 l 1,22,-1
 3 8 l 1,23,-1
 2 8 l 1,20,-1
EndSplineSet
EndChar

StartChar: B
Encoding: 66 66 65
Width: 9
GlyphClass: 1
Flags: W
LayerCount: 2
Fore
SplineSet
1 10 m 1,0,-1
 1 0 l 1,1,-1
 2 0 l 1,2,-1
 7 0 l 1,3,-1
 7 1 l 1,4,-1
 2 1 l 1,5,-1
 2 5 l 1,6,-1
 7 5 l 1,7,-1
 7 6 l 1,8,-1
 2 6 l 1,9,-1
 2 9 l 1,10,-1
 7 9 l 1,11,-1
 7 10 l 1,12,-1
 2 10 l 1,13,-1
 1 10 l 1,0,-1
7 9 m 1,14,-1
 7 6 l 1,15,-1
 8 6 l 1,16,-1
 8 9 l 1,17,-1
 7 9 l 1,14,-1
7 5 m 1,18,-1
 7 1 l 1,19,-1
 8 1 l 1,20,-1
 8 5 l 1,21,-1
 7 5 l 1,18,-1
EndSplineSet
EndChar

StartChar: C
Encoding: 67 67 66
Width: 9
GlyphClass: 1
Flags: W
LayerCount: 2
Fore
SplineSet
3 10 m 1,0,-1
 3 9 l 1,1,-1
 7 9 l 1,2,-1
 7 10 l 1,3,-1
 3 10 l 1,0,-1
7 9 m 1,4,-1
 8 9 l 1,5,-1
 8 8 l 1,6,-1
 7 8 l 1,7,-1
 7 9 l 1,4,-1
3 9 m 1,8,-1
 3 8 l 1,9,-1
 2 8 l 1,10,-1
 2 9 l 1,11,-1
 3 9 l 1,8,-1
2 8 m 1,12,-1
 1 8 l 1,13,-1
 1 2 l 1,14,-1
 2 2 l 1,15,-1
 2 8 l 1,12,-1
2 2 m 1,16,-1
 3 2 l 1,17,-1
 3 1 l 1,18,-1
 2 1 l 1,19,-1
 2 2 l 1,16,-1
3 1 m 1,20,-1
 7 1 l 1,21,-1
 7 0 l 1,22,-1
 3 0 l 1,23,-1
 3 1 l 1,20,-1
7 1 m 1,24,-1
 7 2 l 1,25,-1
 8 2 l 1,26,-1
 8 1 l 1,27,-1
 7 1 l 1,24,-1
EndSplineSet
EndChar

StartChar: D
Encoding: 68 68 67
Width: 9
GlyphClass: 1
Flags: W
LayerCount: 2
Fore
SplineSet
1 10 m 1,0,-1
 1 0 l 1,1,-1
 2 0 l 1,2,-1
 6 0 l 1,3,-1
 6 1 l 1,4,-1
 2 1 l 1,5,-1
 2 9 l 1,6,-1
 6 9 l 1,7,-1
 6 10 l 1,8,-1
 2 10 l 1,9,-1
 1 10 l 1,0,-1
6 9 m 1,10,-1
 7 9 l 1,11,-1
 7 8 l 1,12,-1
 6 8 l 1,13,-1
 6 9 l 1,10,-1
7 8 m 1,14,-1
 7 2 l 1,15,-1
 8 2 l 1,16,-1
 8 8 l 1,17,-1
 7 8 l 1,14,-1
7 2 m 1,18,-1
 7 1 l 1,19,-1
 6 1 l 1,20,-1
 6 2 l 1,21,-1
 7 2 l 1,18,-1
EndSplineSet
EndChar

StartChar: E
Encoding: 69 69 68
Width: 9
GlyphClass: 1
Flags: W
LayerCount: 2
Fore
SplineSet
1 10 m 1,0,-1
 1 0 l 1,1,-1
 2 0 l 1,2,-1
 8 0 l 1,3,-1
 8 1 l 1,4,-1
 2 1 l 1,5,-1
 2 5 l 1,6,-1
 7 5 l 1,7,-1
 7 6 l 1,8,-1
 2 6 l 1,9,-1
 2 9 l 1,10,-1
 8 9 l 1,11,-1
 8 10 l 1,12,-1
 2 10 l 1,13,-1
 1 10 l 1,0,-1
EndSplineSet
EndChar

StartChar: F
Encoding: 70 70 69
Width: 9
GlyphClass: 1
Flags: W
LayerCount: 2
Fore
SplineSet
1 10 m 1,0,-1
 1 0 l 1,1,-1
 2 0 l 1,2,-1
 2 5 l 1,3,-1
 7 5 l 1,4,-1
 7 6 l 1,5,-1
 2 6 l 1,6,-1
 2 9 l 1,7,-1
 8 9 l 1,8,-1
 8 10 l 1,9,-1
 2 10 l 1,10,-1
 1 10 l 1,0,-1
EndSplineSet
EndChar

StartChar: G
Encoding: 71 71 70
Width: 9
GlyphClass: 1
Flags: W
LayerCount: 2
Fore
SplineSet
3 10 m 1,0,-1
 3 9 l 1,1,-1
 6 9 l 1,2,-1
 6 10 l 1,3,-1
 3 10 l 1,0,-1
6 9 m 1,4,-1
 7 9 l 1,5,-1
 7 8 l 1,6,-1
 6 8 l 1,7,-1
 6 9 l 1,4,-1
7 8 m 1,8,-1
 8 8 l 1,9,-1
 8 7 l 1,10,-1
 7 7 l 1,11,-1
 7 8 l 1,8,-1
3 9 m 1,12,-1
 3 8 l 1,13,-1
 2 8 l 1,14,-1
 2 9 l 1,15,-1
 3 9 l 1,12,-1
2 8 m 1,16,-1
 1 8 l 1,17,-1
 1 2 l 1,18,-1
 2 2 l 1,19,-1
 2 8 l 1,16,-1
2 2 m 1,20,-1
 3 2 l 1,21,-1
 3 1 l 1,22,-1
 2 1 l 1,23,-1
 2 2 l 1,20,-1
3 1 m 1,24,-1
 6 1 l 1,25,-1
 6 0 l 1,26,-1
 3 0 l 1,27,-1
 3 1 l 1,24,-1
6 1 m 1,28,-1
 6 2 l 1,29,-1
 7 2 l 1,30,-1
 7 1 l 1,31,-1
 6 1 l 1,28,-1
7 2 m 1,32,-1
 8 2 l 1,33,-1
 8 5 l 1,34,-1
 7 5 l 1,35,-1
 4 5 l 1,36,-1
 4 4 l 1,37,-1
 7 4 l 1,38,-1
 7 2 l 1,32,-1
EndSplineSet
EndChar

StartChar: H
Encoding: 72 72 71
Width: 9
GlyphClass: 1
Flags: W
LayerCount: 2
Fore
SplineSet
1 10 m 1,0,-1
 1 0 l 1,1,-1
 2 0 l 1,2,-1
 2 5 l 1,3,-1
 7 5 l 1,4,-1
 7 0 l 1,5,-1
 8 0 l 1,6,-1
 8 10 l 1,7,-1
 7 10 l 1,8,-1
 7 6 l 1,9,-1
 2 6 l 1,10,-1
 2 10 l 1,11,-1
 1 10 l 1,0,-1
EndSplineSet
EndChar

StartChar: I
Encoding: 73 73 72
Width: 9
GlyphClass: 1
Flags: W
LayerCount: 2
Fore
SplineSet
1 10 m 1,0,-1
 1 9 l 1,1,-1
 4 9 l 1,2,-1
 4 1 l 1,3,-1
 1 1 l 1,4,-1
 1 0 l 1,5,-1
 4 0 l 1,6,-1
 5 0 l 1,7,-1
 8 0 l 1,8,-1
 8 1 l 1,9,-1
 5 1 l 1,10,-1
 5 9 l 1,11,-1
 8 9 l 1,12,-1
 8 10 l 1,13,-1
 5 10 l 1,14,-1
 4 10 l 1,15,-1
 1 10 l 1,0,-1
EndSplineSet
EndChar

StartChar: J
Encoding: 74 74 73
Width: 9
GlyphClass: 1
Flags: W
LayerCount: 2
Fore
SplineSet
7 10 m 1,0,-1
 7 2 l 1,1,-1
 8 2 l 1,2,-1
 8 10 l 1,3,-1
 7 10 l 1,0,-1
7 2 m 1,4,-1
 7 1 l 1,5,-1
 6 1 l 1,6,-1
 6 2 l 1,7,-1
 7 2 l 1,4,-1
6 1 m 1,8,-1
 6 0 l 1,9,-1
 3 0 l 1,10,-1
 3 1 l 1,11,-1
 6 1 l 1,8,-1
3 1 m 1,12,-1
 2 1 l 1,13,-1
 2 2 l 1,14,-1
 3 2 l 1,15,-1
 3 1 l 1,12,-1
2 2 m 1,16,-1
 2 4 l 1,17,-1
 1 4 l 1,18,-1
 1 2 l 1,19,-1
 2 2 l 1,16,-1
EndSplineSet
EndChar

StartChar: K
Encoding: 75 75 74
Width: 9
GlyphClass: 1
Flags: W
LayerCount: 2
Fore
SplineSet
1 10 m 1,0,-1
 1 0 l 1,1,-1
 2 0 l 1,2,-1
 2 5 l 1,3,-1
 3 5 l 1,4,-1
 3 4 l 1,5,-1
 4 4 l 1,6,-1
 4 5 l 1,7,-1
 4 6 l 1,8,-1
 3 6 l 1,9,-1
 2 6 l 1,10,-1
 2 10 l 1,11,-1
 1 10 l 1,0,-1
4 6 m 1,12,-1
 4 7 l 1,13,-1
 5 7 l 1,14,-1
 5 6 l 1,15,-1
 4 6 l 1,12,-1
5 7 m 1,16,-1
 5 8 l 1,17,-1
 6 8 l 1,18,-1
 6 7 l 1,19,-1
 5 7 l 1,16,-1
6 8 m 1,20,-1
 6 9 l 1,21,-1
 7 9 l 1,22,-1
 7 8 l 1,23,-1
 6 8 l 1,20,-1
7 9 m 1,24,-1
 8 9 l 1,25,-1
 8 10 l 1,26,-1
 7 10 l 1,27,-1
 7 9 l 1,24,-1
4 4 m 1,28,-1
 5 4 l 1,29,-1
 5 3 l 1,30,-1
 4 3 l 1,31,-1
 4 4 l 1,28,-1
5 3 m 1,32,-1
 6 3 l 1,33,-1
 6 2 l 1,34,-1
 5 2 l 1,35,-1
 5 3 l 1,32,-1
6 2 m 1,36,-1
 7 2 l 1,37,-1
 7 1 l 1,38,-1
 6 1 l 1,39,-1
 6 2 l 1,36,-1
7 1 m 1,40,-1
 8 1 l 1,41,-1
 8 0 l 1,42,-1
 7 0 l 1,43,-1
 7 1 l 1,40,-1
EndSplineSet
EndChar

StartChar: L
Encoding: 76 76 75
Width: 9
GlyphClass: 1
Flags: W
LayerCount: 2
Fore
SplineSet
1 10 m 1,0,-1
 1 0 l 1,1,-1
 2 0 l 1,2,-1
 8 0 l 1,3,-1
 8 1 l 1,4,-1
 2 1 l 1,5,-1
 2 10 l 1,6,-1
 1 10 l 1,0,-1
EndSplineSet
EndChar

StartChar: M
Encoding: 77 77 76
Width: 9
GlyphClass: 1
Flags: W
LayerCount: 2
Fore
SplineSet
1 10 m 1,0,-1
 1 0 l 1,1,-1
 2 0 l 1,2,-1
 2 8 l 1,3,-1
 3 8 l 1,4,-1
 3 9 l 1,5,-1
 2 9 l 1,6,-1
 2 10 l 1,7,-1
 1 10 l 1,0,-1
3 8 m 1,8,-1
 4 8 l 1,9,-1
 4 7 l 1,10,-1
 3 7 l 1,11,-1
 3 8 l 1,8,-1
4 7 m 1,12,-1
 5 7 l 1,13,-1
 5 6 l 1,14,-1
 4 6 l 1,15,-1
 4 7 l 1,12,-1
5 7 m 1,16,-1
 5 8 l 1,17,-1
 6 8 l 1,18,-1
 6 7 l 1,19,-1
 5 7 l 1,16,-1
6 8 m 1,20,-1
 7 8 l 1,21,-1
 7 0 l 1,22,-1
 8 0 l 1,23,-1
 8 10 l 1,24,-1
 7 10 l 1,25,-1
 7 9 l 1,26,-1
 6 9 l 1,27,-1
 6 8 l 1,20,-1
EndSplineSet
EndChar

StartChar: N
Encoding: 78 78 77
Width: 9
GlyphClass: 1
Flags: W
LayerCount: 2
Fore
SplineSet
1 10 m 1,0,-1
 1 0 l 1,1,-1
 2 0 l 1,2,-1
 2 8 l 1,3,-1
 3 8 l 1,4,-1
 3 9 l 1,5,-1
 2 9 l 1,6,-1
 2 10 l 1,7,-1
 1 10 l 1,0,-1
3 8 m 1,8,-1
 4 8 l 1,9,-1
 4 7 l 1,10,-1
 3 7 l 1,11,-1
 3 8 l 1,8,-1
4 7 m 1,12,-1
 5 7 l 1,13,-1
 5 6 l 1,14,-1
 4 6 l 1,15,-1
 4 7 l 1,12,-1
5 6 m 1,16,-1
 6 6 l 1,17,-1
 6 5 l 1,18,-1
 5 5 l 1,19,-1
 5 6 l 1,16,-1
6 5 m 1,20,-1
 6 4 l 1,21,-1
 7 4 l 1,22,-1
 7 0 l 1,23,-1
 8 0 l 1,24,-1
 8 10 l 1,25,-1
 7 10 l 1,26,-1
 7 5 l 1,27,-1
 6 5 l 1,20,-1
EndSplineSet
EndChar

StartChar: O
Encoding: 79 79 78
Width: 9
GlyphClass: 1
Flags: W
LayerCount: 2
Fore
SplineSet
3 10 m 1,0,-1
 3 9 l 1,1,-1
 6 9 l 1,2,-1
 6 10 l 1,3,-1
 3 10 l 1,0,-1
6 9 m 1,4,-1
 7 9 l 1,5,-1
 7 8 l 1,6,-1
 6 8 l 1,7,-1
 6 9 l 1,4,-1
7 8 m 1,8,-1
 7 2 l 1,9,-1
 8 2 l 1,10,-1
 8 8 l 1,11,-1
 7 8 l 1,8,-1
7 2 m 1,12,-1
 7 1 l 1,13,-1
 6 1 l 1,14,-1
 6 2 l 1,15,-1
 7 2 l 1,12,-1
6 1 m 1,16,-1
 6 0 l 1,17,-1
 3 0 l 1,18,-1
 3 1 l 1,19,-1
 6 1 l 1,16,-1
3 1 m 1,20,-1
 2 1 l 1,21,-1
 2 2 l 1,22,-1
 3 2 l 1,23,-1
 3 1 l 1,20,-1
2 2 m 1,24,-1
 2 8 l 1,25,-1
 1 8 l 1,26,-1
 1 2 l 1,27,-1
 2 2 l 1,24,-1
2 8 m 1,28,-1
 2 9 l 1,29,-1
 3 9 l 1,30,-1
 3 8 l 1,31,-1
 2 8 l 1,28,-1
EndSplineSet
EndChar

StartChar: P
Encoding: 80 80 79
Width: 9
GlyphClass: 1
Flags: W
LayerCount: 2
Fore
SplineSet
1 10 m 1,0,-1
 1 0 l 1,1,-1
 2 0 l 1,2,-1
 2 5 l 1,3,-1
 7 5 l 1,4,-1
 7 6 l 1,5,-1
 2 6 l 1,6,-1
 2 9 l 1,7,-1
 7 9 l 1,8,-1
 7 10 l 1,9,-1
 2 10 l 1,10,-1
 1 10 l 1,0,-1
7 9 m 1,11,-1
 7 6 l 1,12,-1
 8 6 l 1,13,-1
 8 9 l 1,14,-1
 7 9 l 1,11,-1
EndSplineSet
EndChar

StartChar: Q
Encoding: 81 81 80
Width: 9
GlyphClass: 1
Flags: W
LayerCount: 2
Fore
SplineSet
3 10 m 1,0,-1
 3 9 l 1,1,-1
 4 9 l 1,2,-1
 5 9 l 1,3,-1
 6 9 l 1,4,-1
 6 10 l 1,5,-1
 5 10 l 1,6,-1
 4 10 l 1,7,-1
 3 10 l 1,0,-1
6 9 m 1,8,-1
 7 9 l 1,9,-1
 7 8 l 1,10,-1
 6 8 l 1,11,-1
 6 9 l 1,8,-1
7 8 m 1,12,-1
 8 8 l 1,13,-1
 8 7 l 1,14,-1
 8 6 l 1,15,-1
 8 5 l 1,16,-1
 8 4 l 1,17,-1
 8 3 l 1,18,-1
 8 2 l 1,19,-1
 7 2 l 1,20,-1
 7 3 l 1,21,-1
 7 4 l 1,22,-1
 7 5 l 1,23,-1
 7 6 l 1,24,-1
 7 7 l 1,25,-1
 7 8 l 1,12,-1
7 2 m 1,26,-1
 7 1 l 1,27,-1
 6 1 l 1,28,-1
 6 2 l 1,29,-1
 7 2 l 1,26,-1
7 1 m 1,30,-1
 8 1 l 1,31,-1
 8 0 l 1,32,-1
 7 0 l 1,33,-1
 7 1 l 1,30,-1
6 1 m 1,34,-1
 6 0 l 1,35,-1
 5 0 l 1,36,-1
 4 0 l 1,37,-1
 3 0 l 1,38,-1
 3 1 l 1,39,-1
 4 1 l 1,40,-1
 5 1 l 1,41,-1
 6 1 l 1,34,-1
3 1 m 1,42,-1
 2 1 l 1,43,-1
 2 2 l 1,44,-1
 3 2 l 1,45,-1
 3 1 l 1,42,-1
2 2 m 1,46,-1
 1 2 l 1,47,-1
 1 3 l 1,48,-1
 1 4 l 1,49,-1
 1 5 l 1,50,-1
 1 6 l 1,51,-1
 1 7 l 1,52,-1
 1 8 l 1,53,-1
 2 8 l 1,54,-1
 2 7 l 1,55,-1
 2 6 l 1,56,-1
 2 5 l 1,57,-1
 2 4 l 1,58,-1
 2 3 l 1,59,-1
 2 2 l 1,46,-1
2 8 m 1,60,-1
 2 9 l 1,61,-1
 3 9 l 1,62,-1
 3 8 l 1,63,-1
 2 8 l 1,60,-1
6 2 m 1,64,-1
 5 2 l 1,65,-1
 5 3 l 1,66,-1
 6 3 l 1,67,-1
 6 2 l 1,64,-1
5 3 m 1,68,-1
 4 3 l 1,69,-1
 4 4 l 1,70,-1
 5 4 l 1,71,-1
 5 3 l 1,68,-1
EndSplineSet
EndChar

StartChar: R
Encoding: 82 82 81
Width: 9
GlyphClass: 1
Flags: W
LayerCount: 2
Fore
SplineSet
1 10 m 1,0,-1
 1 0 l 1,1,-1
 2 0 l 1,2,-1
 2 4 l 1,3,-1
 4 4 l 1,4,-1
 4 3 l 1,5,-1
 5 3 l 1,6,-1
 5 4 l 1,7,-1
 6 4 l 1,8,-1
 6 5 l 1,9,-1
 2 5 l 1,10,-1
 2 9 l 1,11,-1
 6 9 l 1,12,-1
 6 10 l 1,13,-1
 2 10 l 1,14,-1
 1 10 l 1,0,-1
6 9 m 1,15,-1
 7 9 l 1,16,-1
 7 8 l 1,17,-1
 6 8 l 1,18,-1
 6 9 l 1,15,-1
7 8 m 1,19,-1
 7 6 l 1,20,-1
 8 6 l 1,21,-1
 8 8 l 1,22,-1
 7 8 l 1,19,-1
7 6 m 1,23,-1
 7 5 l 1,24,-1
 6 5 l 1,25,-1
 6 6 l 1,26,-1
 7 6 l 1,23,-1
5 3 m 1,27,-1
 6 3 l 1,28,-1
 6 2 l 1,29,-1
 5 2 l 1,30,-1
 5 3 l 1,27,-1
6 2 m 1,31,-1
 7 2 l 1,32,-1
 7 1 l 1,33,-1
 6 1 l 1,34,-1
 6 2 l 1,31,-1
7 1 m 1,35,-1
 8 1 l 1,36,-1
 8 0 l 1,37,-1
 7 0 l 1,38,-1
 7 1 l 1,35,-1
EndSplineSet
EndChar

StartChar: S
Encoding: 83 83 82
Width: 9
GlyphClass: 1
Flags: W
LayerCount: 2
Fore
SplineSet
2 10 m 1,0,-1
 2 9 l 1,1,-1
 7 9 l 1,2,-1
 7 10 l 1,3,-1
 2 10 l 1,0,-1
7 9 m 1,4,-1
 8 9 l 1,5,-1
 8 8 l 1,6,-1
 7 8 l 1,7,-1
 7 9 l 1,4,-1
2 9 m 1,8,-1
 1 9 l 1,9,-1
 1 8 l 1,10,-1
 1 6 l 1,11,-1
 2 6 l 1,12,-1
 2 8 l 1,13,-1
 2 9 l 1,8,-1
2 6 m 1,14,-1
 7 6 l 1,15,-1
 7 5 l 1,16,-1
 2 5 l 1,17,-1
 2 6 l 1,14,-1
7 5 m 1,18,-1
 7 2 l 1,19,-1
 7 1 l 1,20,-1
 8 1 l 1,21,-1
 8 2 l 1,22,-1
 8 5 l 1,23,-1
 7 5 l 1,18,-1
7 1 m 1,24,-1
 7 0 l 1,25,-1
 2 0 l 1,26,-1
 2 1 l 1,27,-1
 7 1 l 1,24,-1
2 1 m 1,28,-1
 1 1 l 1,29,-1
 1 2 l 1,30,-1
 2 2 l 1,31,-1
 2 1 l 1,28,-1
EndSplineSet
EndChar

StartChar: T
Encoding: 84 84 83
Width: 9
GlyphClass: 1
Flags: W
LayerCount: 2
Fore
SplineSet
1 10 m 1,0,-1
 1 9 l 1,1,-1
 4 9 l 1,2,-1
 4 0 l 1,3,-1
 5 0 l 1,4,-1
 5 9 l 1,5,-1
 8 9 l 1,6,-1
 8 10 l 1,7,-1
 1 10 l 1,0,-1
EndSplineSet
EndChar

StartChar: U
Encoding: 85 85 84
Width: 9
GlyphClass: 1
Flags: W
LayerCount: 2
Fore
SplineSet
1 10 m 1,0,-1
 1 2 l 1,1,-1
 2 2 l 1,2,-1
 2 10 l 1,3,-1
 1 10 l 1,0,-1
2 2 m 1,4,-1
 3 2 l 1,5,-1
 3 1 l 1,6,-1
 2 1 l 1,7,-1
 2 2 l 1,4,-1
3 1 m 1,8,-1
 6 1 l 1,9,-1
 6 0 l 1,10,-1
 3 0 l 1,11,-1
 3 1 l 1,8,-1
6 1 m 1,12,-1
 6 2 l 1,13,-1
 7 2 l 1,14,-1
 7 1 l 1,15,-1
 6 1 l 1,12,-1
7 2 m 1,16,-1
 8 2 l 1,17,-1
 8 10 l 1,18,-1
 7 10 l 1,19,-1
 7 2 l 1,16,-1
EndSplineSet
EndChar

StartChar: V
Encoding: 86 86 85
Width: 9
GlyphClass: 1
Flags: W
LayerCount: 2
Fore
SplineSet
1 10 m 1,0,-1
 1 7 l 1,1,-1
 2 7 l 1,2,-1
 2 10 l 1,3,-1
 1 10 l 1,0,-1
2 7 m 1,4,-1
 2 4 l 1,5,-1
 3 4 l 1,6,-1
 3 7 l 1,7,-1
 2 7 l 1,4,-1
3 4 m 1,8,-1
 3 1 l 1,9,-1
 4 1 l 1,10,-1
 4 4 l 1,11,-1
 3 4 l 1,8,-1
4 1 m 1,12,-1
 5 1 l 1,13,-1
 5 0 l 1,14,-1
 4 0 l 1,15,-1
 4 1 l 1,12,-1
5 1 m 1,16,-1
 6 1 l 1,17,-1
 6 4 l 1,18,-1
 5 4 l 1,19,-1
 5 1 l 1,16,-1
6 4 m 1,20,-1
 7 4 l 1,21,-1
 7 7 l 1,22,-1
 6 7 l 1,23,-1
 6 4 l 1,20,-1
7 7 m 1,24,-1
 8 7 l 1,25,-1
 8 10 l 1,26,-1
 7 10 l 1,27,-1
 7 7 l 1,24,-1
EndSplineSet
EndChar

StartChar: W
Encoding: 87 87 86
Width: 9
GlyphClass: 1
Flags: W
LayerCount: 2
Fore
SplineSet
1 10 m 1,0,-1
 1 1 l 1,1,-1
 2 1 l 1,2,-1
 2 10 l 1,3,-1
 1 10 l 1,0,-1
2 1 m 1,4,-1
 3 1 l 1,5,-1
 3 0 l 1,6,-1
 2 0 l 1,7,-1
 2 1 l 1,4,-1
3 1 m 1,8,-1
 4 1 l 1,9,-1
 4 3 l 1,10,-1
 3 3 l 1,11,-1
 3 1 l 1,8,-1
4 3 m 1,12,-1
 5 3 l 1,13,-1
 5 5 l 1,14,-1
 4 5 l 1,15,-1
 4 3 l 1,12,-1
5 3 m 1,16,-1
 5 1 l 1,17,-1
 6 1 l 1,18,-1
 6 3 l 1,19,-1
 5 3 l 1,16,-1
6 1 m 1,20,-1
 7 1 l 1,21,-1
 7 0 l 1,22,-1
 6 0 l 1,23,-1
 6 1 l 1,20,-1
7 1 m 1,24,-1
 8 1 l 1,25,-1
 8 10 l 1,26,-1
 7 10 l 1,27,-1
 7 1 l 1,24,-1
EndSplineSet
EndChar

StartChar: X
Encoding: 88 88 87
Width: 9
GlyphClass: 1
Flags: W
LayerCount: 2
Fore
SplineSet
1 10 m 1,0,-1
 1 9 l 1,1,-1
 2 9 l 1,2,-1
 2 10 l 1,3,-1
 1 10 l 1,0,-1
2 9 m 1,4,-1
 2 7 l 1,5,-1
 3 7 l 1,6,-1
 3 9 l 1,7,-1
 2 9 l 1,4,-1
3 7 m 1,8,-1
 4 7 l 1,9,-1
 4 6 l 1,10,-1
 3 6 l 1,11,-1
 3 7 l 1,8,-1
4 6 m 1,12,-1
 4 4 l 1,13,-1
 5 4 l 1,14,-1
 5 6 l 1,15,-1
 4 6 l 1,12,-1
5 6 m 1,16,-1
 5 7 l 1,17,-1
 6 7 l 1,18,-1
 6 6 l 1,19,-1
 5 6 l 1,16,-1
6 7 m 1,20,-1
 7 7 l 1,21,-1
 7 9 l 1,22,-1
 6 9 l 1,23,-1
 6 7 l 1,20,-1
7 9 m 1,24,-1
 8 9 l 1,25,-1
 8 10 l 1,26,-1
 7 10 l 1,27,-1
 7 9 l 1,24,-1
5 4 m 1,28,-1
 6 4 l 1,29,-1
 6 3 l 1,30,-1
 5 3 l 1,31,-1
 5 4 l 1,28,-1
6 3 m 1,32,-1
 6 1 l 1,33,-1
 7 1 l 1,34,-1
 7 3 l 1,35,-1
 6 3 l 1,32,-1
7 1 m 1,36,-1
 8 1 l 1,37,-1
 8 0 l 1,38,-1
 7 0 l 1,39,-1
 7 1 l 1,36,-1
4 4 m 1,40,-1
 4 3 l 1,41,-1
 3 3 l 1,42,-1
 3 4 l 1,43,-1
 4 4 l 1,40,-1
3 3 m 1,44,-1
 2 3 l 1,45,-1
 2 1 l 1,46,-1
 3 1 l 1,47,-1
 3 3 l 1,44,-1
2 1 m 1,48,-1
 2 0 l 1,49,-1
 1 0 l 1,50,-1
 1 1 l 1,51,-1
 2 1 l 1,48,-1
EndSplineSet
EndChar

StartChar: Y
Encoding: 89 89 88
Width: 9
GlyphClass: 1
Flags: W
LayerCount: 2
Fore
SplineSet
1 10 m 1,0,-1
 1 8 l 1,1,-1
 2 8 l 1,2,-1
 2 10 l 1,3,-1
 1 10 l 1,0,-1
2 8 m 1,4,-1
 2 6 l 1,5,-1
 3 6 l 1,6,-1
 3 8 l 1,7,-1
 2 8 l 1,4,-1
3 6 m 1,8,-1
 4 6 l 1,9,-1
 4 5 l 1,10,-1
 3 5 l 1,11,-1
 3 6 l 1,8,-1
4 5 m 1,12,-1
 4 0 l 1,13,-1
 5 0 l 1,14,-1
 5 5 l 1,15,-1
 4 5 l 1,12,-1
5 5 m 1,16,-1
 5 6 l 1,17,-1
 6 6 l 1,18,-1
 6 5 l 1,19,-1
 5 5 l 1,16,-1
6 6 m 1,20,-1
 7 6 l 1,21,-1
 7 8 l 1,22,-1
 6 8 l 1,23,-1
 6 6 l 1,20,-1
7 8 m 1,24,-1
 8 8 l 1,25,-1
 8 10 l 1,26,-1
 7 10 l 1,27,-1
 7 8 l 1,24,-1
EndSplineSet
EndChar

StartChar: Z
Encoding: 90 90 89
Width: 9
GlyphClass: 1
Flags: W
LayerCount: 2
Fore
SplineSet
1 10 m 1,0,-1
 1 9 l 1,1,-1
 7 9 l 1,2,-1
 7 8 l 1,3,-1
 8 8 l 1,4,-1
 8 9 l 1,5,-1
 8 10 l 1,6,-1
 1 10 l 1,0,-1
7 8 m 1,7,-1
 7 7 l 1,8,-1
 6 7 l 1,9,-1
 6 8 l 1,10,-1
 7 8 l 1,7,-1
6 7 m 1,11,-1
 6 6 l 1,12,-1
 5 6 l 1,13,-1
 5 7 l 1,14,-1
 6 7 l 1,11,-1
5 6 m 1,15,-1
 5 5 l 1,16,-1
 4 5 l 1,17,-1
 4 6 l 1,18,-1
 5 6 l 1,15,-1
4 5 m 1,19,-1
 4 4 l 1,20,-1
 3 4 l 1,21,-1
 3 5 l 1,22,-1
 4 5 l 1,19,-1
3 4 m 1,23,-1
 3 3 l 1,24,-1
 2 3 l 1,25,-1
 2 4 l 1,26,-1
 3 4 l 1,23,-1
2 3 m 1,27,-1
 2 2 l 1,28,-1
 2 1 l 1,29,-1
 8 1 l 1,30,-1
 8 0 l 1,31,-1
 1 0 l 1,32,-1
 1 1 l 1,33,-1
 1 2 l 1,34,-1
 1 3 l 1,35,-1
 2 3 l 1,27,-1
EndSplineSet
EndChar

StartChar: bracketleft
Encoding: 91 91 90
Width: 9
GlyphClass: 1
Flags: W
LayerCount: 2
Fore
SplineSet
4 10 m 1,0,-1
 4 0 l 1,1,-1
 5 0 l 1,2,-1
 9 0 l 1,3,-1
 9 1 l 1,4,-1
 5 1 l 1,5,-1
 5 9 l 1,6,-1
 9 9 l 1,7,-1
 9 10 l 1,8,-1
 5 10 l 1,9,-1
 4 10 l 1,0,-1
EndSplineSet
EndChar

StartChar: backslash
Encoding: 92 92 91
Width: 9
GlyphClass: 1
Flags: W
LayerCount: 2
Fore
SplineSet
0 14 m 1,0,-1
 0 12 l 1,1,-1
 1 12 l 1,2,-1
 1 14 l 1,3,-1
 0 14 l 1,0,-1
1 12 m 1,4,-1
 1 10 l 1,5,-1
 2 10 l 1,6,-1
 2 12 l 1,7,-1
 1 12 l 1,4,-1
2 10 m 1,8,-1
 2 8 l 1,9,-1
 3 8 l 1,10,-1
 3 10 l 1,11,-1
 2 10 l 1,8,-1
3 8 m 1,12,-1
 3 6 l 1,13,-1
 4 6 l 1,14,-1
 4 8 l 1,15,-1
 3 8 l 1,12,-1
4 6 m 1,16,-1
 4 4 l 1,17,-1
 5 4 l 1,18,-1
 5 6 l 1,19,-1
 4 6 l 1,16,-1
5 4 m 1,20,-1
 5 2 l 1,21,-1
 6 2 l 1,22,-1
 6 4 l 1,23,-1
 5 4 l 1,20,-1
6 2 m 1,24,-1
 6 0 l 1,25,-1
 7 0 l 1,26,-1
 7 2 l 1,27,-1
 6 2 l 1,24,-1
7 0 m 1,28,-1
 7 -2 l 1,29,-1
 8 -2 l 1,30,-1
 8 0 l 1,31,-1
 7 0 l 1,28,-1
8 -2 m 1,32,-1
 8 -4 l 1,33,-1
 9 -4 l 1,34,-1
 9 -2 l 1,35,-1
 8 -2 l 1,32,-1
EndSplineSet
EndChar

StartChar: bracketright
Encoding: 93 93 92
Width: 9
GlyphClass: 1
Flags: W
LayerCount: 2
Fore
SplineSet
0 10 m 1,0,-1
 0 9 l 1,1,-1
 4 9 l 1,2,-1
 4 1 l 1,3,-1
 0 1 l 1,4,-1
 0 0 l 1,5,-1
 4 0 l 1,6,-1
 5 0 l 1,7,-1
 5 10 l 1,8,-1
 4 10 l 1,9,-1
 0 10 l 1,0,-1
EndSplineSet
EndChar

StartChar: asciicircum
Encoding: 94 94 93
Width: 9
GlyphClass: 1
Flags: W
LayerCount: 2
Fore
SplineSet
4 14 m 1,0,-1
 4 13 l 1,1,-1
 5 13 l 1,2,-1
 5 14 l 1,3,-1
 4 14 l 1,0,-1
5 13 m 1,4,-1
 6 13 l 1,5,-1
 6 12 l 1,6,-1
 6 11 l 1,7,-1
 5 11 l 1,8,-1
 5 12 l 1,9,-1
 5 13 l 1,4,-1
6 11 m 1,10,-1
 7 11 l 1,11,-1
 7 10 l 1,12,-1
 7 9 l 1,13,-1
 6 9 l 1,14,-1
 6 10 l 1,15,-1
 6 11 l 1,10,-1
7 9 m 1,16,-1
 8 9 l 1,17,-1
 8 8 l 1,18,-1
 8 7 l 1,19,-1
 7 7 l 1,20,-1
 7 8 l 1,21,-1
 7 9 l 1,16,-1
8 7 m 1,22,-1
 8 5 l 1,23,-1
 9 5 l 1,24,-1
 9 7 l 1,25,-1
 8 7 l 1,22,-1
4 13 m 1,26,-1
 4 12 l 1,27,-1
 4 11 l 1,28,-1
 3 11 l 1,29,-1
 3 12 l 1,30,-1
 3 13 l 1,31,-1
 4 13 l 1,26,-1
3 11 m 1,32,-1
 3 10 l 1,33,-1
 3 9 l 1,34,-1
 2 9 l 1,35,-1
 2 10 l 1,36,-1
 2 11 l 1,37,-1
 3 11 l 1,32,-1
2 9 m 1,38,-1
 1 9 l 1,39,-1
 1 8 l 1,40,-1
 1 7 l 1,41,-1
 0 7 l 1,42,-1
 0 5 l 1,43,-1
 1 5 l 1,44,-1
 1 7 l 1,45,-1
 2 7 l 1,46,-1
 2 8 l 1,47,-1
 2 9 l 1,38,-1
EndSplineSet
EndChar

StartChar: underscore
Encoding: 95 95 94
Width: 9
GlyphClass: 1
Flags: W
LayerCount: 2
Fore
SplineSet
0 -3 m 1,0,-1
 0 -4 l 1,1,-1
 9 -4 l 1,2,-1
 9 -3 l 1,3,-1
 0 -3 l 1,0,-1
EndSplineSet
EndChar

StartChar: grave
Encoding: 96 96 95
Width: 9
GlyphClass: 1
Flags: W
LayerCount: 2
Fore
SplineSet
3 11 m 1,0,-1
 3 10 l 1,1,-1
 4 10 l 1,2,-1
 4 11 l 1,3,-1
 3 11 l 1,0,-1
4 10 m 1,4,-1
 5 10 l 1,5,-1
 5 9 l 1,6,-1
 4 9 l 1,7,-1
 4 10 l 1,4,-1
5 9 m 1,8,-1
 6 9 l 1,9,-1
 6 8 l 1,10,-1
 5 8 l 1,11,-1
 5 9 l 1,8,-1
EndSplineSet
EndChar

StartChar: a
Encoding: 97 97 96
Width: 9
GlyphClass: 1
Flags: W
LayerCount: 2
Fore
SplineSet
2 7 m 1,0,-1
 2 6 l 1,1,-1
 3 6 l 1,2,-1
 6 6 l 1,3,-1
 7 6 l 1,4,-1
 7 7 l 1,5,-1
 6 7 l 1,6,-1
 3 7 l 1,7,-1
 2 7 l 1,0,-1
7 6 m 1,8,-1
 7 4 l 1,9,-1
 2 4 l 1,10,-1
 2 3 l 1,11,-1
 7 3 l 1,12,-1
 7 1 l 1,13,-1
 8 1 l 1,14,-1
 8 6 l 1,15,-1
 7 6 l 1,8,-1
7 1 m 1,16,-1
 7 0 l 1,17,-1
 2 0 l 1,18,-1
 2 1 l 1,19,-1
 7 1 l 1,16,-1
2 1 m 1,20,-1
 2 3 l 1,21,-1
 1 3 l 1,22,-1
 1 1 l 1,23,-1
 2 1 l 1,20,-1
2 6 m 1,24,-1
 2 5 l 1,25,-1
 1 5 l 1,26,-1
 1 6 l 1,27,-1
 2 6 l 1,24,-1
EndSplineSet
EndChar

StartChar: b
Encoding: 98 98 97
Width: 9
GlyphClass: 1
Flags: W
LayerCount: 2
Fore
SplineSet
1 10 m 1,0,-1
 1 9 l 1,1,-1
 1 8 l 1,2,-1
 1 7 l 1,3,-1
 1 6 l 1,4,-1
 1 5 l 1,5,-1
 1 4 l 1,6,-1
 1 3 l 1,7,-1
 1 2 l 1,8,-1
 2 2 l 1,9,-1
 2 3 l 1,10,-1
 2 4 l 1,11,-1
 2 5 l 1,12,-1
 3 5 l 1,13,-1
 3 6 l 1,14,-1
 2 6 l 1,15,-1
 2 7 l 1,16,-1
 2 8 l 1,17,-1
 2 9 l 1,18,-1
 2 10 l 1,19,-1
 1 10 l 1,0,-1
3 6 m 1,20,-1
 3 7 l 1,21,-1
 4 7 l 1,22,-1
 5 7 l 1,23,-1
 6 7 l 1,24,-1
 6 6 l 1,25,-1
 5 6 l 1,26,-1
 4 6 l 1,27,-1
 3 6 l 1,20,-1
6 6 m 1,28,-1
 7 6 l 1,29,-1
 7 5 l 1,30,-1
 6 5 l 1,31,-1
 6 6 l 1,28,-1
7 5 m 1,32,-1
 8 5 l 1,33,-1
 8 4 l 1,34,-1
 8 3 l 1,35,-1
 8 2 l 1,36,-1
 7 2 l 1,37,-1
 7 3 l 1,38,-1
 7 4 l 1,39,-1
 7 5 l 1,32,-1
7 2 m 1,40,-1
 7 1 l 1,41,-1
 6 1 l 1,42,-1
 6 2 l 1,43,-1
 7 2 l 1,40,-1
6 1 m 1,44,-1
 6 0 l 1,45,-1
 5 0 l 1,46,-1
 4 0 l 1,47,-1
 3 0 l 1,48,-1
 3 1 l 1,49,-1
 4 1 l 1,50,-1
 5 1 l 1,51,-1
 6 1 l 1,44,-1
3 1 m 1,52,-1
 2 1 l 1,53,-1
 2 2 l 1,54,-1
 3 2 l 1,55,-1
 3 1 l 1,52,-1
EndSplineSet
EndChar

StartChar: c
Encoding: 99 99 98
Width: 9
GlyphClass: 1
Flags: W
LayerCount: 2
Fore
SplineSet
3 7 m 1,0,-1
 3 6 l 1,1,-1
 4 6 l 1,2,-1
 5 6 l 1,3,-1
 6 6 l 1,4,-1
 7 6 l 1,5,-1
 7 7 l 1,6,-1
 6 7 l 1,7,-1
 5 7 l 1,8,-1
 4 7 l 1,9,-1
 3 7 l 1,0,-1
7 6 m 1,10,-1
 8 6 l 1,11,-1
 8 5 l 1,12,-1
 7 5 l 1,13,-1
 7 6 l 1,10,-1
3 6 m 1,14,-1
 3 5 l 1,15,-1
 2 5 l 1,16,-1
 2 6 l 1,17,-1
 3 6 l 1,14,-1
2 5 m 1,18,-1
 2 4 l 1,19,-1
 2 3 l 1,20,-1
 2 2 l 1,21,-1
 1 2 l 1,22,-1
 1 3 l 1,23,-1
 1 4 l 1,24,-1
 1 5 l 1,25,-1
 2 5 l 1,18,-1
2 2 m 1,26,-1
 3 2 l 1,27,-1
 3 1 l 1,28,-1
 2 1 l 1,29,-1
 2 2 l 1,26,-1
3 1 m 1,30,-1
 4 1 l 1,31,-1
 5 1 l 1,32,-1
 6 1 l 1,33,-1
 7 1 l 1,34,-1
 7 0 l 1,35,-1
 6 0 l 1,36,-1
 5 0 l 1,37,-1
 4 0 l 1,38,-1
 3 0 l 1,39,-1
 3 1 l 1,30,-1
7 1 m 1,40,-1
 7 2 l 1,41,-1
 8 2 l 1,42,-1
 8 1 l 1,43,-1
 7 1 l 1,40,-1
EndSplineSet
EndChar

StartChar: d
Encoding: 100 100 99
Width: 9
GlyphClass: 1
Flags: W
LayerCount: 2
Fore
SplineSet
7 10 m 1,0,-1
 7 9 l 1,1,-1
 7 8 l 1,2,-1
 7 7 l 1,3,-1
 7 6 l 1,4,-1
 6 6 l 1,5,-1
 6 5 l 1,6,-1
 7 5 l 1,7,-1
 7 4 l 1,8,-1
 7 3 l 1,9,-1
 7 2 l 1,10,-1
 8 2 l 1,11,-1
 8 3 l 1,12,-1
 8 4 l 1,13,-1
 8 5 l 1,14,-1
 8 6 l 1,15,-1
 8 7 l 1,16,-1
 8 8 l 1,17,-1
 8 9 l 1,18,-1
 8 10 l 1,19,-1
 7 10 l 1,0,-1
7 2 m 1,20,-1
 7 1 l 1,21,-1
 6 1 l 1,22,-1
 6 2 l 1,23,-1
 7 2 l 1,20,-1
6 1 m 1,24,-1
 6 0 l 1,25,-1
 5 0 l 1,26,-1
 4 0 l 1,27,-1
 3 0 l 1,28,-1
 3 1 l 1,29,-1
 4 1 l 1,30,-1
 5 1 l 1,31,-1
 6 1 l 1,24,-1
3 1 m 1,32,-1
 2 1 l 1,33,-1
 2 2 l 1,34,-1
 3 2 l 1,35,-1
 3 1 l 1,32,-1
2 2 m 1,36,-1
 1 2 l 1,37,-1
 1 3 l 1,38,-1
 1 4 l 1,39,-1
 1 5 l 1,40,-1
 2 5 l 1,41,-1
 2 4 l 1,42,-1
 2 3 l 1,43,-1
 2 2 l 1,36,-1
2 5 m 1,44,-1
 2 6 l 1,45,-1
 3 6 l 1,46,-1
 3 5 l 1,47,-1
 2 5 l 1,44,-1
3 6 m 1,48,-1
 3 7 l 1,49,-1
 4 7 l 1,50,-1
 5 7 l 1,51,-1
 6 7 l 1,52,-1
 6 6 l 1,53,-1
 5 6 l 1,54,-1
 4 6 l 1,55,-1
 3 6 l 1,48,-1
EndSplineSet
EndChar

StartChar: e
Encoding: 101 101 100
Width: 9
GlyphClass: 1
Flags: W
LayerCount: 2
Fore
SplineSet
3 7 m 1,0,-1
 3 6 l 1,1,-1
 6 6 l 1,2,-1
 6 7 l 1,3,-1
 3 7 l 1,0,-1
6 6 m 1,4,-1
 7 6 l 1,5,-1
 7 5 l 1,6,-1
 6 5 l 1,7,-1
 6 6 l 1,4,-1
7 5 m 1,8,-1
 8 5 l 1,9,-1
 8 4 l 1,10,-1
 8 3 l 1,11,-1
 2 3 l 1,12,-1
 2 2 l 1,13,-1
 1 2 l 1,14,-1
 1 3 l 1,15,-1
 1 5 l 1,16,-1
 2 5 l 1,17,-1
 2 4 l 1,18,-1
 7 4 l 1,19,-1
 7 5 l 1,8,-1
2 2 m 1,20,-1
 3 2 l 1,21,-1
 3 1 l 1,22,-1
 2 1 l 1,23,-1
 2 2 l 1,20,-1
3 1 m 1,24,-1
 6 1 l 1,25,-1
 6 0 l 1,26,-1
 3 0 l 1,27,-1
 3 1 l 1,24,-1
6 1 m 1,28,-1
 6 2 l 1,29,-1
 7 2 l 1,30,-1
 7 1 l 1,31,-1
 6 1 l 1,28,-1
2 5 m 1,32,-1
 2 6 l 1,33,-1
 3 6 l 1,34,-1
 3 5 l 1,35,-1
 2 5 l 1,32,-1
EndSplineSet
EndChar

StartChar: f
Encoding: 102 102 101
Width: 9
GlyphClass: 1
Flags: W
LayerCount: 2
Fore
SplineSet
3 10 m 1,0,-1
 3 9 l 1,1,-1
 4 9 l 1,2,-1
 5 9 l 1,3,-1
 6 9 l 1,4,-1
 7 9 l 1,5,-1
 7 10 l 1,6,-1
 6 10 l 1,7,-1
 5 10 l 1,8,-1
 4 10 l 1,9,-1
 3 10 l 1,0,-1
7 9 m 1,10,-1
 8 9 l 1,11,-1
 8 8 l 1,12,-1
 7 8 l 1,13,-1
 7 9 l 1,10,-1
3 9 m 1,14,-1
 3 8 l 1,15,-1
 2 8 l 1,16,-1
 2 9 l 1,17,-1
 3 9 l 1,14,-1
2 8 m 1,18,-1
 2 7 l 1,19,-1
 2 6 l 1,20,-1
 4 6 l 1,21,-1
 5 6 l 1,22,-1
 6 6 l 1,23,-1
 6 5 l 1,24,-1
 5 5 l 1,25,-1
 4 5 l 1,26,-1
 2 5 l 1,27,-1
 2 4 l 1,28,-1
 2 3 l 1,29,-1
 2 2 l 1,30,-1
 2 1 l 1,31,-1
 2 0 l 1,32,-1
 1 0 l 1,33,-1
 1 1 l 1,34,-1
 1 2 l 1,35,-1
 1 3 l 1,36,-1
 1 4 l 1,37,-1
 1 5 l 1,38,-1
 1 6 l 1,39,-1
 1 7 l 1,40,-1
 1 8 l 1,41,-1
 2 8 l 1,18,-1
EndSplineSet
EndChar

StartChar: g
Encoding: 103 103 102
Width: 9
GlyphClass: 1
Flags: W
LayerCount: 2
Fore
SplineSet
3 7 m 1,0,-1
 3 6 l 1,1,-1
 4 6 l 1,2,-1
 5 6 l 1,3,-1
 6 6 l 1,4,-1
 6 7 l 1,5,-1
 5 7 l 1,6,-1
 4 7 l 1,7,-1
 3 7 l 1,0,-1
6 6 m 1,8,-1
 7 6 l 1,9,-1
 7 5 l 1,10,-1
 6 5 l 1,11,-1
 6 6 l 1,8,-1
7 5 m 1,12,-1
 8 5 l 1,13,-1
 8 4 l 1,14,-1
 8 3 l 1,15,-1
 8 2 l 1,16,-1
 8 1 l 1,17,-1
 8 0 l 1,18,-1
 8 -1 l 1,19,-1
 7 -1 l 1,20,-1
 7 0 l 1,21,-1
 7 1 l 1,22,-1
 6 1 l 1,23,-1
 6 2 l 1,24,-1
 7 2 l 1,25,-1
 7 3 l 1,26,-1
 7 4 l 1,27,-1
 7 5 l 1,12,-1
7 -1 m 1,28,-1
 7 -2 l 1,29,-1
 6 -2 l 1,30,-1
 6 -1 l 1,31,-1
 7 -1 l 1,28,-1
6 -2 m 1,32,-1
 6 -3 l 1,33,-1
 5 -3 l 1,34,-1
 4 -3 l 1,35,-1
 3 -3 l 1,36,-1
 3 -2 l 1,37,-1
 4 -2 l 1,38,-1
 5 -2 l 1,39,-1
 6 -2 l 1,32,-1
3 -2 m 1,40,-1
 2 -2 l 1,41,-1
 2 -1 l 1,42,-1
 3 -1 l 1,43,-1
 3 -2 l 1,40,-1
6 1 m 1,44,-1
 6 0 l 1,45,-1
 5 0 l 1,46,-1
 4 0 l 1,47,-1
 3 0 l 1,48,-1
 3 1 l 1,49,-1
 4 1 l 1,50,-1
 5 1 l 1,51,-1
 6 1 l 1,44,-1
3 1 m 1,52,-1
 2 1 l 1,53,-1
 2 2 l 1,54,-1
 3 2 l 1,55,-1
 3 1 l 1,52,-1
2 2 m 1,56,-1
 1 2 l 1,57,-1
 1 3 l 1,58,-1
 1 4 l 1,59,-1
 1 5 l 1,60,-1
 2 5 l 1,61,-1
 2 4 l 1,62,-1
 2 3 l 1,63,-1
 2 2 l 1,56,-1
2 5 m 1,64,-1
 2 6 l 1,65,-1
 3 6 l 1,66,-1
 3 5 l 1,67,-1
 2 5 l 1,64,-1
EndSplineSet
EndChar

StartChar: h
Encoding: 104 104 103
Width: 9
GlyphClass: 1
Flags: W
LayerCount: 2
Fore
SplineSet
1 10 m 1,0,-1
 1 0 l 1,1,-1
 2 0 l 1,2,-1
 2 5 l 1,3,-1
 3 5 l 1,4,-1
 3 6 l 1,5,-1
 2 6 l 1,6,-1
 2 10 l 1,7,-1
 1 10 l 1,0,-1
3 6 m 1,8,-1
 4 6 l 1,9,-1
 5 6 l 1,10,-1
 6 6 l 1,11,-1
 6 7 l 1,12,-1
 5 7 l 1,13,-1
 4 7 l 1,14,-1
 3 7 l 1,15,-1
 3 6 l 1,8,-1
6 6 m 1,16,-1
 7 6 l 1,17,-1
 7 5 l 1,18,-1
 6 5 l 1,19,-1
 6 6 l 1,16,-1
7 5 m 1,20,-1
 7 0 l 1,21,-1
 8 0 l 1,22,-1
 8 5 l 1,23,-1
 7 5 l 1,20,-1
EndSplineSet
EndChar

StartChar: i
Encoding: 105 105 104
Width: 9
GlyphClass: 1
Flags: W
LayerCount: 2
Fore
SplineSet
4 11 m 1,0,-1
 4 8 l 1,1,-1
 5 8 l 1,2,-1
 5 11 l 1,3,-1
 4 11 l 1,0,-1
4 5 m 1,4,-1
 5 5 l 1,5,-1
 5 5 l 1,6,-1
 5 4 l 1,7,-1
 5 3 l 1,8,-1
 5 2 l 1,9,-1
 5 1 l 1,10,-1
 5 0 l 1,11,-1
 4 0 l 1,12,-1
 4 1 l 1,13,-1
 4 2 l 1,14,-1
 4 3 l 1,15,-1
 4 4 l 1,16,-1
 4 5 l 1,17,-1
 4 5 l 1,4,-1
EndSplineSet
EndChar

StartChar: j
Encoding: 106 106 105
Width: 9
GlyphClass: 1
Flags: W
LayerCount: 2
Fore
SplineSet
7 11 m 1,0,-1
 7 8 l 1,1,-1
 8 8 l 1,2,-1
 8 11 l 1,3,-1
 7 11 l 1,0,-1
7 5 m 1,4,-1
 7 0 l 1,5,-1
 7 -1 l 1,6,-1
 8 -1 l 1,7,-1
 8 0 l 1,8,-1
 8 5 l 1,9,-1
 7 5 l 1,4,-1
7 -1 m 1,10,-1
 7 -2 l 1,11,-1
 6 -2 l 1,12,-1
 6 -1 l 1,13,-1
 7 -1 l 1,10,-1
6 -2 m 1,14,-1
 6 -3 l 1,15,-1
 3 -3 l 1,16,-1
 3 -2 l 1,17,-1
 6 -2 l 1,14,-1
3 -2 m 1,18,-1
 2 -2 l 1,19,-1
 2 -1 l 1,20,-1
 3 -1 l 1,21,-1
 3 -2 l 1,18,-1
2 -1 m 1,22,-1
 1 -1 l 1,23,-1
 1 0 l 1,24,-1
 2 0 l 1,25,-1
 2 -1 l 1,22,-1
EndSplineSet
EndChar

StartChar: k
Encoding: 107 107 106
Width: 9
GlyphClass: 1
Flags: W
LayerCount: 2
Fore
SplineSet
1 10 m 1,0,-1
 1 0 l 1,1,-1
 2 0 l 1,2,-1
 2 4 l 1,3,-1
 3 4 l 1,4,-1
 4 4 l 1,5,-1
 4 5 l 1,6,-1
 3 5 l 1,7,-1
 2 5 l 1,8,-1
 2 10 l 1,9,-1
 1 10 l 1,0,-1
4 5 m 1,10,-1
 4 6 l 1,11,-1
 5 6 l 1,12,-1
 5 5 l 1,13,-1
 4 5 l 1,10,-1
5 6 m 1,14,-1
 5 7 l 1,15,-1
 6 7 l 1,16,-1
 6 6 l 1,17,-1
 5 6 l 1,14,-1
4 4 m 1,18,-1
 5 4 l 1,19,-1
 5 3 l 1,20,-1
 4 3 l 1,21,-1
 4 4 l 1,18,-1
5 3 m 1,22,-1
 6 3 l 1,23,-1
 6 2 l 1,24,-1
 5 2 l 1,25,-1
 5 3 l 1,22,-1
6 2 m 1,26,-1
 7 2 l 1,27,-1
 7 1 l 1,28,-1
 6 1 l 1,29,-1
 6 2 l 1,26,-1
7 1 m 1,30,-1
 8 1 l 1,31,-1
 8 0 l 1,32,-1
 7 0 l 1,33,-1
 7 1 l 1,30,-1
EndSplineSet
EndChar

StartChar: l
Encoding: 108 108 107
Width: 9
GlyphClass: 1
Flags: W
LayerCount: 2
Fore
SplineSet
4 0 m 1,0,-1
 5 0 l 1,1,-1
 5 10 l 1,2,-1
 4 10 l 1,3,-1
 4 0 l 1,0,-1
EndSplineSet
EndChar

StartChar: m
Encoding: 109 109 108
Width: 9
GlyphClass: 1
Flags: W
LayerCount: 2
Fore
SplineSet
2 7 m 1,0,-1
 2 6 l 1,1,-1
 3 6 l 1,2,-1
 4 6 l 1,3,-1
 4 7 l 1,4,-1
 3 7 l 1,5,-1
 2 7 l 1,0,-1
4 6 m 1,6,-1
 5 6 l 1,7,-1
 5 5 l 1,8,-1
 5 4 l 1,9,-1
 5 3 l 1,10,-1
 5 2 l 1,11,-1
 5 1 l 1,12,-1
 5 0 l 1,13,-1
 4 0 l 1,14,-1
 4 1 l 1,15,-1
 4 2 l 1,16,-1
 4 3 l 1,17,-1
 4 4 l 1,18,-1
 4 5 l 1,19,-1
 4 6 l 1,6,-1
5 6 m 1,20,-1
 6 6 l 1,21,-1
 7 6 l 1,22,-1
 7 7 l 1,23,-1
 6 7 l 1,24,-1
 5 7 l 1,25,-1
 5 6 l 1,20,-1
7 6 m 1,26,-1
 8 6 l 1,27,-1
 8 5 l 1,28,-1
 8 4 l 1,29,-1
 8 3 l 1,30,-1
 8 2 l 1,31,-1
 8 1 l 1,32,-1
 8 0 l 1,33,-1
 7 0 l 1,34,-1
 7 1 l 1,35,-1
 7 2 l 1,36,-1
 7 3 l 1,37,-1
 7 4 l 1,38,-1
 7 5 l 1,39,-1
 7 6 l 1,26,-1
2 6 m 1,40,-1
 2 0 l 1,41,-1
 1 0 l 1,42,-1
 1 6 l 1,43,-1
 2 6 l 1,40,-1
EndSplineSet
EndChar

StartChar: n
Encoding: 110 110 109
Width: 9
GlyphClass: 1
Flags: W
LayerCount: 2
Fore
SplineSet
3 7 m 1,0,-1
 3 6 l 1,1,-1
 4 6 l 1,2,-1
 5 6 l 1,3,-1
 6 6 l 1,4,-1
 6 7 l 1,5,-1
 5 7 l 1,6,-1
 4 7 l 1,7,-1
 3 7 l 1,0,-1
6 6 m 1,8,-1
 7 6 l 1,9,-1
 7 5 l 1,10,-1
 6 5 l 1,11,-1
 6 6 l 1,8,-1
7 5 m 1,12,-1
 8 5 l 1,13,-1
 8 4 l 1,14,-1
 8 3 l 1,15,-1
 8 2 l 1,16,-1
 8 1 l 1,17,-1
 8 0 l 1,18,-1
 7 0 l 1,19,-1
 7 1 l 1,20,-1
 7 2 l 1,21,-1
 7 3 l 1,22,-1
 7 4 l 1,23,-1
 7 5 l 1,12,-1
3 6 m 1,24,-1
 3 5 l 1,25,-1
 2 5 l 1,26,-1
 2 6 l 1,27,-1
 3 6 l 1,24,-1
2 5 m 1,28,-1
 2 0 l 1,29,-1
 1 0 l 1,30,-1
 1 5 l 1,31,-1
 2 5 l 1,28,-1
EndSplineSet
EndChar

StartChar: o
Encoding: 111 111 110
Width: 9
GlyphClass: 1
Flags: W
LayerCount: 2
Fore
SplineSet
3 7 m 1,0,-1
 3 6 l 1,1,-1
 4 6 l 1,2,-1
 5 6 l 1,3,-1
 6 6 l 1,4,-1
 6 7 l 1,5,-1
 5 7 l 1,6,-1
 4 7 l 1,7,-1
 3 7 l 1,0,-1
6 6 m 1,8,-1
 7 6 l 1,9,-1
 7 5 l 1,10,-1
 6 5 l 1,11,-1
 6 6 l 1,8,-1
7 5 m 1,12,-1
 8 5 l 1,13,-1
 8 4 l 1,14,-1
 8 3 l 1,15,-1
 8 2 l 1,16,-1
 7 2 l 1,17,-1
 7 3 l 1,18,-1
 7 4 l 1,19,-1
 7 5 l 1,12,-1
7 2 m 1,20,-1
 7 1 l 1,21,-1
 6 1 l 1,22,-1
 6 2 l 1,23,-1
 7 2 l 1,20,-1
6 1 m 1,24,-1
 6 0 l 1,25,-1
 5 0 l 1,26,-1
 4 0 l 1,27,-1
 3 0 l 1,28,-1
 3 1 l 1,29,-1
 4 1 l 1,30,-1
 5 1 l 1,31,-1
 6 1 l 1,24,-1
3 1 m 1,32,-1
 2 1 l 1,33,-1
 2 2 l 1,34,-1
 3 2 l 1,35,-1
 3 1 l 1,32,-1
2 2 m 1,36,-1
 1 2 l 1,37,-1
 1 3 l 1,38,-1
 1 4 l 1,39,-1
 1 5 l 1,40,-1
 2 5 l 1,41,-1
 2 4 l 1,42,-1
 2 3 l 1,43,-1
 2 2 l 1,36,-1
2 5 m 1,44,-1
 2 6 l 1,45,-1
 3 6 l 1,46,-1
 3 5 l 1,47,-1
 2 5 l 1,44,-1
EndSplineSet
EndChar

StartChar: p
Encoding: 112 112 111
Width: 9
GlyphClass: 1
Flags: W
LayerCount: 2
Fore
SplineSet
3 7 m 1,0,-1
 3 6 l 1,1,-1
 4 6 l 1,2,-1
 5 6 l 1,3,-1
 6 6 l 1,4,-1
 6 7 l 1,5,-1
 5 7 l 1,6,-1
 4 7 l 1,7,-1
 3 7 l 1,0,-1
6 6 m 1,8,-1
 7 6 l 1,9,-1
 7 5 l 1,10,-1
 6 5 l 1,11,-1
 6 6 l 1,8,-1
7 5 m 1,12,-1
 8 5 l 1,13,-1
 8 4 l 1,14,-1
 8 3 l 1,15,-1
 8 2 l 1,16,-1
 7 2 l 1,17,-1
 7 3 l 1,18,-1
 7 4 l 1,19,-1
 7 5 l 1,12,-1
7 2 m 1,20,-1
 7 1 l 1,21,-1
 6 1 l 1,22,-1
 6 2 l 1,23,-1
 7 2 l 1,20,-1
6 1 m 1,24,-1
 6 0 l 1,25,-1
 5 0 l 1,26,-1
 4 0 l 1,27,-1
 3 0 l 1,28,-1
 3 1 l 1,29,-1
 4 1 l 1,30,-1
 5 1 l 1,31,-1
 6 1 l 1,24,-1
3 1 m 1,32,-1
 2 1 l 1,33,-1
 2 0 l 1,34,-1
 2 -1 l 1,35,-1
 2 -2 l 1,36,-1
 1 -2 l 1,37,-1
 1 -1 l 1,38,-1
 1 0 l 1,39,-1
 1 1 l 1,40,-1
 1 2 l 1,41,-1
 1 3 l 1,42,-1
 1 4 l 1,43,-1
 1 5 l 1,44,-1
 2 5 l 1,45,-1
 2 4 l 1,46,-1
 2 3 l 1,47,-1
 2 2 l 1,48,-1
 3 2 l 1,49,-1
 3 1 l 1,32,-1
2 5 m 1,50,-1
 2 6 l 1,51,-1
 3 6 l 1,52,-1
 3 5 l 1,53,-1
 2 5 l 1,50,-1
EndSplineSet
EndChar

StartChar: q
Encoding: 113 113 112
Width: 9
GlyphClass: 1
Flags: W
LayerCount: 2
Fore
SplineSet
3 7 m 1,0,-1
 3 6 l 1,1,-1
 4 6 l 1,2,-1
 5 6 l 1,3,-1
 6 6 l 1,4,-1
 6 7 l 1,5,-1
 5 7 l 1,6,-1
 4 7 l 1,7,-1
 3 7 l 1,0,-1
6 6 m 1,8,-1
 7 6 l 1,9,-1
 7 5 l 1,10,-1
 6 5 l 1,11,-1
 6 6 l 1,8,-1
7 5 m 1,12,-1
 8 5 l 1,13,-1
 8 4 l 1,14,-1
 8 3 l 1,15,-1
 8 2 l 1,16,-1
 8 1 l 1,17,-1
 8 0 l 1,18,-1
 8 -1 l 1,19,-1
 8 -2 l 1,20,-1
 7 -2 l 1,21,-1
 7 -1 l 1,22,-1
 7 0 l 1,23,-1
 7 1 l 1,24,-1
 6 1 l 1,25,-1
 6 2 l 1,26,-1
 7 2 l 1,27,-1
 7 3 l 1,28,-1
 7 4 l 1,29,-1
 7 5 l 1,12,-1
6 1 m 1,30,-1
 6 0 l 1,31,-1
 5 0 l 1,32,-1
 4 0 l 1,33,-1
 3 0 l 1,34,-1
 3 1 l 1,35,-1
 4 1 l 1,36,-1
 5 1 l 1,37,-1
 6 1 l 1,30,-1
3 1 m 1,38,-1
 2 1 l 1,39,-1
 2 2 l 1,40,-1
 3 2 l 1,41,-1
 3 1 l 1,38,-1
2 2 m 1,42,-1
 1 2 l 1,43,-1
 1 3 l 1,44,-1
 1 4 l 1,45,-1
 1 5 l 1,46,-1
 2 5 l 1,47,-1
 2 4 l 1,48,-1
 2 3 l 1,49,-1
 2 2 l 1,42,-1
2 5 m 1,50,-1
 2 6 l 1,51,-1
 3 6 l 1,52,-1
 3 5 l 1,53,-1
 2 5 l 1,50,-1
EndSplineSet
EndChar

StartChar: r
Encoding: 114 114 113
Width: 9
GlyphClass: 1
Flags: W
LayerCount: 2
Fore
SplineSet
3 7 m 1,0,-1
 3 6 l 1,1,-1
 4 6 l 1,2,-1
 5 6 l 1,3,-1
 6 6 l 1,4,-1
 6 7 l 1,5,-1
 5 7 l 1,6,-1
 4 7 l 1,7,-1
 3 7 l 1,0,-1
6 6 m 1,8,-1
 7 6 l 1,9,-1
 7 5 l 1,10,-1
 6 5 l 1,11,-1
 6 6 l 1,8,-1
7 5 m 1,12,-1
 8 5 l 1,13,-1
 8 4 l 1,14,-1
 7 4 l 1,15,-1
 7 5 l 1,12,-1
3 6 m 1,16,-1
 3 5 l 1,17,-1
 2 5 l 1,18,-1
 2 6 l 1,19,-1
 3 6 l 1,16,-1
2 5 m 1,20,-1
 1 5 l 1,21,-1
 1 0 l 1,22,-1
 2 0 l 1,23,-1
 2 5 l 1,20,-1
EndSplineSet
EndChar

StartChar: s
Encoding: 115 115 114
Width: 9
GlyphClass: 1
Flags: W
LayerCount: 2
Fore
SplineSet
2 7 m 1,0,-1
 2 6 l 1,1,-1
 3 6 l 1,2,-1
 4 6 l 1,3,-1
 5 6 l 1,4,-1
 6 6 l 1,5,-1
 7 6 l 1,6,-1
 7 7 l 1,7,-1
 6 7 l 1,8,-1
 5 7 l 1,9,-1
 4 7 l 1,10,-1
 3 7 l 1,11,-1
 2 7 l 1,0,-1
7 6 m 1,12,-1
 8 6 l 1,13,-1
 8 5 l 1,14,-1
 7 5 l 1,15,-1
 7 6 l 1,12,-1
2 6 m 1,16,-1
 2 5 l 1,17,-1
 2 4 l 1,18,-1
 1 4 l 1,19,-1
 1 5 l 1,20,-1
 1 6 l 1,21,-1
 2 6 l 1,16,-1
2 4 m 1,22,-1
 3 4 l 1,23,-1
 4 4 l 1,24,-1
 5 4 l 1,25,-1
 6 4 l 1,26,-1
 7 4 l 1,27,-1
 7 3 l 1,28,-1
 6 3 l 1,29,-1
 5 3 l 1,30,-1
 4 3 l 1,31,-1
 3 3 l 1,32,-1
 2 3 l 1,33,-1
 2 4 l 1,22,-1
7 3 m 1,34,-1
 8 3 l 1,35,-1
 8 2 l 1,36,-1
 8 1 l 1,37,-1
 7 1 l 1,38,-1
 7 2 l 1,39,-1
 7 3 l 1,34,-1
7 1 m 1,40,-1
 7 0 l 1,41,-1
 6 0 l 1,42,-1
 5 0 l 1,43,-1
 4 0 l 1,44,-1
 3 0 l 1,45,-1
 2 0 l 1,46,-1
 2 1 l 1,47,-1
 3 1 l 1,48,-1
 4 1 l 1,49,-1
 5 1 l 1,50,-1
 6 1 l 1,51,-1
 7 1 l 1,40,-1
2 1 m 1,52,-1
 1 1 l 1,53,-1
 1 2 l 1,54,-1
 2 2 l 1,55,-1
 2 1 l 1,52,-1
EndSplineSet
EndChar

StartChar: t
Encoding: 116 116 115
Width: 9
GlyphClass: 1
Flags: W
LayerCount: 2
Fore
SplineSet
1 10 m 1,0,-1
 1 9 l 1,1,-1
 1 8 l 1,2,-1
 1 7 l 1,3,-1
 1 6 l 1,4,-1
 1 5 l 1,5,-1
 1 4 l 1,6,-1
 1 3 l 1,7,-1
 1 2 l 1,8,-1
 2 2 l 1,9,-1
 2 3 l 1,10,-1
 2 4 l 1,11,-1
 2 5 l 1,12,-1
 2 6 l 1,13,-1
 3 6 l 1,14,-1
 6 6 l 1,15,-1
 6 7 l 1,16,-1
 3 7 l 1,17,-1
 2 7 l 1,18,-1
 2 8 l 1,19,-1
 2 9 l 1,20,-1
 2 10 l 1,21,-1
 1 10 l 1,0,-1
2 2 m 1,22,-1
 3 2 l 1,23,-1
 3 1 l 1,24,-1
 2 1 l 1,25,-1
 2 2 l 1,22,-1
3 1 m 1,26,-1
 6 1 l 1,27,-1
 7 1 l 1,28,-1
 7 0 l 1,29,-1
 6 0 l 1,30,-1
 3 0 l 1,31,-1
 3 1 l 1,26,-1
7 1 m 1,32,-1
 7 2 l 1,33,-1
 8 2 l 1,34,-1
 8 1 l 1,35,-1
 7 1 l 1,32,-1
EndSplineSet
EndChar

StartChar: u
Encoding: 117 117 116
Width: 9
GlyphClass: 1
Flags: W
LayerCount: 2
Fore
SplineSet
1 7 m 1,0,-1
 1 6 l 1,1,-1
 1 5 l 1,2,-1
 1 4 l 1,3,-1
 1 3 l 1,4,-1
 1 2 l 1,5,-1
 2 2 l 1,6,-1
 2 3 l 1,7,-1
 2 4 l 1,8,-1
 2 5 l 1,9,-1
 2 6 l 1,10,-1
 2 7 l 1,11,-1
 1 7 l 1,0,-1
2 2 m 1,12,-1
 3 2 l 1,13,-1
 3 1 l 1,14,-1
 2 1 l 1,15,-1
 2 2 l 1,12,-1
3 1 m 1,16,-1
 4 1 l 1,17,-1
 5 1 l 1,18,-1
 6 1 l 1,19,-1
 6 0 l 1,20,-1
 5 0 l 1,21,-1
 4 0 l 1,22,-1
 3 0 l 1,23,-1
 3 1 l 1,16,-1
6 1 m 1,24,-1
 6 2 l 1,25,-1
 7 2 l 1,26,-1
 7 1 l 1,27,-1
 6 1 l 1,24,-1
7 2 m 1,28,-1
 8 2 l 1,29,-1
 8 3 l 1,30,-1
 8 4 l 1,31,-1
 8 5 l 1,32,-1
 8 6 l 1,33,-1
 8 7 l 1,34,-1
 7 7 l 1,35,-1
 7 6 l 1,36,-1
 7 5 l 1,37,-1
 7 4 l 1,38,-1
 7 3 l 1,39,-1
 7 2 l 1,28,-1
EndSplineSet
EndChar

StartChar: v
Encoding: 118 118 117
Width: 9
GlyphClass: 1
Flags: W
LayerCount: 2
Fore
SplineSet
1 7 m 1,0,-1
 1 6 l 1,1,-1
 1 5 l 1,2,-1
 2 5 l 1,3,-1
 2 6 l 1,4,-1
 2 7 l 1,5,-1
 1 7 l 1,0,-1
2 5 m 1,6,-1
 3 5 l 1,7,-1
 3 4 l 1,8,-1
 3 3 l 1,9,-1
 2 3 l 1,10,-1
 2 4 l 1,11,-1
 2 5 l 1,6,-1
3 3 m 1,12,-1
 4 3 l 1,13,-1
 4 2 l 1,14,-1
 4 1 l 1,15,-1
 3 1 l 1,16,-1
 3 2 l 1,17,-1
 3 3 l 1,12,-1
4 1 m 1,18,-1
 5 1 l 1,19,-1
 5 0 l 1,20,-1
 4 0 l 1,21,-1
 4 1 l 1,18,-1
5 1 m 1,22,-1
 5 2 l 1,23,-1
 5 3 l 1,24,-1
 6 3 l 1,25,-1
 6 2 l 1,26,-1
 6 1 l 1,27,-1
 5 1 l 1,22,-1
6 3 m 1,28,-1
 6 4 l 1,29,-1
 6 5 l 1,30,-1
 7 5 l 1,31,-1
 7 4 l 1,32,-1
 7 3 l 1,33,-1
 6 3 l 1,28,-1
7 5 m 1,34,-1
 8 5 l 1,35,-1
 8 6 l 1,36,-1
 8 7 l 1,37,-1
 7 7 l 1,38,-1
 7 6 l 1,39,-1
 7 5 l 1,34,-1
EndSplineSet
EndChar

StartChar: w
Encoding: 119 119 118
Width: 9
GlyphClass: 1
Flags: W
LayerCount: 2
Fore
SplineSet
1 7 m 1,0,-1
 1 1 l 1,1,-1
 2 1 l 1,2,-1
 2 7 l 1,3,-1
 1 7 l 1,0,-1
2 1 m 1,4,-1
 3 1 l 1,5,-1
 3 0 l 1,6,-1
 2 0 l 1,7,-1
 2 1 l 1,4,-1
3 1 m 1,8,-1
 3 2 l 1,9,-1
 4 2 l 1,10,-1
 4 3 l 1,11,-1
 4 4 l 1,12,-1
 5 4 l 1,13,-1
 5 3 l 1,14,-1
 5 2 l 1,15,-1
 6 2 l 1,16,-1
 6 1 l 1,17,-1
 5 1 l 1,18,-1
 5 2 l 1,19,-1
 4 2 l 1,20,-1
 4 1 l 1,21,-1
 3 1 l 1,8,-1
6 1 m 1,22,-1
 7 1 l 1,23,-1
 7 0 l 1,24,-1
 6 0 l 1,25,-1
 6 1 l 1,22,-1
7 1 m 1,26,-1
 8 1 l 1,27,-1
 8 7 l 1,28,-1
 7 7 l 1,29,-1
 7 1 l 1,26,-1
EndSplineSet
EndChar

StartChar: x
Encoding: 120 120 119
Width: 9
GlyphClass: 1
Flags: W
LayerCount: 2
Fore
SplineSet
1 7 m 1,0,-1
 1 6 l 1,1,-1
 2 6 l 1,2,-1
 2 7 l 1,3,-1
 1 7 l 1,0,-1
2 6 m 1,4,-1
 3 6 l 1,5,-1
 3 5 l 1,6,-1
 2 5 l 1,7,-1
 2 6 l 1,4,-1
3 5 m 1,8,-1
 4 5 l 1,9,-1
 4 4 l 1,10,-1
 3 4 l 1,11,-1
 3 5 l 1,8,-1
4 4 m 1,12,-1
 5 4 l 1,13,-1
 5 3 l 1,14,-1
 4 3 l 1,15,-1
 4 4 l 1,12,-1
5 4 m 1,16,-1
 5 5 l 1,17,-1
 6 5 l 1,18,-1
 6 4 l 1,19,-1
 5 4 l 1,16,-1
6 5 m 1,20,-1
 6 6 l 1,21,-1
 7 6 l 1,22,-1
 7 5 l 1,23,-1
 6 5 l 1,20,-1
7 6 m 1,24,-1
 8 6 l 1,25,-1
 8 7 l 1,26,-1
 7 7 l 1,27,-1
 7 6 l 1,24,-1
5 3 m 1,28,-1
 6 3 l 1,29,-1
 6 2 l 1,30,-1
 5 2 l 1,31,-1
 5 3 l 1,28,-1
6 2 m 1,32,-1
 7 2 l 1,33,-1
 7 1 l 1,34,-1
 6 1 l 1,35,-1
 6 2 l 1,32,-1
7 1 m 1,36,-1
 8 1 l 1,37,-1
 8 0 l 1,38,-1
 7 0 l 1,39,-1
 7 1 l 1,36,-1
4 3 m 1,40,-1
 4 2 l 1,41,-1
 3 2 l 1,42,-1
 3 3 l 1,43,-1
 4 3 l 1,40,-1
3 2 m 1,44,-1
 3 1 l 1,45,-1
 2 1 l 1,46,-1
 2 2 l 1,47,-1
 3 2 l 1,44,-1
2 1 m 1,48,-1
 2 0 l 1,49,-1
 1 0 l 1,50,-1
 1 1 l 1,51,-1
 2 1 l 1,48,-1
EndSplineSet
EndChar

StartChar: y
Encoding: 121 121 120
Width: 9
GlyphClass: 1
Flags: W
LayerCount: 2
Fore
SplineSet
1 7 m 1,0,-1
 1 2 l 1,1,-1
 2 2 l 1,2,-1
 2 7 l 1,3,-1
 1 7 l 1,0,-1
2 2 m 1,4,-1
 3 2 l 1,5,-1
 3 1 l 1,6,-1
 2 1 l 1,7,-1
 2 2 l 1,4,-1
3 1 m 1,8,-1
 6 1 l 1,9,-1
 6 0 l 1,10,-1
 3 0 l 1,11,-1
 3 1 l 1,8,-1
6 1 m 1,12,-1
 7 1 l 1,13,-1
 7 -1 l 1,14,-1
 8 -1 l 1,15,-1
 8 7 l 1,16,-1
 7 7 l 1,17,-1
 7 2 l 1,18,-1
 6 2 l 1,19,-1
 6 1 l 1,12,-1
7 -1 m 1,20,-1
 7 -2 l 1,21,-1
 6 -2 l 1,22,-1
 6 -1 l 1,23,-1
 7 -1 l 1,20,-1
6 -2 m 1,24,-1
 6 -3 l 1,25,-1
 3 -3 l 1,26,-1
 3 -2 l 1,27,-1
 6 -2 l 1,24,-1
3 -2 m 1,28,-1
 2 -2 l 1,29,-1
 2 -1 l 1,30,-1
 3 -1 l 1,31,-1
 3 -2 l 1,28,-1
EndSplineSet
EndChar

StartChar: z
Encoding: 122 122 121
Width: 9
GlyphClass: 1
Flags: W
LayerCount: 2
Fore
SplineSet
1 7 m 1,0,-1
 1 6 l 1,1,-1
 6 6 l 1,2,-1
 6 5 l 1,3,-1
 7 5 l 1,4,-1
 7 6 l 1,5,-1
 8 6 l 1,6,-1
 8 7 l 1,7,-1
 1 7 l 1,0,-1
6 5 m 1,8,-1
 6 4 l 1,9,-1
 5 4 l 1,10,-1
 5 5 l 1,11,-1
 6 5 l 1,8,-1
5 4 m 1,12,-1
 5 3 l 1,13,-1
 4 3 l 1,14,-1
 4 4 l 1,15,-1
 5 4 l 1,12,-1
4 3 m 1,16,-1
 4 2 l 1,17,-1
 3 2 l 1,18,-1
 3 3 l 1,19,-1
 4 3 l 1,16,-1
3 2 m 1,20,-1
 3 1 l 1,21,-1
 8 1 l 1,22,-1
 8 0 l 1,23,-1
 1 0 l 1,24,-1
 1 1 l 1,25,-1
 2 1 l 1,26,-1
 2 2 l 1,27,-1
 3 2 l 1,20,-1
EndSplineSet
EndChar

StartChar: braceleft
Encoding: 123 123 122
Width: 9
GlyphClass: 1
Flags: W
LayerCount: 2
Fore
SplineSet
5 11 m 1,0,-1
 5 10 l 1,1,-1
 6 10 l 1,2,-1
 7 10 l 1,3,-1
 8 10 l 1,4,-1
 8 11 l 1,5,-1
 7 11 l 1,6,-1
 6 11 l 1,7,-1
 5 11 l 1,0,-1
5 10 m 1,8,-1
 5 9 l 1,9,-1
 5 8 l 1,10,-1
 5 7 l 1,11,-1
 4 7 l 1,12,-1
 4 8 l 1,13,-1
 4 9 l 1,14,-1
 4 10 l 1,15,-1
 5 10 l 1,8,-1
4 7 m 1,16,-1
 4 6 l 1,17,-1
 3 6 l 1,18,-1
 2 6 l 1,19,-1
 2 7 l 1,20,-1
 3 7 l 1,21,-1
 4 7 l 1,16,-1
2 6 m 1,22,-1
 2 5 l 1,23,-1
 2 4 l 1,24,-1
 1 4 l 1,25,-1
 1 5 l 1,26,-1
 1 6 l 1,27,-1
 2 6 l 1,22,-1
2 4 m 1,28,-1
 3 4 l 1,29,-1
 4 4 l 1,30,-1
 4 3 l 1,31,-1
 3 3 l 1,32,-1
 2 3 l 1,33,-1
 2 4 l 1,28,-1
4 3 m 1,34,-1
 5 3 l 1,35,-1
 5 2 l 1,36,-1
 5 1 l 1,37,-1
 5 0 l 1,38,-1
 4 0 l 1,39,-1
 4 1 l 1,40,-1
 4 2 l 1,41,-1
 4 3 l 1,34,-1
5 0 m 1,42,-1
 6 0 l 1,43,-1
 7 0 l 1,44,-1
 8 0 l 1,45,-1
 8 -1 l 1,46,-1
 7 -1 l 1,47,-1
 6 -1 l 1,48,-1
 5 -1 l 1,49,-1
 5 0 l 1,42,-1
EndSplineSet
EndChar

StartChar: bar
Encoding: 124 124 123
Width: 9
GlyphClass: 1
Flags: W
LayerCount: 2
Fore
SplineSet
5 -4 m 1,0,-1
 5 14 l 1,1,-1
 4 14 l 1,2,-1
 4 -4 l 1,3,-1
 5 -4 l 1,0,-1
EndSplineSet
EndChar

StartChar: braceright
Encoding: 125 125 124
Width: 9
GlyphClass: 1
Flags: W
LayerCount: 2
Fore
SplineSet
1 11 m 1,0,-1
 1 10 l 1,1,-1
 2 10 l 1,2,-1
 3 10 l 1,3,-1
 4 10 l 1,4,-1
 4 11 l 1,5,-1
 3 11 l 1,6,-1
 2 11 l 1,7,-1
 1 11 l 1,0,-1
4 10 m 1,8,-1
 5 10 l 1,9,-1
 5 9 l 1,10,-1
 5 8 l 1,11,-1
 5 7 l 1,12,-1
 4 7 l 1,13,-1
 4 8 l 1,14,-1
 4 9 l 1,15,-1
 4 10 l 1,8,-1
5 7 m 1,16,-1
 6 7 l 1,17,-1
 7 7 l 1,18,-1
 7 6 l 1,19,-1
 6 6 l 1,20,-1
 5 6 l 1,21,-1
 5 7 l 1,16,-1
7 6 m 1,22,-1
 8 6 l 1,23,-1
 8 5 l 1,24,-1
 8 4 l 1,25,-1
 7 4 l 1,26,-1
 7 5 l 1,27,-1
 7 6 l 1,22,-1
7 4 m 1,28,-1
 7 3 l 1,29,-1
 6 3 l 1,30,-1
 5 3 l 1,31,-1
 5 4 l 1,32,-1
 6 4 l 1,33,-1
 7 4 l 1,28,-1
5 3 m 1,34,-1
 5 2 l 1,35,-1
 5 1 l 1,36,-1
 5 0 l 1,37,-1
 4 0 l 1,38,-1
 4 1 l 1,39,-1
 4 2 l 1,40,-1
 4 3 l 1,41,-1
 5 3 l 1,34,-1
4 0 m 1,42,-1
 4 -1 l 1,43,-1
 3 -1 l 1,44,-1
 2 -1 l 1,45,-1
 1 -1 l 1,46,-1
 1 0 l 1,47,-1
 2 0 l 1,48,-1
 3 0 l 1,49,-1
 4 0 l 1,42,-1
EndSplineSet
EndChar

StartChar: asciitilde
Encoding: 126 126 125
Width: 9
GlyphClass: 1
Flags: W
LayerCount: 2
Fore
SplineSet
2 11 m 1,0,-1
 2 10 l 1,1,-1
 3 10 l 1,2,-1
 4 10 l 1,3,-1
 4 11 l 1,4,-1
 3 11 l 1,5,-1
 2 11 l 1,0,-1
4 10 m 1,6,-1
 5 10 l 1,7,-1
 5 9 l 1,8,-1
 4 9 l 1,9,-1
 4 10 l 1,6,-1
5 9 m 1,10,-1
 6 9 l 1,11,-1
 7 9 l 1,12,-1
 7 8 l 1,13,-1
 6 8 l 1,14,-1
 5 8 l 1,15,-1
 5 9 l 1,10,-1
7 9 m 1,16,-1
 8 9 l 1,17,-1
 8 10 l 1,18,-1
 8 11 l 1,19,-1
 7 11 l 1,20,-1
 7 10 l 1,21,-1
 7 9 l 1,16,-1
2 10 m 1,22,-1
 2 9 l 1,23,-1
 2 8 l 1,24,-1
 1 8 l 1,25,-1
 1 9 l 1,26,-1
 1 10 l 1,27,-1
 2 10 l 1,22,-1
EndSplineSet
EndChar

StartChar: exclamdown
Encoding: 161 161 129
Width: 9
GlyphClass: 1
Flags: W
LayerCount: 2
Fore
SplineSet
4 5 m 1,0,-1
 4 -4 l 1,1,-1
 5 -4 l 1,2,-1
 5 5 l 1,3,-1
 4 5 l 1,0,-1
4 11 m 1,4,-1
 4 8 l 1,5,-1
 5 8 l 1,6,-1
 5 11 l 1,7,-1
 4 11 l 1,4,-1
EndSplineSet
EndChar

StartChar: cent
Encoding: 162 162 130
Width: 9
GlyphClass: 1
Flags: W
LayerCount: 2
Fore
SplineSet
4 14 m 1,0,-1
 4 10 l 1,1,-1
 3 10 l 1,2,-1
 3 9 l 1,3,-1
 4 9 l 1,4,-1
 4 1 l 1,5,-1
 3 1 l 1,6,-1
 3 0 l 1,7,-1
 4 0 l 1,8,-1
 4 -4 l 1,9,-1
 5 -4 l 1,10,-1
 5 0 l 1,11,-1
 7 0 l 1,12,-1
 7 1 l 1,13,-1
 5 1 l 1,14,-1
 5 9 l 1,15,-1
 7 9 l 1,16,-1
 7 10 l 1,17,-1
 5 10 l 1,18,-1
 5 14 l 1,19,-1
 4 14 l 1,0,-1
7 9 m 1,20,-1
 8 9 l 1,21,-1
 8 8 l 1,22,-1
 7 8 l 1,23,-1
 7 9 l 1,20,-1
7 1 m 1,24,-1
 7 2 l 1,25,-1
 8 2 l 1,26,-1
 8 1 l 1,27,-1
 7 1 l 1,24,-1
3 1 m 1,28,-1
 2 1 l 1,29,-1
 2 2 l 1,30,-1
 3 2 l 1,31,-1
 3 1 l 1,28,-1
2 2 m 1,32,-1
 2 8 l 1,33,-1
 1 8 l 1,34,-1
 1 2 l 1,35,-1
 2 2 l 1,32,-1
2 8 m 1,36,-1
 2 9 l 1,37,-1
 3 9 l 1,38,-1
 3 8 l 1,39,-1
 2 8 l 1,36,-1
EndSplineSet
EndChar

StartChar: sterling
Encoding: 163 163 131
Width: 9
GlyphClass: 1
Flags: W
LayerCount: 2
Fore
SplineSet
3 10 m 1,0,-1
 3 9 l 1,1,-1
 4 9 l 1,2,-1
 5 9 l 1,3,-1
 6 9 l 1,4,-1
 7 9 l 1,5,-1
 7 10 l 1,6,-1
 6 10 l 1,7,-1
 5 10 l 1,8,-1
 4 10 l 1,9,-1
 3 10 l 1,0,-1
7 9 m 1,10,-1
 8 9 l 1,11,-1
 8 8 l 1,12,-1
 7 8 l 1,13,-1
 7 9 l 1,10,-1
3 9 m 1,14,-1
 3 8 l 1,15,-1
 2 8 l 1,16,-1
 2 9 l 1,17,-1
 3 9 l 1,14,-1
2 8 m 1,18,-1
 2 7 l 1,19,-1
 2 6 l 1,20,-1
 4 6 l 1,21,-1
 5 6 l 1,22,-1
 6 6 l 1,23,-1
 6 5 l 1,24,-1
 5 5 l 1,25,-1
 4 5 l 1,26,-1
 2 5 l 1,27,-1
 2 4 l 1,28,-1
 2 3 l 1,29,-1
 2 2 l 1,30,-1
 2 1 l 1,31,-1
 8 1 l 1,32,-1
 8 0 l 1,33,-1
 2 0 l 1,34,-1
 1 0 l 1,35,-1
 1 1 l 1,36,-1
 1 2 l 1,37,-1
 1 3 l 1,38,-1
 1 4 l 1,39,-1
 1 5 l 1,40,-1
 1 6 l 1,41,-1
 1 7 l 1,42,-1
 1 8 l 1,43,-1
 2 8 l 1,18,-1
EndSplineSet
EndChar

StartChar: currency
Encoding: 164 164 132
Width: 9
GlyphClass: 1
Flags: W
LayerCount: 2
Fore
SplineSet
1 9 m 1,0,-1
 1 8 l 1,1,-1
 2 8 l 1,2,-1
 2 9 l 1,3,-1
 1 9 l 1,0,-1
2 8 m 1,4,-1
 3 8 l 1,5,-1
 3 7 l 1,6,-1
 2 7 l 1,7,-1
 2 8 l 1,4,-1
3 7 m 1,8,-1
 4 7 l 1,9,-1
 5 7 l 1,10,-1
 6 7 l 1,11,-1
 6 6 l 1,12,-1
 6 5 l 1,13,-1
 6 4 l 1,14,-1
 5 4 l 1,15,-1
 4 4 l 1,16,-1
 3 4 l 1,17,-1
 3 5 l 1,18,-1
 3 6 l 1,19,-1
 3 7 l 1,8,-1
6 7 m 1,20,-1
 6 8 l 1,21,-1
 7 8 l 1,22,-1
 7 7 l 1,23,-1
 6 7 l 1,20,-1
7 8 m 1,24,-1
 8 8 l 1,25,-1
 8 9 l 1,26,-1
 7 9 l 1,27,-1
 7 8 l 1,24,-1
6 4 m 1,28,-1
 7 4 l 1,29,-1
 7 3 l 1,30,-1
 6 3 l 1,31,-1
 6 4 l 1,28,-1
7 3 m 1,32,-1
 8 3 l 1,33,-1
 8 2 l 1,34,-1
 7 2 l 1,35,-1
 7 3 l 1,32,-1
3 4 m 1,36,-1
 3 3 l 1,37,-1
 2 3 l 1,38,-1
 2 4 l 1,39,-1
 3 4 l 1,36,-1
2 3 m 1,40,-1
 2 2 l 1,41,-1
 1 2 l 1,42,-1
 1 3 l 1,43,-1
 2 3 l 1,40,-1
4 6 m 1,44,-1
 4 5 l 1,45,-1
 5 5 l 1,46,-1
 5 6 l 1,47,-1
 4 6 l 1,44,-1
EndSplineSet
EndChar

StartChar: yen
Encoding: 165 165 133
Width: 9
GlyphClass: 1
Flags: W
LayerCount: 2
Fore
SplineSet
1 10 m 1,0,-1
 1 8 l 1,1,-1
 2 8 l 1,2,-1
 2 10 l 1,3,-1
 1 10 l 1,0,-1
2 8 m 1,4,-1
 2 6 l 1,5,-1
 3 6 l 1,6,-1
 3 8 l 1,7,-1
 2 8 l 1,4,-1
3 6 m 1,8,-1
 3 5 l 1,9,-1
 0 5 l 1,10,-1
 0 4 l 1,11,-1
 4 4 l 1,12,-1
 4 3 l 1,13,-1
 0 3 l 1,14,-1
 0 2 l 1,15,-1
 4 2 l 1,16,-1
 4 0 l 1,17,-1
 5 0 l 1,18,-1
 5 2 l 1,19,-1
 9 2 l 1,20,-1
 9 3 l 1,21,-1
 5 3 l 1,22,-1
 5 4 l 1,23,-1
 9 4 l 1,24,-1
 9 5 l 1,25,-1
 6 5 l 1,26,-1
 6 6 l 1,27,-1
 5 6 l 1,28,-1
 5 5 l 1,29,-1
 4 5 l 1,30,-1
 4 6 l 1,31,-1
 3 6 l 1,8,-1
6 6 m 1,32,-1
 7 6 l 1,33,-1
 7 8 l 1,34,-1
 6 8 l 1,35,-1
 6 6 l 1,32,-1
7 8 m 1,36,-1
 8 8 l 1,37,-1
 8 10 l 1,38,-1
 7 10 l 1,39,-1
 7 8 l 1,36,-1
EndSplineSet
EndChar

StartChar: brokenbar
Encoding: 166 166 134
Width: 9
GlyphClass: 1
Flags: W
LayerCount: 2
Fore
SplineSet
4 14 m 1,0,-1
 4 9 l 1,1,-1
 5 9 l 1,2,-1
 5 14 l 1,3,-1
 4 14 l 1,0,-1
4 1 m 1,4,-1
 4 -4 l 1,5,-1
 5 -4 l 1,6,-1
 5 1 l 1,7,-1
 4 1 l 1,4,-1
EndSplineSet
EndChar

StartChar: section
Encoding: 167 167 135
Width: 9
GlyphClass: 1
Flags: W
LayerCount: 2
Fore
SplineSet
2 12 m 1,0,-1
 2 11 l 1,1,-1
 7 11 l 1,2,-1
 7 12 l 1,3,-1
 2 12 l 1,0,-1
7 11 m 1,4,-1
 8 11 l 1,5,-1
 8 10 l 1,6,-1
 7 10 l 1,7,-1
 7 11 l 1,4,-1
2 11 m 1,8,-1
 1 11 l 1,9,-1
 1 10 l 1,10,-1
 1 8 l 1,11,-1
 2 8 l 1,12,-1
 2 10 l 1,13,-1
 2 11 l 1,8,-1
2 8 m 1,14,-1
 7 8 l 1,15,-1
 7 7 l 1,16,-1
 2 7 l 1,17,-1
 2 8 l 1,14,-1
7 7 m 1,18,-1
 7 6 l 1,19,-1
 7 4 l 1,20,-1
 7 3 l 1,21,-1
 8 3 l 1,22,-1
 8 4 l 1,23,-1
 8 6 l 1,24,-1
 8 7 l 1,25,-1
 7 7 l 1,18,-1
7 3 m 1,26,-1
 7 2 l 1,27,-1
 2 2 l 1,28,-1
 2 3 l 1,29,-1
 7 3 l 1,26,-1
7 2 m 1,30,-1
 7 0 l 1,31,-1
 7 -1 l 1,32,-1
 8 -1 l 1,33,-1
 8 0 l 1,34,-1
 8 2 l 1,35,-1
 7 2 l 1,30,-1
7 -1 m 1,36,-1
 7 -2 l 1,37,-1
 2 -2 l 1,38,-1
 2 -1 l 1,39,-1
 7 -1 l 1,36,-1
2 -1 m 1,40,-1
 1 -1 l 1,41,-1
 1 0 l 1,42,-1
 2 0 l 1,43,-1
 2 -1 l 1,40,-1
2 3 m 1,44,-1
 2 4 l 1,45,-1
 2 6 l 1,46,-1
 2 7 l 1,47,-1
 1 7 l 1,48,-1
 1 6 l 1,49,-1
 1 4 l 1,50,-1
 1 3 l 1,51,-1
 2 3 l 1,44,-1
EndSplineSet
EndChar

StartChar: dieresis
Encoding: 168 168 136
Width: 9
GlyphClass: 1
Flags: W
LayerCount: 2
Fore
SplineSet
2 11 m 1,0,-1
 2 8 l 1,1,-1
 3 8 l 1,2,-1
 3 11 l 1,3,-1
 2 11 l 1,0,-1
6 11 m 1,4,-1
 6 8 l 1,5,-1
 7 8 l 1,6,-1
 7 11 l 1,7,-1
 6 11 l 1,4,-1
EndSplineSet
EndChar

StartChar: copyright
Encoding: 169 169 137
Width: 9
GlyphClass: 1
Flags: W
LayerCount: 2
Fore
SplineSet
3 10 m 1,0,-1
 3 9 l 1,1,-1
 6 9 l 1,2,-1
 6 10 l 1,3,-1
 3 10 l 1,0,-1
6 9 m 1,4,-1
 7 9 l 1,5,-1
 7 8 l 1,6,-1
 6 8 l 1,7,-1
 6 9 l 1,4,-1
7 8 m 1,8,-1
 7 2 l 1,9,-1
 8 2 l 1,10,-1
 8 8 l 1,11,-1
 7 8 l 1,8,-1
7 2 m 1,12,-1
 7 1 l 1,13,-1
 6 1 l 1,14,-1
 6 2 l 1,15,-1
 7 2 l 1,12,-1
6 1 m 1,16,-1
 6 0 l 1,17,-1
 3 0 l 1,18,-1
 3 1 l 1,19,-1
 6 1 l 1,16,-1
3 1 m 1,20,-1
 2 1 l 1,21,-1
 2 2 l 1,22,-1
 3 2 l 1,23,-1
 3 1 l 1,20,-1
2 2 m 1,24,-1
 2 8 l 1,25,-1
 1 8 l 1,26,-1
 1 2 l 1,27,-1
 2 2 l 1,24,-1
2 8 m 1,28,-1
 2 9 l 1,29,-1
 3 9 l 1,30,-1
 3 8 l 1,31,-1
 2 8 l 1,28,-1
4 8 m 1,32,-1
 5 8 l 1,33,-1
 5 7 l 1,34,-1
 4 7 l 1,35,-1
 4 8 l 1,32,-1
5 7 m 1,36,-1
 6 7 l 1,37,-1
 6 6 l 1,38,-1
 5 6 l 1,39,-1
 5 7 l 1,36,-1
4 7 m 1,40,-1
 3 7 l 1,41,-1
 3 3 l 1,42,-1
 4 3 l 1,43,-1
 4 7 l 1,40,-1
4 3 m 1,44,-1
 5 3 l 1,45,-1
 5 2 l 1,46,-1
 4 2 l 1,47,-1
 4 3 l 1,44,-1
5 3 m 1,48,-1
 6 3 l 1,49,-1
 6 4 l 1,50,-1
 5 4 l 1,51,-1
 5 3 l 1,48,-1
EndSplineSet
EndChar

StartChar: ordfeminine
Encoding: 170 170 138
Width: 9
GlyphClass: 1
Flags: W
LayerCount: 2
Fore
SplineSet
2 10 m 1,0,-1
 2 9 l 1,1,-1
 3 9 l 1,2,-1
 6 9 l 1,3,-1
 7 9 l 1,4,-1
 7 10 l 1,5,-1
 6 10 l 1,6,-1
 3 10 l 1,7,-1
 2 10 l 1,0,-1
7 9 m 1,8,-1
 7 7 l 1,9,-1
 2 7 l 1,10,-1
 2 6 l 1,11,-1
 7 6 l 1,12,-1
 7 4 l 1,13,-1
 8 4 l 1,14,-1
 8 9 l 1,15,-1
 7 9 l 1,8,-1
7 4 m 1,16,-1
 7 3 l 1,17,-1
 2 3 l 1,18,-1
 2 4 l 1,19,-1
 7 4 l 1,16,-1
2 4 m 1,20,-1
 2 6 l 1,21,-1
 1 6 l 1,22,-1
 1 4 l 1,23,-1
 2 4 l 1,20,-1
2 9 m 1,24,-1
 2 8 l 1,25,-1
 1 8 l 1,26,-1
 1 9 l 1,27,-1
 2 9 l 1,24,-1
0 1 m 1,28,-1
 0 0 l 1,29,-1
 9 0 l 1,30,-1
 9 1 l 1,31,-1
 0 1 l 1,28,-1
EndSplineSet
EndChar

StartChar: guillemotleft
Encoding: 171 171 139
Width: 9
GlyphClass: 1
Flags: W
LayerCount: 2
Fore
SplineSet
4 14 m 1,0,-1
 4 12 l 1,1,-1
 5 12 l 1,2,-1
 5 14 l 1,3,-1
 4 14 l 1,0,-1
4 12 m 1,4,-1
 3 12 l 1,5,-1
 3 9 l 1,6,-1
 4 9 l 1,7,-1
 4 12 l 1,4,-1
3 9 m 1,8,-1
 2 9 l 1,9,-1
 2 6 l 1,10,-1
 3 6 l 1,11,-1
 3 9 l 1,8,-1
2 6 m 1,12,-1
 1 6 l 1,13,-1
 1 4 l 1,14,-1
 2 4 l 1,15,-1
 2 6 l 1,12,-1
2 4 m 1,16,-1
 2 1 l 1,17,-1
 3 1 l 1,18,-1
 3 4 l 1,19,-1
 2 4 l 1,16,-1
3 1 m 1,20,-1
 3 -2 l 1,21,-1
 4 -2 l 1,22,-1
 4 1 l 1,23,-1
 3 1 l 1,20,-1
4 -2 m 1,24,-1
 4 -4 l 1,25,-1
 5 -4 l 1,26,-1
 5 -2 l 1,27,-1
 4 -2 l 1,24,-1
8 14 m 1,28,-1
 8 12 l 1,29,-1
 9 12 l 1,30,-1
 9 14 l 1,31,-1
 8 14 l 1,28,-1
8 12 m 1,32,-1
 7 12 l 1,33,-1
 7 9 l 1,34,-1
 8 9 l 1,35,-1
 8 12 l 1,32,-1
7 9 m 1,36,-1
 6 9 l 1,37,-1
 6 6 l 1,38,-1
 7 6 l 1,39,-1
 7 9 l 1,36,-1
6 6 m 1,40,-1
 5 6 l 1,41,-1
 5 4 l 1,42,-1
 6 4 l 1,43,-1
 6 6 l 1,40,-1
6 4 m 1,44,-1
 6 1 l 1,45,-1
 7 1 l 1,46,-1
 7 4 l 1,47,-1
 6 4 l 1,44,-1
7 1 m 1,48,-1
 7 -2 l 1,49,-1
 8 -2 l 1,50,-1
 8 1 l 1,51,-1
 7 1 l 1,48,-1
8 -2 m 1,52,-1
 8 -4 l 1,53,-1
 9 -4 l 1,54,-1
 9 -2 l 1,55,-1
 8 -2 l 1,52,-1
EndSplineSet
EndChar

StartChar: logicalnot
Encoding: 172 172 140
Width: 9
GlyphClass: 1
Flags: W
LayerCount: 2
Fore
SplineSet
4 6 m 1,0,-1
 0 6 l 1,1,-1
 0 5 l 1,2,-1
 4 5 l 1,3,-1
 4 -4 l 1,4,-1
 5 -4 l 1,5,-1
 5 5 l 1,6,-1
 5 6 l 1,7,-1
 4 6 l 1,0,-1
EndSplineSet
EndChar

StartChar: uni00AD
Encoding: 173 173 141
Width: 9
GlyphClass: 1
Flags: W
LayerCount: 2
Fore
SplineSet
0 6 m 1,0,-1
 0 5 l 1,1,-1
 9 5 l 1,2,-1
 9 6 l 1,3,-1
 0 6 l 1,0,-1
EndSplineSet
EndChar

StartChar: registered
Encoding: 174 174 142
Width: 9
GlyphClass: 1
Flags: W
LayerCount: 2
Fore
SplineSet
3 10 m 1,0,-1
 3 9 l 1,1,-1
 6 9 l 1,2,-1
 6 10 l 1,3,-1
 3 10 l 1,0,-1
6 9 m 1,4,-1
 7 9 l 1,5,-1
 7 8 l 1,6,-1
 6 8 l 1,7,-1
 6 9 l 1,4,-1
7 8 m 1,8,-1
 7 2 l 1,9,-1
 8 2 l 1,10,-1
 8 8 l 1,11,-1
 7 8 l 1,8,-1
7 2 m 1,12,-1
 7 1 l 1,13,-1
 6 1 l 1,14,-1
 6 2 l 1,15,-1
 7 2 l 1,12,-1
6 1 m 1,16,-1
 6 0 l 1,17,-1
 3 0 l 1,18,-1
 3 1 l 1,19,-1
 6 1 l 1,16,-1
3 1 m 1,20,-1
 2 1 l 1,21,-1
 2 2 l 1,22,-1
 3 2 l 1,23,-1
 3 1 l 1,20,-1
2 2 m 1,24,-1
 2 8 l 1,25,-1
 1 8 l 1,26,-1
 1 2 l 1,27,-1
 2 2 l 1,24,-1
2 8 m 1,28,-1
 2 9 l 1,29,-1
 3 9 l 1,30,-1
 3 8 l 1,31,-1
 2 8 l 1,28,-1
3 7 m 1,32,-1
 3 3 l 1,33,-1
 4 3 l 1,34,-1
 4 4 l 1,35,-1
 5 4 l 1,36,-1
 5 5 l 1,37,-1
 4 5 l 1,38,-1
 4 6 l 1,39,-1
 5 6 l 1,40,-1
 5 7 l 1,41,-1
 4 7 l 1,42,-1
 3 7 l 1,32,-1
5 6 m 1,43,-1
 6 6 l 1,44,-1
 6 5 l 1,45,-1
 5 5 l 1,46,-1
 5 6 l 1,43,-1
5 4 m 1,47,-1
 6 4 l 1,48,-1
 6 3 l 1,49,-1
 5 3 l 1,50,-1
 5 4 l 1,47,-1
EndSplineSet
EndChar

StartChar: macron
Encoding: 175 175 143
Width: 9
GlyphClass: 1
Flags: W
LayerCount: 2
Fore
SplineSet
0 14 m 1,0,-1
 0 13 l 1,1,-1
 9 13 l 1,2,-1
 9 14 l 1,3,-1
 0 14 l 1,0,-1
EndSplineSet
EndChar

StartChar: degree
Encoding: 176 176 144
Width: 9
GlyphClass: 1
Flags: W
LayerCount: 2
Fore
SplineSet
3 12 m 1,0,-1
 3 11 l 1,1,-1
 6 11 l 1,2,-1
 6 12 l 1,3,-1
 3 12 l 1,0,-1
6 11 m 1,4,-1
 6 8 l 1,5,-1
 7 8 l 1,6,-1
 7 11 l 1,7,-1
 6 11 l 1,4,-1
6 8 m 1,8,-1
 6 7 l 1,9,-1
 3 7 l 1,10,-1
 3 8 l 1,11,-1
 6 8 l 1,8,-1
3 8 m 1,12,-1
 3 11 l 1,13,-1
 2 11 l 1,14,-1
 2 8 l 1,15,-1
 3 8 l 1,12,-1
EndSplineSet
EndChar

StartChar: plusminus
Encoding: 177 177 145
Width: 9
GlyphClass: 1
Flags: W
LayerCount: 2
Fore
SplineSet
4 14 m 1,0,-1
 4 10 l 1,1,-1
 0 10 l 1,2,-1
 0 9 l 1,3,-1
 4 9 l 1,4,-1
 4 5 l 1,5,-1
 5 5 l 1,6,-1
 5 9 l 1,7,-1
 9 9 l 1,8,-1
 9 10 l 1,9,-1
 5 10 l 1,10,-1
 5 14 l 1,11,-1
 4 14 l 1,0,-1
0 1 m 1,12,-1
 9 1 l 1,13,-1
 9 0 l 1,14,-1
 0 0 l 1,15,-1
 0 1 l 1,12,-1
EndSplineSet
EndChar

StartChar: uni00B2
Encoding: 178 178 146
Width: 9
GlyphClass: 1
Flags: W
LayerCount: 2
Fore
SplineSet
2 13 m 1,0,-1
 2 12 l 1,1,-1
 3 12 l 1,2,-1
 6 12 l 1,3,-1
 7 12 l 1,4,-1
 7 13 l 1,5,-1
 6 13 l 1,6,-1
 3 13 l 1,7,-1
 2 13 l 1,0,-1
7 12 m 1,8,-1
 8 12 l 1,9,-1
 8 10 l 1,10,-1
 7 10 l 1,11,-1
 7 12 l 1,8,-1
7 10 m 1,12,-1
 7 9 l 1,13,-1
 6 9 l 1,14,-1
 5 9 l 1,15,-1
 5 10 l 1,16,-1
 6 10 l 1,17,-1
 7 10 l 1,12,-1
5 9 m 1,18,-1
 5 8 l 1,19,-1
 2 8 l 1,20,-1
 2 9 l 1,21,-1
 5 9 l 1,18,-1
2 8 m 1,22,-1
 2 7 l 1,23,-1
 8 7 l 1,24,-1
 8 6 l 1,25,-1
 1 6 l 1,26,-1
 1 7 l 1,27,-1
 1 8 l 1,28,-1
 2 8 l 1,22,-1
2 12 m 1,29,-1
 2 11 l 1,30,-1
 1 11 l 1,31,-1
 1 12 l 1,32,-1
 2 12 l 1,29,-1
EndSplineSet
EndChar

StartChar: uni00B3
Encoding: 179 179 147
Width: 9
GlyphClass: 1
Flags: W
LayerCount: 2
Fore
SplineSet
2 13 m 1,0,-1
 2 12 l 1,1,-1
 3 12 l 1,2,-1
 6 12 l 1,3,-1
 7 12 l 1,4,-1
 7 13 l 1,5,-1
 6 13 l 1,6,-1
 3 13 l 1,7,-1
 2 13 l 1,0,-1
7 12 m 1,8,-1
 8 12 l 1,9,-1
 8 10 l 1,10,-1
 7 10 l 1,11,-1
 7 12 l 1,8,-1
7 10 m 1,12,-1
 7 9 l 1,13,-1
 6 9 l 1,14,-1
 4 9 l 1,15,-1
 4 10 l 1,16,-1
 6 10 l 1,17,-1
 7 10 l 1,12,-1
7 9 m 1,18,-1
 7 7 l 1,19,-1
 8 7 l 1,20,-1
 8 9 l 1,21,-1
 7 9 l 1,18,-1
7 7 m 1,22,-1
 7 6 l 1,23,-1
 6 6 l 1,24,-1
 3 6 l 1,25,-1
 2 6 l 1,26,-1
 2 7 l 1,27,-1
 3 7 l 1,28,-1
 6 7 l 1,29,-1
 7 7 l 1,22,-1
2 7 m 1,30,-1
 2 8 l 1,31,-1
 1 8 l 1,32,-1
 1 7 l 1,33,-1
 2 7 l 1,30,-1
2 12 m 1,34,-1
 2 11 l 1,35,-1
 1 11 l 1,36,-1
 1 12 l 1,37,-1
 2 12 l 1,34,-1
EndSplineSet
EndChar

StartChar: acute
Encoding: 180 180 148
Width: 9
GlyphClass: 1
Flags: W
LayerCount: 2
Fore
SplineSet
5 11 m 1,0,-1
 5 10 l 1,1,-1
 6 10 l 1,2,-1
 6 11 l 1,3,-1
 5 11 l 1,0,-1
5 10 m 1,4,-1
 5 9 l 1,5,-1
 4 9 l 1,6,-1
 4 10 l 1,7,-1
 5 10 l 1,4,-1
4 9 m 1,8,-1
 4 8 l 1,9,-1
 3 8 l 1,10,-1
 3 9 l 1,11,-1
 4 9 l 1,8,-1
EndSplineSet
EndChar

StartChar: mu
Encoding: 181 181 149
Width: 9
GlyphClass: 1
Flags: W
LayerCount: 2
Fore
SplineSet
1 7 m 1,0,-1
 1 6 l 1,1,-1
 1 5 l 1,2,-1
 1 4 l 1,3,-1
 1 3 l 1,4,-1
 1 2 l 1,5,-1
 1 -2 l 1,6,-1
 2 -2 l 1,7,-1
 2 1 l 1,8,-1
 3 1 l 1,9,-1
 3 2 l 1,10,-1
 2 2 l 1,11,-1
 2 7 l 1,12,-1
 1 7 l 1,0,-1
3 1 m 1,13,-1
 4 1 l 1,14,-1
 5 1 l 1,15,-1
 6 1 l 1,16,-1
 6 0 l 1,17,-1
 5 0 l 1,18,-1
 4 0 l 1,19,-1
 3 0 l 1,20,-1
 3 1 l 1,13,-1
6 1 m 1,21,-1
 6 2 l 1,22,-1
 7 2 l 1,23,-1
 7 1 l 1,24,-1
 6 1 l 1,21,-1
7 2 m 1,25,-1
 8 2 l 1,26,-1
 8 3 l 1,27,-1
 8 4 l 1,28,-1
 8 5 l 1,29,-1
 8 6 l 1,30,-1
 8 7 l 1,31,-1
 7 7 l 1,32,-1
 7 6 l 1,33,-1
 7 5 l 1,34,-1
 7 4 l 1,35,-1
 7 3 l 1,36,-1
 7 2 l 1,25,-1
EndSplineSet
EndChar

StartChar: paragraph
Encoding: 182 182 150
Width: 9
GlyphClass: 1
Flags: W
LayerCount: 2
Fore
SplineSet
4 10 m 1,0,-1
 2 10 l 1,1,-1
 2 9 l 1,2,-1
 1 9 l 1,3,-1
 1 6 l 1,4,-1
 2 6 l 1,5,-1
 2 5 l 1,6,-1
 4 5 l 1,7,-1
 4 0 l 1,8,-1
 5 0 l 1,9,-1
 5 9 l 1,10,-1
 7 9 l 1,11,-1
 7 6 l 1,12,-1
 7 4 l 1,13,-1
 7 0 l 1,14,-1
 8 0 l 1,15,-1
 8 10 l 1,16,-1
 7 10 l 1,17,-1
 5 10 l 1,18,-1
 4 10 l 1,0,-1
EndSplineSet
EndChar

StartChar: periodcentered
Encoding: 183 183 151
Width: 9
GlyphClass: 1
Flags: W
LayerCount: 2
Fore
SplineSet
4 7 m 1,0,-1
 4 4 l 1,1,-1
 5 4 l 1,2,-1
 5 7 l 1,3,-1
 4 7 l 1,0,-1
EndSplineSet
EndChar

StartChar: cedilla
Encoding: 184 184 152
Width: 9
GlyphClass: 1
Flags: W
LayerCount: 2
Fore
SplineSet
4 0 m 1,0,-1
 4 -1 l 1,1,-1
 5 -1 l 1,2,-1
 5 0 l 1,3,-1
 4 0 l 1,0,-1
5 -1 m 1,4,-1
 6 -1 l 1,5,-1
 6 -2 l 1,6,-1
 5 -2 l 1,7,-1
 5 -1 l 1,4,-1
5 -2 m 1,8,-1
 5 -3 l 1,9,-1
 4 -3 l 1,10,-1
 4 -2 l 1,11,-1
 5 -2 l 1,8,-1
EndSplineSet
EndChar

StartChar: uni00B9
Encoding: 185 185 153
Width: 9
GlyphClass: 1
Flags: W
LayerCount: 2
Fore
SplineSet
5 13 m 1,0,-1
 5 12 l 1,1,-1
 4 12 l 1,2,-1
 4 11 l 1,3,-1
 5 11 l 1,4,-1
 5 6 l 1,5,-1
 6 6 l 1,6,-1
 6 13 l 1,7,-1
 5 13 l 1,0,-1
4 11 m 1,8,-1
 4 10 l 1,9,-1
 3 10 l 1,10,-1
 3 11 l 1,11,-1
 4 11 l 1,8,-1
3 10 m 1,12,-1
 3 9 l 1,13,-1
 2 9 l 1,14,-1
 2 10 l 1,15,-1
 3 10 l 1,12,-1
EndSplineSet
EndChar

StartChar: ordmasculine
Encoding: 186 186 154
Width: 9
GlyphClass: 1
Flags: W
LayerCount: 2
Fore
SplineSet
3 12 m 1,0,-1
 3 11 l 1,1,-1
 6 11 l 1,2,-1
 6 12 l 1,3,-1
 3 12 l 1,0,-1
6 11 m 1,4,-1
 6 8 l 1,5,-1
 7 8 l 1,6,-1
 7 11 l 1,7,-1
 6 11 l 1,4,-1
6 8 m 1,8,-1
 6 7 l 1,9,-1
 3 7 l 1,10,-1
 3 8 l 1,11,-1
 6 8 l 1,8,-1
3 8 m 1,12,-1
 3 11 l 1,13,-1
 2 11 l 1,14,-1
 2 8 l 1,15,-1
 3 8 l 1,12,-1
0 6 m 1,16,-1
 0 5 l 1,17,-1
 9 5 l 1,18,-1
 9 6 l 1,19,-1
 0 6 l 1,16,-1
EndSplineSet
EndChar

StartChar: guillemotright
Encoding: 187 187 155
Width: 9
GlyphClass: 1
Flags: W
LayerCount: 2
Fore
SplineSet
0 14 m 1,0,-1
 0 12 l 1,1,-1
 1 12 l 1,2,-1
 1 14 l 1,3,-1
 0 14 l 1,0,-1
1 12 m 1,4,-1
 1 9 l 1,5,-1
 2 9 l 1,6,-1
 2 12 l 1,7,-1
 1 12 l 1,4,-1
2 9 m 1,8,-1
 2 6 l 1,9,-1
 3 6 l 1,10,-1
 3 9 l 1,11,-1
 2 9 l 1,8,-1
3 6 m 1,12,-1
 3 4 l 1,13,-1
 4 4 l 1,14,-1
 4 6 l 1,15,-1
 3 6 l 1,12,-1
3 4 m 1,16,-1
 2 4 l 1,17,-1
 2 1 l 1,18,-1
 3 1 l 1,19,-1
 3 4 l 1,16,-1
2 1 m 1,20,-1
 1 1 l 1,21,-1
 1 -2 l 1,22,-1
 2 -2 l 1,23,-1
 2 1 l 1,20,-1
1 -2 m 1,24,-1
 0 -2 l 1,25,-1
 0 -4 l 1,26,-1
 1 -4 l 1,27,-1
 1 -2 l 1,24,-1
5 14 m 1,28,-1
 5 12 l 1,29,-1
 6 12 l 1,30,-1
 6 14 l 1,31,-1
 5 14 l 1,28,-1
6 12 m 1,32,-1
 6 9 l 1,33,-1
 7 9 l 1,34,-1
 7 12 l 1,35,-1
 6 12 l 1,32,-1
7 9 m 1,36,-1
 7 6 l 1,37,-1
 8 6 l 1,38,-1
 8 9 l 1,39,-1
 7 9 l 1,36,-1
8 6 m 1,40,-1
 8 4 l 1,41,-1
 9 4 l 1,42,-1
 9 6 l 1,43,-1
 8 6 l 1,40,-1
8 4 m 1,44,-1
 7 4 l 1,45,-1
 7 1 l 1,46,-1
 8 1 l 1,47,-1
 8 4 l 1,44,-1
7 1 m 1,48,-1
 6 1 l 1,49,-1
 6 -2 l 1,50,-1
 7 -2 l 1,51,-1
 7 1 l 1,48,-1
6 -2 m 1,52,-1
 5 -2 l 1,53,-1
 5 -4 l 1,54,-1
 6 -4 l 1,55,-1
 6 -2 l 1,52,-1
EndSplineSet
EndChar

StartChar: onequarter
Encoding: 188 188 156
Width: 9
GlyphClass: 1
Flags: W
LayerCount: 2
Fore
SplineSet
8 14 m 1,0,-1
 8 12 l 1,1,-1
 9 12 l 1,2,-1
 9 14 l 1,3,-1
 8 14 l 1,0,-1
8 12 m 1,4,-1
 8 10 l 1,5,-1
 7 10 l 1,6,-1
 7 12 l 1,7,-1
 8 12 l 1,4,-1
7 10 m 1,8,-1
 7 8 l 1,9,-1
 6 8 l 1,10,-1
 6 10 l 1,11,-1
 7 10 l 1,8,-1
6 8 m 1,12,-1
 6 6 l 1,13,-1
 5 6 l 1,14,-1
 5 8 l 1,15,-1
 6 8 l 1,12,-1
5 6 m 1,16,-1
 4 6 l 1,17,-1
 4 4 l 1,18,-1
 5 4 l 1,19,-1
 5 6 l 1,16,-1
4 4 m 1,20,-1
 4 2 l 1,21,-1
 3 2 l 1,22,-1
 3 4 l 1,23,-1
 4 4 l 1,20,-1
3 2 m 1,24,-1
 3 0 l 1,25,-1
 2 0 l 1,26,-1
 2 2 l 1,27,-1
 3 2 l 1,24,-1
2 0 m 1,28,-1
 2 -2 l 1,29,-1
 1 -2 l 1,30,-1
 1 0 l 1,31,-1
 2 0 l 1,28,-1
1 -2 m 1,32,-1
 1 -4 l 1,33,-1
 0 -4 l 1,34,-1
 0 -2 l 1,35,-1
 1 -2 l 1,32,-1
3 13 m 1,36,-1
 3 12 l 1,37,-1
 2 12 l 1,38,-1
 2 11 l 1,39,-1
 3 11 l 1,40,-1
 3 7 l 1,41,-1
 4 7 l 1,42,-1
 4 13 l 1,43,-1
 3 13 l 1,36,-1
2 11 m 1,44,-1
 2 10 l 1,45,-1
 1 10 l 1,46,-1
 1 11 l 1,47,-1
 2 11 l 1,44,-1
1 10 m 1,48,-1
 1 9 l 1,49,-1
 0 9 l 1,50,-1
 0 10 l 1,51,-1
 1 10 l 1,48,-1
7 4 m 1,52,-1
 8 4 l 1,53,-1
 8 0 l 1,54,-1
 9 0 l 1,55,-1
 9 -1 l 1,56,-1
 8 -1 l 1,57,-1
 8 -3 l 1,58,-1
 7 -3 l 1,59,-1
 7 -1 l 1,60,-1
 4 -1 l 1,61,-1
 4 0 l 1,62,-1
 4 1 l 1,63,-1
 5 1 l 1,64,-1
 5 0 l 1,65,-1
 7 0 l 1,66,-1
 7 2 l 1,67,-1
 6 2 l 1,68,-1
 6 3 l 1,69,-1
 7 3 l 1,70,-1
 7 4 l 1,52,-1
5 1 m 1,71,-1
 5 2 l 1,72,-1
 6 2 l 1,73,-1
 6 1 l 1,74,-1
 5 1 l 1,71,-1
EndSplineSet
EndChar

StartChar: onehalf
Encoding: 189 189 157
Width: 9
GlyphClass: 1
Flags: W
LayerCount: 2
Fore
SplineSet
8 14 m 1,0,-1
 8 12 l 1,1,-1
 9 12 l 1,2,-1
 9 14 l 1,3,-1
 8 14 l 1,0,-1
8 12 m 1,4,-1
 8 10 l 1,5,-1
 7 10 l 1,6,-1
 7 12 l 1,7,-1
 8 12 l 1,4,-1
7 10 m 1,8,-1
 6 10 l 1,9,-1
 6 8 l 1,10,-1
 7 8 l 1,11,-1
 7 10 l 1,8,-1
6 8 m 1,12,-1
 5 8 l 1,13,-1
 5 6 l 1,14,-1
 6 6 l 1,15,-1
 6 8 l 1,12,-1
5 6 m 1,16,-1
 5 4 l 1,17,-1
 4 4 l 1,18,-1
 4 6 l 1,19,-1
 5 6 l 1,16,-1
4 4 m 1,20,-1
 4 2 l 1,21,-1
 3 2 l 1,22,-1
 3 4 l 1,23,-1
 4 4 l 1,20,-1
3 2 m 1,24,-1
 3 0 l 1,25,-1
 2 0 l 1,26,-1
 2 2 l 1,27,-1
 3 2 l 1,24,-1
2 0 m 1,28,-1
 2 -2 l 1,29,-1
 1 -2 l 1,30,-1
 1 0 l 1,31,-1
 2 0 l 1,28,-1
1 -2 m 1,32,-1
 1 -4 l 1,33,-1
 0 -4 l 1,34,-1
 0 -2 l 1,35,-1
 1 -2 l 1,32,-1
3 13 m 1,36,-1
 3 12 l 1,37,-1
 2 12 l 1,38,-1
 2 11 l 1,39,-1
 3 11 l 1,40,-1
 3 7 l 1,41,-1
 4 7 l 1,42,-1
 4 13 l 1,43,-1
 3 13 l 1,36,-1
2 11 m 1,44,-1
 2 10 l 1,45,-1
 1 10 l 1,46,-1
 1 11 l 1,47,-1
 2 11 l 1,44,-1
1 10 m 1,48,-1
 1 9 l 1,49,-1
 0 9 l 1,50,-1
 0 10 l 1,51,-1
 1 10 l 1,48,-1
6 4 m 1,52,-1
 7 4 l 1,53,-1
 8 4 l 1,54,-1
 8 3 l 1,55,-1
 7 3 l 1,56,-1
 6 3 l 1,57,-1
 6 4 l 1,52,-1
8 3 m 1,58,-1
 9 3 l 1,59,-1
 9 1 l 1,60,-1
 8 1 l 1,61,-1
 8 3 l 1,58,-1
8 1 m 1,62,-1
 8 0 l 1,63,-1
 7 0 l 1,64,-1
 7 1 l 1,65,-1
 8 1 l 1,62,-1
7 0 m 1,66,-1
 7 -1 l 1,67,-1
 6 -1 l 1,68,-1
 6 0 l 1,69,-1
 7 0 l 1,66,-1
6 -1 m 1,70,-1
 6 -2 l 1,71,-1
 9 -2 l 1,72,-1
 9 -3 l 1,73,-1
 5 -3 l 1,74,-1
 5 -2 l 1,75,-1
 5 -1 l 1,76,-1
 6 -1 l 1,70,-1
6 3 m 1,77,-1
 6 2 l 1,78,-1
 5 2 l 1,79,-1
 5 3 l 1,80,-1
 6 3 l 1,77,-1
EndSplineSet
EndChar

StartChar: threequarters
Encoding: 190 190 158
Width: 9
GlyphClass: 1
Flags: W
LayerCount: 2
Fore
SplineSet
8 14 m 1,0,-1
 8 12 l 1,1,-1
 9 12 l 1,2,-1
 9 14 l 1,3,-1
 8 14 l 1,0,-1
8 12 m 1,4,-1
 8 10 l 1,5,-1
 7 10 l 1,6,-1
 7 12 l 1,7,-1
 8 12 l 1,4,-1
7 10 m 1,8,-1
 7 8 l 1,9,-1
 6 8 l 1,10,-1
 6 10 l 1,11,-1
 7 10 l 1,8,-1
6 8 m 1,12,-1
 6 6 l 1,13,-1
 5 6 l 1,14,-1
 5 8 l 1,15,-1
 6 8 l 1,12,-1
5 6 m 1,16,-1
 4 6 l 1,17,-1
 4 4 l 1,18,-1
 5 4 l 1,19,-1
 5 6 l 1,16,-1
4 4 m 1,20,-1
 4 2 l 1,21,-1
 3 2 l 1,22,-1
 3 4 l 1,23,-1
 4 4 l 1,20,-1
3 2 m 1,24,-1
 3 0 l 1,25,-1
 2 0 l 1,26,-1
 2 2 l 1,27,-1
 3 2 l 1,24,-1
2 0 m 1,28,-1
 2 -2 l 1,29,-1
 1 -2 l 1,30,-1
 1 0 l 1,31,-1
 2 0 l 1,28,-1
1 -2 m 1,32,-1
 1 -4 l 1,33,-1
 0 -4 l 1,34,-1
 0 -2 l 1,35,-1
 1 -2 l 1,32,-1
1 13 m 1,36,-1
 1 12 l 1,37,-1
 2 12 l 1,38,-1
 3 12 l 1,39,-1
 3 13 l 1,40,-1
 2 13 l 1,41,-1
 1 13 l 1,36,-1
3 12 m 1,42,-1
 4 12 l 1,43,-1
 4 10 l 1,44,-1
 3 10 l 1,45,-1
 3 12 l 1,42,-1
3 10 m 1,46,-1
 3 9 l 1,47,-1
 2 9 l 1,48,-1
 2 10 l 1,49,-1
 3 10 l 1,46,-1
3 9 m 1,50,-1
 4 9 l 1,51,-1
 4 7 l 1,52,-1
 3 7 l 1,53,-1
 3 9 l 1,50,-1
3 7 m 1,54,-1
 3 6 l 1,55,-1
 2 6 l 1,56,-1
 1 6 l 1,57,-1
 1 7 l 1,58,-1
 2 7 l 1,59,-1
 3 7 l 1,54,-1
1 7 m 1,60,-1
 0 7 l 1,61,-1
 0 8 l 1,62,-1
 1 8 l 1,63,-1
 1 7 l 1,60,-1
1 12 m 1,64,-1
 1 11 l 1,65,-1
 0 11 l 1,66,-1
 0 12 l 1,67,-1
 1 12 l 1,64,-1
7 4 m 1,68,-1
 8 4 l 1,69,-1
 8 0 l 1,70,-1
 9 0 l 1,71,-1
 9 -1 l 1,72,-1
 8 -1 l 1,73,-1
 8 -3 l 1,74,-1
 7 -3 l 1,75,-1
 7 -1 l 1,76,-1
 4 -1 l 1,77,-1
 4 0 l 1,78,-1
 4 1 l 1,79,-1
 5 1 l 1,80,-1
 5 0 l 1,81,-1
 7 0 l 1,82,-1
 7 2 l 1,83,-1
 6 2 l 1,84,-1
 6 3 l 1,85,-1
 7 3 l 1,86,-1
 7 4 l 1,68,-1
5 1 m 1,87,-1
 5 2 l 1,88,-1
 6 2 l 1,89,-1
 6 1 l 1,90,-1
 5 1 l 1,87,-1
EndSplineSet
EndChar

StartChar: questiondown
Encoding: 191 191 159
Width: 9
GlyphClass: 1
Flags: W
LayerCount: 2
Fore
SplineSet
6 0 m 1,0,-1
 3 0 l 1,1,-1
 3 1 l 1,2,-1
 6 1 l 1,3,-1
 6 0 l 1,0,-1
3 1 m 1,4,-1
 2 1 l 1,5,-1
 2 2 l 1,6,-1
 3 2 l 1,7,-1
 3 1 l 1,4,-1
2 2 m 1,8,-1
 1 2 l 1,9,-1
 1 3 l 1,10,-1
 2 3 l 1,11,-1
 2 2 l 1,8,-1
2 3 m 1,12,-1
 2 4 l 1,13,-1
 3 4 l 1,14,-1
 3 3 l 1,15,-1
 2 3 l 1,12,-1
3 4 m 1,16,-1
 3 5 l 1,17,-1
 4 5 l 1,18,-1
 4 4 l 1,19,-1
 3 4 l 1,16,-1
6 1 m 1,20,-1
 6 2 l 1,21,-1
 7 2 l 1,22,-1
 7 1 l 1,23,-1
 6 1 l 1,20,-1
7 2 m 1,24,-1
 7 3 l 1,25,-1
 8 3 l 1,26,-1
 8 2 l 1,27,-1
 7 2 l 1,24,-1
5 8 m 1,28,-1
 5 10 l 1,29,-1
 5 11 l 1,30,-1
 4 11 l 1,31,-1
 4 10 l 1,32,-1
 4 8 l 1,33,-1
 5 8 l 1,28,-1
EndSplineSet
EndChar

StartChar: Agrave
Encoding: 192 192 160
Width: 9
GlyphClass: 1
Flags: W
LayerCount: 2
Fore
SplineSet
3 13 m 1,0,-1
 3 12 l 1,1,-1
 4 12 l 1,2,-1
 4 13 l 1,3,-1
 3 13 l 1,0,-1
4 12 m 1,4,-1
 5 12 l 1,5,-1
 6 12 l 1,6,-1
 6 11 l 1,7,-1
 5 11 l 1,8,-1
 4 11 l 1,9,-1
 4 12 l 1,4,-1
3 10 m 1,10,-1
 3 9 l 1,11,-1
 6 9 l 1,12,-1
 6 10 l 1,13,-1
 3 10 l 1,10,-1
6 9 m 1,14,-1
 7 9 l 1,15,-1
 7 8 l 1,16,-1
 6 8 l 1,17,-1
 6 9 l 1,14,-1
7 8 m 1,18,-1
 7 6 l 1,19,-1
 2 6 l 1,20,-1
 2 8 l 1,21,-1
 1 8 l 1,22,-1
 1 0 l 1,23,-1
 2 0 l 1,24,-1
 2 5 l 1,25,-1
 7 5 l 1,26,-1
 7 0 l 1,27,-1
 8 0 l 1,28,-1
 8 8 l 1,29,-1
 7 8 l 1,18,-1
2 8 m 1,30,-1
 2 9 l 1,31,-1
 3 9 l 1,32,-1
 3 8 l 1,33,-1
 2 8 l 1,30,-1
EndSplineSet
EndChar

StartChar: Aacute
Encoding: 193 193 161
Width: 9
GlyphClass: 1
Flags: W
LayerCount: 2
Fore
SplineSet
5 13 m 1,0,-1
 5 12 l 1,1,-1
 6 12 l 1,2,-1
 6 13 l 1,3,-1
 5 13 l 1,0,-1
5 12 m 1,4,-1
 5 11 l 1,5,-1
 4 11 l 1,6,-1
 3 11 l 1,7,-1
 3 12 l 1,8,-1
 4 12 l 1,9,-1
 5 12 l 1,4,-1
3 10 m 1,10,-1
 3 9 l 1,11,-1
 6 9 l 1,12,-1
 6 10 l 1,13,-1
 3 10 l 1,10,-1
6 9 m 1,14,-1
 7 9 l 1,15,-1
 7 8 l 1,16,-1
 6 8 l 1,17,-1
 6 9 l 1,14,-1
7 8 m 1,18,-1
 7 6 l 1,19,-1
 2 6 l 1,20,-1
 2 8 l 1,21,-1
 1 8 l 1,22,-1
 1 0 l 1,23,-1
 2 0 l 1,24,-1
 2 5 l 1,25,-1
 7 5 l 1,26,-1
 7 0 l 1,27,-1
 8 0 l 1,28,-1
 8 8 l 1,29,-1
 7 8 l 1,18,-1
2 8 m 1,30,-1
 2 9 l 1,31,-1
 3 9 l 1,32,-1
 3 8 l 1,33,-1
 2 8 l 1,30,-1
EndSplineSet
EndChar

StartChar: Acircumflex
Encoding: 194 194 162
Width: 9
GlyphClass: 1
Flags: W
LayerCount: 2
Fore
SplineSet
4 13 m 1,0,-1
 4 12 l 1,1,-1
 5 12 l 1,2,-1
 5 13 l 1,3,-1
 4 13 l 1,0,-1
5 12 m 1,4,-1
 6 12 l 1,5,-1
 6 11 l 1,6,-1
 5 11 l 1,7,-1
 5 12 l 1,4,-1
4 12 m 1,8,-1
 4 11 l 1,9,-1
 3 11 l 1,10,-1
 3 12 l 1,11,-1
 4 12 l 1,8,-1
3 10 m 1,12,-1
 3 9 l 1,13,-1
 6 9 l 1,14,-1
 6 10 l 1,15,-1
 3 10 l 1,12,-1
6 9 m 1,16,-1
 7 9 l 1,17,-1
 7 8 l 1,18,-1
 6 8 l 1,19,-1
 6 9 l 1,16,-1
7 8 m 1,20,-1
 7 6 l 1,21,-1
 2 6 l 1,22,-1
 2 8 l 1,23,-1
 1 8 l 1,24,-1
 1 0 l 1,25,-1
 2 0 l 1,26,-1
 2 5 l 1,27,-1
 7 5 l 1,28,-1
 7 0 l 1,29,-1
 8 0 l 1,30,-1
 8 8 l 1,31,-1
 7 8 l 1,20,-1
2 8 m 1,32,-1
 2 9 l 1,33,-1
 3 9 l 1,34,-1
 3 8 l 1,35,-1
 2 8 l 1,32,-1
EndSplineSet
EndChar

StartChar: Atilde
Encoding: 195 195 163
Width: 9
GlyphClass: 1
Flags: W
LayerCount: 2
Fore
SplineSet
2 13 m 1,0,-1
 2 12 l 1,1,-1
 3 12 l 1,2,-1
 4 12 l 1,3,-1
 4 13 l 1,4,-1
 3 13 l 1,5,-1
 2 13 l 1,0,-1
4 12 m 1,6,-1
 5 12 l 1,7,-1
 6 12 l 1,8,-1
 6 11 l 1,9,-1
 5 11 l 1,10,-1
 4 11 l 1,11,-1
 4 12 l 1,6,-1
6 12 m 1,12,-1
 7 12 l 1,13,-1
 7 13 l 1,14,-1
 6 13 l 1,15,-1
 6 12 l 1,12,-1
2 12 m 1,16,-1
 2 11 l 1,17,-1
 1 11 l 1,18,-1
 1 12 l 1,19,-1
 2 12 l 1,16,-1
3 10 m 1,20,-1
 3 9 l 1,21,-1
 6 9 l 1,22,-1
 6 10 l 1,23,-1
 3 10 l 1,20,-1
6 9 m 1,24,-1
 7 9 l 1,25,-1
 7 8 l 1,26,-1
 6 8 l 1,27,-1
 6 9 l 1,24,-1
7 8 m 1,28,-1
 7 6 l 1,29,-1
 2 6 l 1,30,-1
 2 8 l 1,31,-1
 1 8 l 1,32,-1
 1 0 l 1,33,-1
 2 0 l 1,34,-1
 2 5 l 1,35,-1
 7 5 l 1,36,-1
 7 0 l 1,37,-1
 8 0 l 1,38,-1
 8 8 l 1,39,-1
 7 8 l 1,28,-1
2 8 m 1,40,-1
 2 9 l 1,41,-1
 3 9 l 1,42,-1
 3 8 l 1,43,-1
 2 8 l 1,40,-1
EndSplineSet
EndChar

StartChar: Adieresis
Encoding: 196 196 164
Width: 9
GlyphClass: 1
Flags: W
LayerCount: 2
Fore
SplineSet
2 13 m 1,0,-1
 2 11 l 1,1,-1
 3 11 l 1,2,-1
 3 13 l 1,3,-1
 2 13 l 1,0,-1
6 13 m 1,4,-1
 6 11 l 1,5,-1
 7 11 l 1,6,-1
 7 13 l 1,7,-1
 6 13 l 1,4,-1
3 10 m 1,8,-1
 3 9 l 1,9,-1
 6 9 l 1,10,-1
 6 10 l 1,11,-1
 3 10 l 1,8,-1
6 9 m 1,12,-1
 7 9 l 1,13,-1
 7 8 l 1,14,-1
 6 8 l 1,15,-1
 6 9 l 1,12,-1
7 8 m 1,16,-1
 7 6 l 1,17,-1
 2 6 l 1,18,-1
 2 8 l 1,19,-1
 1 8 l 1,20,-1
 1 0 l 1,21,-1
 2 0 l 1,22,-1
 2 5 l 1,23,-1
 7 5 l 1,24,-1
 7 0 l 1,25,-1
 8 0 l 1,26,-1
 8 8 l 1,27,-1
 7 8 l 1,16,-1
2 8 m 1,28,-1
 2 9 l 1,29,-1
 3 9 l 1,30,-1
 3 8 l 1,31,-1
 2 8 l 1,28,-1
EndSplineSet
EndChar

StartChar: Aring
Encoding: 197 197 165
Width: 9
GlyphClass: 1
Flags: W
LayerCount: 2
Fore
SplineSet
4 13 m 1,0,-1
 4 12 l 1,1,-1
 5 12 l 1,2,-1
 5 13 l 1,3,-1
 4 13 l 1,0,-1
5 12 m 1,4,-1
 6 12 l 1,5,-1
 6 11 l 1,6,-1
 5 11 l 1,7,-1
 5 12 l 1,4,-1
5 11 m 1,8,-1
 5 10 l 1,9,-1
 6 10 l 1,10,-1
 6 9 l 1,11,-1
 3 9 l 1,12,-1
 3 10 l 1,13,-1
 4 10 l 1,14,-1
 4 11 l 1,15,-1
 5 11 l 1,8,-1
6 9 m 1,16,-1
 7 9 l 1,17,-1
 7 8 l 1,18,-1
 6 8 l 1,19,-1
 6 9 l 1,16,-1
7 8 m 1,20,-1
 7 6 l 1,21,-1
 2 6 l 1,22,-1
 2 8 l 1,23,-1
 1 8 l 1,24,-1
 1 0 l 1,25,-1
 2 0 l 1,26,-1
 2 5 l 1,27,-1
 7 5 l 1,28,-1
 7 0 l 1,29,-1
 8 0 l 1,30,-1
 8 8 l 1,31,-1
 7 8 l 1,20,-1
2 8 m 1,32,-1
 2 9 l 1,33,-1
 3 9 l 1,34,-1
 3 8 l 1,35,-1
 2 8 l 1,32,-1
4 11 m 1,36,-1
 3 11 l 1,37,-1
 3 12 l 1,38,-1
 4 12 l 1,39,-1
 4 11 l 1,36,-1
EndSplineSet
EndChar

StartChar: AE
Encoding: 198 198 166
Width: 9
GlyphClass: 1
Flags: W
LayerCount: 2
Fore
SplineSet
3 10 m 1,0,-1
 3 9 l 1,1,-1
 4 9 l 1,2,-1
 4 6 l 1,3,-1
 2 6 l 1,4,-1
 2 8 l 1,5,-1
 1 8 l 1,6,-1
 1 0 l 1,7,-1
 2 0 l 1,8,-1
 2 5 l 1,9,-1
 4 5 l 1,10,-1
 4 0 l 1,11,-1
 5 0 l 1,12,-1
 8 0 l 1,13,-1
 8 1 l 1,14,-1
 5 1 l 1,15,-1
 5 5 l 1,16,-1
 8 5 l 1,17,-1
 8 6 l 1,18,-1
 5 6 l 1,19,-1
 5 9 l 1,20,-1
 8 9 l 1,21,-1
 8 10 l 1,22,-1
 5 10 l 1,23,-1
 4 10 l 1,24,-1
 3 10 l 1,0,-1
2 8 m 1,25,-1
 2 9 l 1,26,-1
 3 9 l 1,27,-1
 3 8 l 1,28,-1
 2 8 l 1,25,-1
EndSplineSet
EndChar

StartChar: Ccedilla
Encoding: 199 199 167
Width: 9
GlyphClass: 1
Flags: W
LayerCount: 2
Fore
SplineSet
3 10 m 1,0,-1
 3 9 l 1,1,-1
 7 9 l 1,2,-1
 7 10 l 1,3,-1
 3 10 l 1,0,-1
7 9 m 1,4,-1
 8 9 l 1,5,-1
 8 8 l 1,6,-1
 7 8 l 1,7,-1
 7 9 l 1,4,-1
3 9 m 1,8,-1
 3 8 l 1,9,-1
 2 8 l 1,10,-1
 2 9 l 1,11,-1
 3 9 l 1,8,-1
2 8 m 1,12,-1
 1 8 l 1,13,-1
 1 2 l 1,14,-1
 2 2 l 1,15,-1
 2 8 l 1,12,-1
2 2 m 1,16,-1
 3 2 l 1,17,-1
 3 1 l 1,18,-1
 2 1 l 1,19,-1
 2 2 l 1,16,-1
3 1 m 1,20,-1
 7 1 l 1,21,-1
 7 0 l 1,22,-1
 5 0 l 1,23,-1
 5 -1 l 1,24,-1
 4 -1 l 1,25,-1
 4 0 l 1,26,-1
 3 0 l 1,27,-1
 3 1 l 1,20,-1
7 1 m 1,28,-1
 7 2 l 1,29,-1
 8 2 l 1,30,-1
 8 1 l 1,31,-1
 7 1 l 1,28,-1
5 -1 m 1,32,-1
 6 -1 l 1,33,-1
 6 -2 l 1,34,-1
 5 -2 l 1,35,-1
 5 -1 l 1,32,-1
5 -2 m 1,36,-1
 5 -3 l 1,37,-1
 4 -3 l 1,38,-1
 4 -2 l 1,39,-1
 5 -2 l 1,36,-1
EndSplineSet
EndChar

StartChar: Egrave
Encoding: 200 200 168
Width: 9
GlyphClass: 1
Flags: W
LayerCount: 2
Fore
SplineSet
3 13 m 1,0,-1
 3 12 l 1,1,-1
 4 12 l 1,2,-1
 4 13 l 1,3,-1
 3 13 l 1,0,-1
4 12 m 1,4,-1
 5 12 l 1,5,-1
 6 12 l 1,6,-1
 6 11 l 1,7,-1
 5 11 l 1,8,-1
 4 11 l 1,9,-1
 4 12 l 1,4,-1
1 10 m 1,10,-1
 1 0 l 1,11,-1
 2 0 l 1,12,-1
 8 0 l 1,13,-1
 8 1 l 1,14,-1
 2 1 l 1,15,-1
 2 5 l 1,16,-1
 7 5 l 1,17,-1
 7 6 l 1,18,-1
 2 6 l 1,19,-1
 2 9 l 1,20,-1
 8 9 l 1,21,-1
 8 10 l 1,22,-1
 2 10 l 1,23,-1
 1 10 l 1,10,-1
EndSplineSet
EndChar

StartChar: Eacute
Encoding: 201 201 169
Width: 9
GlyphClass: 1
Flags: W
LayerCount: 2
Fore
SplineSet
5 13 m 1,0,-1
 5 12 l 1,1,-1
 6 12 l 1,2,-1
 6 13 l 1,3,-1
 5 13 l 1,0,-1
5 12 m 1,4,-1
 5 11 l 1,5,-1
 4 11 l 1,6,-1
 3 11 l 1,7,-1
 3 12 l 1,8,-1
 4 12 l 1,9,-1
 5 12 l 1,4,-1
1 10 m 1,10,-1
 1 0 l 1,11,-1
 2 0 l 1,12,-1
 8 0 l 1,13,-1
 8 1 l 1,14,-1
 2 1 l 1,15,-1
 2 5 l 1,16,-1
 7 5 l 1,17,-1
 7 6 l 1,18,-1
 2 6 l 1,19,-1
 2 9 l 1,20,-1
 8 9 l 1,21,-1
 8 10 l 1,22,-1
 2 10 l 1,23,-1
 1 10 l 1,10,-1
EndSplineSet
EndChar

StartChar: Ecircumflex
Encoding: 202 202 170
Width: 9
GlyphClass: 1
Flags: W
LayerCount: 2
Fore
SplineSet
4 13 m 1,0,-1
 4 12 l 1,1,-1
 5 12 l 1,2,-1
 5 13 l 1,3,-1
 4 13 l 1,0,-1
5 12 m 1,4,-1
 6 12 l 1,5,-1
 6 11 l 1,6,-1
 5 11 l 1,7,-1
 5 12 l 1,4,-1
4 12 m 1,8,-1
 4 11 l 1,9,-1
 3 11 l 1,10,-1
 3 12 l 1,11,-1
 4 12 l 1,8,-1
1 10 m 1,12,-1
 1 0 l 1,13,-1
 2 0 l 1,14,-1
 8 0 l 1,15,-1
 8 1 l 1,16,-1
 2 1 l 1,17,-1
 2 5 l 1,18,-1
 7 5 l 1,19,-1
 7 6 l 1,20,-1
 2 6 l 1,21,-1
 2 9 l 1,22,-1
 8 9 l 1,23,-1
 8 10 l 1,24,-1
 2 10 l 1,25,-1
 1 10 l 1,12,-1
EndSplineSet
EndChar

StartChar: Edieresis
Encoding: 203 203 171
Width: 9
GlyphClass: 1
Flags: W
LayerCount: 2
Fore
SplineSet
2 13 m 1,0,-1
 2 11 l 1,1,-1
 3 11 l 1,2,-1
 3 13 l 1,3,-1
 2 13 l 1,0,-1
6 13 m 1,4,-1
 6 11 l 1,5,-1
 7 11 l 1,6,-1
 7 13 l 1,7,-1
 6 13 l 1,4,-1
1 10 m 1,8,-1
 1 0 l 1,9,-1
 2 0 l 1,10,-1
 8 0 l 1,11,-1
 8 1 l 1,12,-1
 2 1 l 1,13,-1
 2 5 l 1,14,-1
 7 5 l 1,15,-1
 7 6 l 1,16,-1
 2 6 l 1,17,-1
 2 9 l 1,18,-1
 8 9 l 1,19,-1
 8 10 l 1,20,-1
 2 10 l 1,21,-1
 1 10 l 1,8,-1
EndSplineSet
EndChar

StartChar: Igrave
Encoding: 204 204 172
Width: 9
GlyphClass: 1
Flags: W
LayerCount: 2
Fore
SplineSet
3 13 m 1,0,-1
 3 12 l 1,1,-1
 4 12 l 1,2,-1
 4 13 l 1,3,-1
 3 13 l 1,0,-1
4 12 m 1,4,-1
 5 12 l 1,5,-1
 6 12 l 1,6,-1
 6 11 l 1,7,-1
 5 11 l 1,8,-1
 4 11 l 1,9,-1
 4 12 l 1,4,-1
1 10 m 1,10,-1
 1 9 l 1,11,-1
 4 9 l 1,12,-1
 4 1 l 1,13,-1
 1 1 l 1,14,-1
 1 0 l 1,15,-1
 4 0 l 1,16,-1
 5 0 l 1,17,-1
 8 0 l 1,18,-1
 8 1 l 1,19,-1
 5 1 l 1,20,-1
 5 9 l 1,21,-1
 8 9 l 1,22,-1
 8 10 l 1,23,-1
 5 10 l 1,24,-1
 4 10 l 1,25,-1
 1 10 l 1,10,-1
EndSplineSet
EndChar

StartChar: Iacute
Encoding: 205 205 173
Width: 9
GlyphClass: 1
Flags: W
LayerCount: 2
Fore
SplineSet
1 10 m 1,0,-1
 1 9 l 1,1,-1
 4 9 l 1,2,-1
 4 1 l 1,3,-1
 1 1 l 1,4,-1
 1 0 l 1,5,-1
 4 0 l 1,6,-1
 5 0 l 1,7,-1
 8 0 l 1,8,-1
 8 1 l 1,9,-1
 5 1 l 1,10,-1
 5 9 l 1,11,-1
 8 9 l 1,12,-1
 8 10 l 1,13,-1
 5 10 l 1,14,-1
 4 10 l 1,15,-1
 1 10 l 1,0,-1
5 13 m 1,16,-1
 5 12 l 1,17,-1
 6 12 l 1,18,-1
 6 13 l 1,19,-1
 5 13 l 1,16,-1
5 12 m 1,20,-1
 5 11 l 1,21,-1
 4 11 l 1,22,-1
 3 11 l 1,23,-1
 3 12 l 1,24,-1
 4 12 l 1,25,-1
 5 12 l 1,20,-1
EndSplineSet
EndChar

StartChar: Icircumflex
Encoding: 206 206 174
Width: 9
GlyphClass: 1
Flags: W
LayerCount: 2
Fore
SplineSet
4 13 m 1,0,-1
 4 12 l 1,1,-1
 5 12 l 1,2,-1
 5 13 l 1,3,-1
 4 13 l 1,0,-1
5 12 m 1,4,-1
 6 12 l 1,5,-1
 6 11 l 1,6,-1
 5 11 l 1,7,-1
 5 12 l 1,4,-1
4 12 m 1,8,-1
 4 11 l 1,9,-1
 3 11 l 1,10,-1
 3 12 l 1,11,-1
 4 12 l 1,8,-1
1 10 m 1,12,-1
 1 9 l 1,13,-1
 4 9 l 1,14,-1
 4 1 l 1,15,-1
 1 1 l 1,16,-1
 1 0 l 1,17,-1
 4 0 l 1,18,-1
 5 0 l 1,19,-1
 8 0 l 1,20,-1
 8 1 l 1,21,-1
 5 1 l 1,22,-1
 5 9 l 1,23,-1
 8 9 l 1,24,-1
 8 10 l 1,25,-1
 5 10 l 1,26,-1
 4 10 l 1,27,-1
 1 10 l 1,12,-1
EndSplineSet
EndChar

StartChar: Idieresis
Encoding: 207 207 175
Width: 9
GlyphClass: 1
Flags: W
LayerCount: 2
Fore
SplineSet
2 13 m 1,0,-1
 2 11 l 1,1,-1
 3 11 l 1,2,-1
 3 13 l 1,3,-1
 2 13 l 1,0,-1
6 13 m 1,4,-1
 6 11 l 1,5,-1
 7 11 l 1,6,-1
 7 13 l 1,7,-1
 6 13 l 1,4,-1
1 10 m 1,8,-1
 1 9 l 1,9,-1
 4 9 l 1,10,-1
 4 1 l 1,11,-1
 1 1 l 1,12,-1
 1 0 l 1,13,-1
 4 0 l 1,14,-1
 5 0 l 1,15,-1
 8 0 l 1,16,-1
 8 1 l 1,17,-1
 5 1 l 1,18,-1
 5 9 l 1,19,-1
 8 9 l 1,20,-1
 8 10 l 1,21,-1
 5 10 l 1,22,-1
 4 10 l 1,23,-1
 1 10 l 1,8,-1
EndSplineSet
EndChar

StartChar: Eth
Encoding: 208 208 176
Width: 9
GlyphClass: 1
Flags: W
LayerCount: 2
Fore
SplineSet
1 10 m 1,0,-1
 1 6 l 1,1,-1
 0 6 l 1,2,-1
 0 5 l 1,3,-1
 1 5 l 1,4,-1
 1 0 l 1,5,-1
 2 0 l 1,6,-1
 6 0 l 1,7,-1
 6 1 l 1,8,-1
 2 1 l 1,9,-1
 2 5 l 1,10,-1
 5 5 l 1,11,-1
 5 6 l 1,12,-1
 2 6 l 1,13,-1
 2 9 l 1,14,-1
 6 9 l 1,15,-1
 6 10 l 1,16,-1
 2 10 l 1,17,-1
 1 10 l 1,0,-1
6 9 m 1,18,-1
 7 9 l 1,19,-1
 7 8 l 1,20,-1
 6 8 l 1,21,-1
 6 9 l 1,18,-1
7 8 m 1,22,-1
 7 2 l 1,23,-1
 8 2 l 1,24,-1
 8 8 l 1,25,-1
 7 8 l 1,22,-1
7 2 m 1,26,-1
 7 1 l 1,27,-1
 6 1 l 1,28,-1
 6 2 l 1,29,-1
 7 2 l 1,26,-1
EndSplineSet
EndChar

StartChar: Ntilde
Encoding: 209 209 177
Width: 9
GlyphClass: 1
Flags: W
LayerCount: 2
Fore
SplineSet
2 13 m 1,0,-1
 2 12 l 1,1,-1
 3 12 l 1,2,-1
 4 12 l 1,3,-1
 4 13 l 1,4,-1
 3 13 l 1,5,-1
 2 13 l 1,0,-1
4 12 m 1,6,-1
 5 12 l 1,7,-1
 6 12 l 1,8,-1
 6 11 l 1,9,-1
 5 11 l 1,10,-1
 4 11 l 1,11,-1
 4 12 l 1,6,-1
6 12 m 1,12,-1
 7 12 l 1,13,-1
 7 13 l 1,14,-1
 6 13 l 1,15,-1
 6 12 l 1,12,-1
2 12 m 1,16,-1
 2 11 l 1,17,-1
 1 11 l 1,18,-1
 1 12 l 1,19,-1
 2 12 l 1,16,-1
1 10 m 1,20,-1
 1 0 l 1,21,-1
 2 0 l 1,22,-1
 2 8 l 1,23,-1
 3 8 l 1,24,-1
 3 9 l 1,25,-1
 2 9 l 1,26,-1
 2 10 l 1,27,-1
 1 10 l 1,20,-1
3 8 m 1,28,-1
 4 8 l 1,29,-1
 4 7 l 1,30,-1
 3 7 l 1,31,-1
 3 8 l 1,28,-1
4 7 m 1,32,-1
 5 7 l 1,33,-1
 5 6 l 1,34,-1
 4 6 l 1,35,-1
 4 7 l 1,32,-1
5 6 m 1,36,-1
 6 6 l 1,37,-1
 6 5 l 1,38,-1
 5 5 l 1,39,-1
 5 6 l 1,36,-1
6 5 m 1,40,-1
 6 4 l 1,41,-1
 7 4 l 1,42,-1
 7 0 l 1,43,-1
 8 0 l 1,44,-1
 8 10 l 1,45,-1
 7 10 l 1,46,-1
 7 5 l 1,47,-1
 6 5 l 1,40,-1
EndSplineSet
EndChar

StartChar: Ograve
Encoding: 210 210 178
Width: 9
GlyphClass: 1
Flags: W
LayerCount: 2
Fore
SplineSet
3 13 m 1,0,-1
 3 12 l 1,1,-1
 4 12 l 1,2,-1
 4 13 l 1,3,-1
 3 13 l 1,0,-1
4 12 m 1,4,-1
 5 12 l 1,5,-1
 6 12 l 1,6,-1
 6 11 l 1,7,-1
 5 11 l 1,8,-1
 4 11 l 1,9,-1
 4 12 l 1,4,-1
3 10 m 1,10,-1
 3 9 l 1,11,-1
 6 9 l 1,12,-1
 6 10 l 1,13,-1
 3 10 l 1,10,-1
6 9 m 1,14,-1
 7 9 l 1,15,-1
 7 8 l 1,16,-1
 6 8 l 1,17,-1
 6 9 l 1,14,-1
7 8 m 1,18,-1
 7 2 l 1,19,-1
 8 2 l 1,20,-1
 8 8 l 1,21,-1
 7 8 l 1,18,-1
7 2 m 1,22,-1
 7 1 l 1,23,-1
 6 1 l 1,24,-1
 6 2 l 1,25,-1
 7 2 l 1,22,-1
6 1 m 1,26,-1
 6 0 l 1,27,-1
 3 0 l 1,28,-1
 3 1 l 1,29,-1
 6 1 l 1,26,-1
3 1 m 1,30,-1
 2 1 l 1,31,-1
 2 2 l 1,32,-1
 3 2 l 1,33,-1
 3 1 l 1,30,-1
2 2 m 1,34,-1
 2 8 l 1,35,-1
 1 8 l 1,36,-1
 1 2 l 1,37,-1
 2 2 l 1,34,-1
2 8 m 1,38,-1
 2 9 l 1,39,-1
 3 9 l 1,40,-1
 3 8 l 1,41,-1
 2 8 l 1,38,-1
EndSplineSet
EndChar

StartChar: Oacute
Encoding: 211 211 179
Width: 9
GlyphClass: 1
Flags: W
LayerCount: 2
Fore
SplineSet
5 13 m 1,0,-1
 5 12 l 1,1,-1
 6 12 l 1,2,-1
 6 13 l 1,3,-1
 5 13 l 1,0,-1
5 12 m 1,4,-1
 5 11 l 1,5,-1
 4 11 l 1,6,-1
 3 11 l 1,7,-1
 3 12 l 1,8,-1
 4 12 l 1,9,-1
 5 12 l 1,4,-1
3 10 m 1,10,-1
 3 9 l 1,11,-1
 6 9 l 1,12,-1
 6 10 l 1,13,-1
 3 10 l 1,10,-1
6 9 m 1,14,-1
 7 9 l 1,15,-1
 7 8 l 1,16,-1
 6 8 l 1,17,-1
 6 9 l 1,14,-1
7 8 m 1,18,-1
 7 2 l 1,19,-1
 8 2 l 1,20,-1
 8 8 l 1,21,-1
 7 8 l 1,18,-1
7 2 m 1,22,-1
 7 1 l 1,23,-1
 6 1 l 1,24,-1
 6 2 l 1,25,-1
 7 2 l 1,22,-1
6 1 m 1,26,-1
 6 0 l 1,27,-1
 3 0 l 1,28,-1
 3 1 l 1,29,-1
 6 1 l 1,26,-1
3 1 m 1,30,-1
 2 1 l 1,31,-1
 2 2 l 1,32,-1
 3 2 l 1,33,-1
 3 1 l 1,30,-1
2 2 m 1,34,-1
 2 8 l 1,35,-1
 1 8 l 1,36,-1
 1 2 l 1,37,-1
 2 2 l 1,34,-1
2 8 m 1,38,-1
 2 9 l 1,39,-1
 3 9 l 1,40,-1
 3 8 l 1,41,-1
 2 8 l 1,38,-1
EndSplineSet
EndChar

StartChar: Ocircumflex
Encoding: 212 212 180
Width: 9
GlyphClass: 1
Flags: W
LayerCount: 2
Fore
SplineSet
4 13 m 1,0,-1
 4 12 l 1,1,-1
 5 12 l 1,2,-1
 5 13 l 1,3,-1
 4 13 l 1,0,-1
5 12 m 1,4,-1
 6 12 l 1,5,-1
 6 11 l 1,6,-1
 5 11 l 1,7,-1
 5 12 l 1,4,-1
4 12 m 1,8,-1
 4 11 l 1,9,-1
 3 11 l 1,10,-1
 3 12 l 1,11,-1
 4 12 l 1,8,-1
3 10 m 1,12,-1
 3 9 l 1,13,-1
 6 9 l 1,14,-1
 6 10 l 1,15,-1
 3 10 l 1,12,-1
6 9 m 1,16,-1
 7 9 l 1,17,-1
 7 8 l 1,18,-1
 6 8 l 1,19,-1
 6 9 l 1,16,-1
7 8 m 1,20,-1
 7 2 l 1,21,-1
 8 2 l 1,22,-1
 8 8 l 1,23,-1
 7 8 l 1,20,-1
7 2 m 1,24,-1
 7 1 l 1,25,-1
 6 1 l 1,26,-1
 6 2 l 1,27,-1
 7 2 l 1,24,-1
6 1 m 1,28,-1
 6 0 l 1,29,-1
 3 0 l 1,30,-1
 3 1 l 1,31,-1
 6 1 l 1,28,-1
3 1 m 1,32,-1
 2 1 l 1,33,-1
 2 2 l 1,34,-1
 3 2 l 1,35,-1
 3 1 l 1,32,-1
2 2 m 1,36,-1
 2 8 l 1,37,-1
 1 8 l 1,38,-1
 1 2 l 1,39,-1
 2 2 l 1,36,-1
2 8 m 1,40,-1
 2 9 l 1,41,-1
 3 9 l 1,42,-1
 3 8 l 1,43,-1
 2 8 l 1,40,-1
EndSplineSet
EndChar

StartChar: Otilde
Encoding: 213 213 181
Width: 9
GlyphClass: 1
Flags: W
LayerCount: 2
Fore
SplineSet
2 13 m 1,0,-1
 2 12 l 1,1,-1
 3 12 l 1,2,-1
 4 12 l 1,3,-1
 4 13 l 1,4,-1
 3 13 l 1,5,-1
 2 13 l 1,0,-1
4 12 m 1,6,-1
 5 12 l 1,7,-1
 6 12 l 1,8,-1
 6 11 l 1,9,-1
 5 11 l 1,10,-1
 4 11 l 1,11,-1
 4 12 l 1,6,-1
6 12 m 1,12,-1
 7 12 l 1,13,-1
 7 13 l 1,14,-1
 6 13 l 1,15,-1
 6 12 l 1,12,-1
2 12 m 1,16,-1
 2 11 l 1,17,-1
 1 11 l 1,18,-1
 1 12 l 1,19,-1
 2 12 l 1,16,-1
3 10 m 1,20,-1
 3 9 l 1,21,-1
 6 9 l 1,22,-1
 6 10 l 1,23,-1
 3 10 l 1,20,-1
6 9 m 1,24,-1
 7 9 l 1,25,-1
 7 8 l 1,26,-1
 6 8 l 1,27,-1
 6 9 l 1,24,-1
7 8 m 1,28,-1
 7 2 l 1,29,-1
 8 2 l 1,30,-1
 8 8 l 1,31,-1
 7 8 l 1,28,-1
7 2 m 1,32,-1
 7 1 l 1,33,-1
 6 1 l 1,34,-1
 6 2 l 1,35,-1
 7 2 l 1,32,-1
6 1 m 1,36,-1
 6 0 l 1,37,-1
 3 0 l 1,38,-1
 3 1 l 1,39,-1
 6 1 l 1,36,-1
3 1 m 1,40,-1
 2 1 l 1,41,-1
 2 2 l 1,42,-1
 3 2 l 1,43,-1
 3 1 l 1,40,-1
2 2 m 1,44,-1
 2 8 l 1,45,-1
 1 8 l 1,46,-1
 1 2 l 1,47,-1
 2 2 l 1,44,-1
2 8 m 1,48,-1
 2 9 l 1,49,-1
 3 9 l 1,50,-1
 3 8 l 1,51,-1
 2 8 l 1,48,-1
EndSplineSet
EndChar

StartChar: Odieresis
Encoding: 214 214 182
Width: 9
GlyphClass: 1
Flags: W
LayerCount: 2
Fore
SplineSet
2 13 m 1,0,-1
 2 11 l 1,1,-1
 3 11 l 1,2,-1
 3 13 l 1,3,-1
 2 13 l 1,0,-1
6 13 m 1,4,-1
 6 11 l 1,5,-1
 7 11 l 1,6,-1
 7 13 l 1,7,-1
 6 13 l 1,4,-1
3 10 m 1,8,-1
 3 9 l 1,9,-1
 6 9 l 1,10,-1
 6 10 l 1,11,-1
 3 10 l 1,8,-1
6 9 m 1,12,-1
 7 9 l 1,13,-1
 7 8 l 1,14,-1
 6 8 l 1,15,-1
 6 9 l 1,12,-1
7 8 m 1,16,-1
 7 2 l 1,17,-1
 8 2 l 1,18,-1
 8 8 l 1,19,-1
 7 8 l 1,16,-1
7 2 m 1,20,-1
 7 1 l 1,21,-1
 6 1 l 1,22,-1
 6 2 l 1,23,-1
 7 2 l 1,20,-1
6 1 m 1,24,-1
 6 0 l 1,25,-1
 3 0 l 1,26,-1
 3 1 l 1,27,-1
 6 1 l 1,24,-1
3 1 m 1,28,-1
 2 1 l 1,29,-1
 2 2 l 1,30,-1
 3 2 l 1,31,-1
 3 1 l 1,28,-1
2 2 m 1,32,-1
 2 8 l 1,33,-1
 1 8 l 1,34,-1
 1 2 l 1,35,-1
 2 2 l 1,32,-1
2 8 m 1,36,-1
 2 9 l 1,37,-1
 3 9 l 1,38,-1
 3 8 l 1,39,-1
 2 8 l 1,36,-1
EndSplineSet
EndChar

StartChar: multiply
Encoding: 215 215 183
Width: 9
GlyphClass: 1
Flags: W
LayerCount: 2
Fore
SplineSet
0 10 m 1,0,-1
 0 9 l 1,1,-1
 1 9 l 1,2,-1
 1 10 l 1,3,-1
 0 10 l 1,0,-1
1 9 m 1,4,-1
 2 9 l 1,5,-1
 2 8 l 1,6,-1
 1 8 l 1,7,-1
 1 9 l 1,4,-1
2 8 m 1,8,-1
 3 8 l 1,9,-1
 3 7 l 1,10,-1
 2 7 l 1,11,-1
 2 8 l 1,8,-1
3 7 m 1,12,-1
 4 7 l 1,13,-1
 4 6 l 1,14,-1
 3 6 l 1,15,-1
 3 7 l 1,12,-1
4 6 m 1,16,-1
 5 6 l 1,17,-1
 5 5 l 1,18,-1
 5 4 l 1,19,-1
 4 4 l 1,20,-1
 4 5 l 1,21,-1
 4 6 l 1,16,-1
5 6 m 1,22,-1
 5 7 l 1,23,-1
 6 7 l 1,24,-1
 6 6 l 1,25,-1
 5 6 l 1,22,-1
6 7 m 1,26,-1
 6 8 l 1,27,-1
 7 8 l 1,28,-1
 7 7 l 1,29,-1
 6 7 l 1,26,-1
7 8 m 1,30,-1
 7 9 l 1,31,-1
 8 9 l 1,32,-1
 8 8 l 1,33,-1
 7 8 l 1,30,-1
8 9 m 1,34,-1
 9 9 l 1,35,-1
 9 10 l 1,36,-1
 8 10 l 1,37,-1
 8 9 l 1,34,-1
5 4 m 1,38,-1
 6 4 l 1,39,-1
 6 3 l 1,40,-1
 5 3 l 1,41,-1
 5 4 l 1,38,-1
6 3 m 1,42,-1
 7 3 l 1,43,-1
 7 2 l 1,44,-1
 6 2 l 1,45,-1
 6 3 l 1,42,-1
7 2 m 1,46,-1
 8 2 l 1,47,-1
 8 1 l 1,48,-1
 7 1 l 1,49,-1
 7 2 l 1,46,-1
8 1 m 1,50,-1
 9 1 l 1,51,-1
 9 0 l 1,52,-1
 8 0 l 1,53,-1
 8 1 l 1,50,-1
4 4 m 1,54,-1
 4 3 l 1,55,-1
 3 3 l 1,56,-1
 3 4 l 1,57,-1
 4 4 l 1,54,-1
3 3 m 1,58,-1
 3 2 l 1,59,-1
 2 2 l 1,60,-1
 2 3 l 1,61,-1
 3 3 l 1,58,-1
2 2 m 1,62,-1
 2 1 l 1,63,-1
 1 1 l 1,64,-1
 1 2 l 1,65,-1
 2 2 l 1,62,-1
1 1 m 1,66,-1
 1 0 l 1,67,-1
 0 0 l 1,68,-1
 0 1 l 1,69,-1
 1 1 l 1,66,-1
EndSplineSet
EndChar

StartChar: Oslash
Encoding: 216 216 184
Width: 9
GlyphClass: 1
Flags: W
LayerCount: 2
Fore
SplineSet
8 14 m 1,0,-1
 8 12 l 1,1,-1
 9 12 l 1,2,-1
 9 14 l 1,3,-1
 8 14 l 1,0,-1
8 12 m 1,4,-1
 7 12 l 1,5,-1
 7 10 l 1,6,-1
 8 10 l 1,7,-1
 8 12 l 1,4,-1
7 10 m 1,8,-1
 6 10 l 1,9,-1
 3 10 l 1,10,-1
 3 9 l 1,11,-1
 6 9 l 1,12,-1
 6 8 l 1,13,-1
 7 8 l 1,14,-1
 7 2 l 1,15,-1
 8 2 l 1,16,-1
 8 8 l 1,17,-1
 7 8 l 1,18,-1
 7 9 l 1,19,-1
 7 10 l 1,8,-1
7 2 m 1,20,-1
 7 1 l 1,21,-1
 6 1 l 1,22,-1
 6 2 l 1,23,-1
 7 2 l 1,20,-1
6 1 m 1,24,-1
 6 0 l 1,25,-1
 3 0 l 1,26,-1
 2 0 l 1,27,-1
 2 1 l 1,28,-1
 2 2 l 1,29,-1
 3 2 l 1,30,-1
 3 1 l 1,31,-1
 6 1 l 1,24,-1
2 0 m 1,32,-1
 1 0 l 1,33,-1
 1 -2 l 1,34,-1
 2 -2 l 1,35,-1
 2 0 l 1,32,-1
1 -2 m 1,36,-1
 0 -2 l 1,37,-1
 0 -4 l 1,38,-1
 1 -4 l 1,39,-1
 1 -2 l 1,36,-1
2 2 m 1,40,-1
 2 8 l 1,41,-1
 1 8 l 1,42,-1
 1 2 l 1,43,-1
 2 2 l 1,40,-1
2 8 m 1,44,-1
 2 9 l 1,45,-1
 3 9 l 1,46,-1
 3 8 l 1,47,-1
 2 8 l 1,44,-1
3 2 m 1,48,-1
 4 2 l 1,49,-1
 4 4 l 1,50,-1
 3 4 l 1,51,-1
 3 2 l 1,48,-1
4 4 m 1,52,-1
 4 6 l 1,53,-1
 5 6 l 1,54,-1
 5 4 l 1,55,-1
 4 4 l 1,52,-1
5 6 m 1,56,-1
 6 6 l 1,57,-1
 6 8 l 1,58,-1
 5 8 l 1,59,-1
 5 6 l 1,56,-1
EndSplineSet
EndChar

StartChar: Ugrave
Encoding: 217 217 185
Width: 9
GlyphClass: 1
Flags: W
LayerCount: 2
Fore
SplineSet
3 13 m 1,0,-1
 3 12 l 1,1,-1
 4 12 l 1,2,-1
 4 13 l 1,3,-1
 3 13 l 1,0,-1
4 12 m 1,4,-1
 5 12 l 1,5,-1
 6 12 l 1,6,-1
 6 11 l 1,7,-1
 5 11 l 1,8,-1
 4 11 l 1,9,-1
 4 12 l 1,4,-1
1 10 m 1,10,-1
 1 2 l 1,11,-1
 2 2 l 1,12,-1
 2 10 l 1,13,-1
 1 10 l 1,10,-1
2 2 m 1,14,-1
 3 2 l 1,15,-1
 3 1 l 1,16,-1
 2 1 l 1,17,-1
 2 2 l 1,14,-1
3 1 m 1,18,-1
 6 1 l 1,19,-1
 6 0 l 1,20,-1
 3 0 l 1,21,-1
 3 1 l 1,18,-1
6 1 m 1,22,-1
 6 2 l 1,23,-1
 7 2 l 1,24,-1
 7 1 l 1,25,-1
 6 1 l 1,22,-1
7 2 m 1,26,-1
 8 2 l 1,27,-1
 8 10 l 1,28,-1
 7 10 l 1,29,-1
 7 2 l 1,26,-1
EndSplineSet
EndChar

StartChar: Uacute
Encoding: 218 218 186
Width: 9
GlyphClass: 1
Flags: W
LayerCount: 2
Fore
SplineSet
5 13 m 1,0,-1
 5 12 l 1,1,-1
 6 12 l 1,2,-1
 6 13 l 1,3,-1
 5 13 l 1,0,-1
5 12 m 1,4,-1
 5 11 l 1,5,-1
 4 11 l 1,6,-1
 3 11 l 1,7,-1
 3 12 l 1,8,-1
 4 12 l 1,9,-1
 5 12 l 1,4,-1
1 10 m 1,10,-1
 1 2 l 1,11,-1
 2 2 l 1,12,-1
 2 10 l 1,13,-1
 1 10 l 1,10,-1
2 2 m 1,14,-1
 3 2 l 1,15,-1
 3 1 l 1,16,-1
 2 1 l 1,17,-1
 2 2 l 1,14,-1
3 1 m 1,18,-1
 6 1 l 1,19,-1
 6 0 l 1,20,-1
 3 0 l 1,21,-1
 3 1 l 1,18,-1
6 1 m 1,22,-1
 6 2 l 1,23,-1
 7 2 l 1,24,-1
 7 1 l 1,25,-1
 6 1 l 1,22,-1
7 2 m 1,26,-1
 8 2 l 1,27,-1
 8 10 l 1,28,-1
 7 10 l 1,29,-1
 7 2 l 1,26,-1
EndSplineSet
EndChar

StartChar: Ucircumflex
Encoding: 219 219 187
Width: 9
GlyphClass: 1
Flags: W
LayerCount: 2
Fore
SplineSet
4 13 m 1,0,-1
 4 12 l 1,1,-1
 5 12 l 1,2,-1
 5 13 l 1,3,-1
 4 13 l 1,0,-1
5 12 m 1,4,-1
 6 12 l 1,5,-1
 6 11 l 1,6,-1
 5 11 l 1,7,-1
 5 12 l 1,4,-1
4 12 m 1,8,-1
 4 11 l 1,9,-1
 3 11 l 1,10,-1
 3 12 l 1,11,-1
 4 12 l 1,8,-1
1 10 m 1,12,-1
 1 2 l 1,13,-1
 2 2 l 1,14,-1
 2 10 l 1,15,-1
 1 10 l 1,12,-1
2 2 m 1,16,-1
 3 2 l 1,17,-1
 3 1 l 1,18,-1
 2 1 l 1,19,-1
 2 2 l 1,16,-1
3 1 m 1,20,-1
 6 1 l 1,21,-1
 6 0 l 1,22,-1
 3 0 l 1,23,-1
 3 1 l 1,20,-1
6 1 m 1,24,-1
 6 2 l 1,25,-1
 7 2 l 1,26,-1
 7 1 l 1,27,-1
 6 1 l 1,24,-1
7 2 m 1,28,-1
 8 2 l 1,29,-1
 8 10 l 1,30,-1
 7 10 l 1,31,-1
 7 2 l 1,28,-1
EndSplineSet
EndChar

StartChar: Udieresis
Encoding: 220 220 188
Width: 9
GlyphClass: 1
Flags: W
LayerCount: 2
Fore
SplineSet
2 13 m 1,0,-1
 2 11 l 1,1,-1
 3 11 l 1,2,-1
 3 13 l 1,3,-1
 2 13 l 1,0,-1
6 13 m 1,4,-1
 6 11 l 1,5,-1
 7 11 l 1,6,-1
 7 13 l 1,7,-1
 6 13 l 1,4,-1
1 10 m 1,8,-1
 1 2 l 1,9,-1
 2 2 l 1,10,-1
 2 10 l 1,11,-1
 1 10 l 1,8,-1
2 2 m 1,12,-1
 3 2 l 1,13,-1
 3 1 l 1,14,-1
 2 1 l 1,15,-1
 2 2 l 1,12,-1
3 1 m 1,16,-1
 6 1 l 1,17,-1
 6 0 l 1,18,-1
 3 0 l 1,19,-1
 3 1 l 1,16,-1
6 1 m 1,20,-1
 6 2 l 1,21,-1
 7 2 l 1,22,-1
 7 1 l 1,23,-1
 6 1 l 1,20,-1
7 2 m 1,24,-1
 8 2 l 1,25,-1
 8 10 l 1,26,-1
 7 10 l 1,27,-1
 7 2 l 1,24,-1
EndSplineSet
EndChar

StartChar: Yacute
Encoding: 221 221 189
Width: 9
GlyphClass: 1
Flags: W
LayerCount: 2
Fore
SplineSet
5 13 m 1,0,-1
 5 12 l 1,1,-1
 6 12 l 1,2,-1
 6 13 l 1,3,-1
 5 13 l 1,0,-1
5 12 m 1,4,-1
 5 11 l 1,5,-1
 4 11 l 1,6,-1
 3 11 l 1,7,-1
 3 12 l 1,8,-1
 4 12 l 1,9,-1
 5 12 l 1,4,-1
1 10 m 1,10,-1
 1 8 l 1,11,-1
 2 8 l 1,12,-1
 2 10 l 1,13,-1
 1 10 l 1,10,-1
2 8 m 1,14,-1
 2 6 l 1,15,-1
 3 6 l 1,16,-1
 3 8 l 1,17,-1
 2 8 l 1,14,-1
3 6 m 1,18,-1
 4 6 l 1,19,-1
 4 5 l 1,20,-1
 3 5 l 1,21,-1
 3 6 l 1,18,-1
4 5 m 1,22,-1
 4 0 l 1,23,-1
 5 0 l 1,24,-1
 5 5 l 1,25,-1
 4 5 l 1,22,-1
5 5 m 1,26,-1
 5 6 l 1,27,-1
 6 6 l 1,28,-1
 6 5 l 1,29,-1
 5 5 l 1,26,-1
6 6 m 1,30,-1
 7 6 l 1,31,-1
 7 8 l 1,32,-1
 6 8 l 1,33,-1
 6 6 l 1,30,-1
7 8 m 1,34,-1
 8 8 l 1,35,-1
 8 10 l 1,36,-1
 7 10 l 1,37,-1
 7 8 l 1,34,-1
EndSplineSet
EndChar

StartChar: Thorn
Encoding: 222 222 190
Width: 9
GlyphClass: 1
Flags: W
LayerCount: 2
Fore
SplineSet
1 11 m 1,0,-1
 1 8 l 1,1,-1
 1 7 l 1,2,-1
 1 4 l 1,3,-1
 1 3 l 1,4,-1
 1 0 l 1,5,-1
 2 0 l 1,6,-1
 2 2 l 1,7,-1
 3 2 l 1,8,-1
 4 2 l 1,9,-1
 5 2 l 1,10,-1
 6 2 l 1,11,-1
 6 3 l 1,12,-1
 5 3 l 1,13,-1
 4 3 l 1,14,-1
 3 3 l 1,15,-1
 2 3 l 1,16,-1
 2 4 l 1,17,-1
 2 7 l 1,18,-1
 2 8 l 1,19,-1
 3 8 l 1,20,-1
 4 8 l 1,21,-1
 5 8 l 1,22,-1
 6 8 l 1,23,-1
 6 9 l 1,24,-1
 5 9 l 1,25,-1
 4 9 l 1,26,-1
 3 9 l 1,27,-1
 2 9 l 1,28,-1
 2 11 l 1,29,-1
 1 11 l 1,0,-1
6 8 m 1,30,-1
 7 8 l 1,31,-1
 7 7 l 1,32,-1
 6 7 l 1,33,-1
 6 8 l 1,30,-1
7 7 m 1,34,-1
 8 7 l 1,35,-1
 8 6 l 1,36,-1
 8 5 l 1,37,-1
 8 4 l 1,38,-1
 7 4 l 1,39,-1
 7 5 l 1,40,-1
 7 6 l 1,41,-1
 7 7 l 1,34,-1
7 4 m 1,42,-1
 7 3 l 1,43,-1
 6 3 l 1,44,-1
 6 4 l 1,45,-1
 7 4 l 1,42,-1
EndSplineSet
EndChar

StartChar: germandbls
Encoding: 223 223 191
Width: 9
GlyphClass: 1
Flags: W
LayerCount: 2
Fore
SplineSet
3 10 m 1,0,-1
 3 9 l 1,1,-1
 6 9 l 1,2,-1
 6 10 l 1,3,-1
 3 10 l 1,0,-1
6 9 m 1,4,-1
 7 9 l 1,5,-1
 7 8 l 1,6,-1
 6 8 l 1,7,-1
 6 9 l 1,4,-1
7 8 m 1,8,-1
 8 8 l 1,9,-1
 8 7 l 1,10,-1
 7 7 l 1,11,-1
 7 8 l 1,8,-1
7 7 m 1,12,-1
 7 6 l 1,13,-1
 6 6 l 1,14,-1
 6 7 l 1,15,-1
 7 7 l 1,12,-1
6 6 m 1,16,-1
 6 5 l 1,17,-1
 5 5 l 1,18,-1
 4 5 l 1,19,-1
 4 6 l 1,20,-1
 5 6 l 1,21,-1
 6 6 l 1,16,-1
6 5 m 1,22,-1
 7 5 l 1,23,-1
 7 4 l 1,24,-1
 6 4 l 1,25,-1
 6 5 l 1,22,-1
7 4 m 1,26,-1
 8 4 l 1,27,-1
 8 2 l 1,28,-1
 7 2 l 1,29,-1
 7 4 l 1,26,-1
7 2 m 1,30,-1
 7 1 l 1,31,-1
 6 1 l 1,32,-1
 6 2 l 1,33,-1
 7 2 l 1,30,-1
6 1 m 1,34,-1
 6 0 l 1,35,-1
 4 0 l 1,36,-1
 4 1 l 1,37,-1
 6 1 l 1,34,-1
3 9 m 1,38,-1
 3 8 l 1,39,-1
 2 8 l 1,40,-1
 2 9 l 1,41,-1
 3 9 l 1,38,-1
2 8 m 1,42,-1
 2 7 l 1,43,-1
 2 0 l 1,44,-1
 1 0 l 1,45,-1
 1 2 l 1,46,-1
 1 3 l 1,47,-1
 1 7 l 1,48,-1
 1 8 l 1,49,-1
 2 8 l 1,42,-1
EndSplineSet
EndChar

StartChar: agrave
Encoding: 224 224 192
Width: 9
GlyphClass: 1
Flags: W
LayerCount: 2
Fore
SplineSet
3 11 m 1,0,-1
 3 10 l 1,1,-1
 4 10 l 1,2,-1
 4 11 l 1,3,-1
 3 11 l 1,0,-1
4 10 m 1,4,-1
 5 10 l 1,5,-1
 5 9 l 1,6,-1
 4 9 l 1,7,-1
 4 10 l 1,4,-1
5 9 m 1,8,-1
 6 9 l 1,9,-1
 6 8 l 1,10,-1
 5 8 l 1,11,-1
 5 9 l 1,8,-1
2 7 m 1,12,-1
 2 6 l 1,13,-1
 3 6 l 1,14,-1
 6 6 l 1,15,-1
 7 6 l 1,16,-1
 7 7 l 1,17,-1
 6 7 l 1,18,-1
 3 7 l 1,19,-1
 2 7 l 1,12,-1
7 6 m 1,20,-1
 7 4 l 1,21,-1
 2 4 l 1,22,-1
 2 3 l 1,23,-1
 7 3 l 1,24,-1
 7 1 l 1,25,-1
 8 1 l 1,26,-1
 8 6 l 1,27,-1
 7 6 l 1,20,-1
7 1 m 1,28,-1
 7 0 l 1,29,-1
 2 0 l 1,30,-1
 2 1 l 1,31,-1
 7 1 l 1,28,-1
2 1 m 1,32,-1
 2 3 l 1,33,-1
 1 3 l 1,34,-1
 1 1 l 1,35,-1
 2 1 l 1,32,-1
2 6 m 1,36,-1
 2 5 l 1,37,-1
 1 5 l 1,38,-1
 1 6 l 1,39,-1
 2 6 l 1,36,-1
EndSplineSet
EndChar

StartChar: aacute
Encoding: 225 225 193
Width: 9
GlyphClass: 1
Flags: W
LayerCount: 2
Fore
SplineSet
5 11 m 1,0,-1
 5 10 l 1,1,-1
 6 10 l 1,2,-1
 6 11 l 1,3,-1
 5 11 l 1,0,-1
5 10 m 1,4,-1
 5 9 l 1,5,-1
 4 9 l 1,6,-1
 4 10 l 1,7,-1
 5 10 l 1,4,-1
4 9 m 1,8,-1
 4 8 l 1,9,-1
 3 8 l 1,10,-1
 3 9 l 1,11,-1
 4 9 l 1,8,-1
2 7 m 1,12,-1
 2 6 l 1,13,-1
 3 6 l 1,14,-1
 6 6 l 1,15,-1
 7 6 l 1,16,-1
 7 7 l 1,17,-1
 6 7 l 1,18,-1
 3 7 l 1,19,-1
 2 7 l 1,12,-1
7 6 m 1,20,-1
 7 4 l 1,21,-1
 2 4 l 1,22,-1
 2 3 l 1,23,-1
 7 3 l 1,24,-1
 7 1 l 1,25,-1
 8 1 l 1,26,-1
 8 6 l 1,27,-1
 7 6 l 1,20,-1
7 1 m 1,28,-1
 7 0 l 1,29,-1
 2 0 l 1,30,-1
 2 1 l 1,31,-1
 7 1 l 1,28,-1
2 1 m 1,32,-1
 2 3 l 1,33,-1
 1 3 l 1,34,-1
 1 1 l 1,35,-1
 2 1 l 1,32,-1
2 6 m 1,36,-1
 2 5 l 1,37,-1
 1 5 l 1,38,-1
 1 6 l 1,39,-1
 2 6 l 1,36,-1
EndSplineSet
EndChar

StartChar: acircumflex
Encoding: 226 226 194
Width: 9
GlyphClass: 1
Flags: W
LayerCount: 2
Fore
SplineSet
4 11 m 1,0,-1
 5 11 l 1,1,-1
 5 10 l 1,2,-1
 6 10 l 1,3,-1
 6 9 l 1,4,-1
 5 9 l 1,5,-1
 5 10 l 1,6,-1
 4 10 l 1,7,-1
 4 11 l 1,0,-1
6 9 m 1,8,-1
 7 9 l 1,9,-1
 7 8 l 1,10,-1
 6 8 l 1,11,-1
 6 9 l 1,8,-1
4 10 m 1,12,-1
 4 9 l 1,13,-1
 3 9 l 1,14,-1
 3 10 l 1,15,-1
 4 10 l 1,12,-1
3 9 m 1,16,-1
 3 8 l 1,17,-1
 2 8 l 1,18,-1
 2 9 l 1,19,-1
 3 9 l 1,16,-1
2 7 m 1,20,-1
 2 6 l 1,21,-1
 3 6 l 1,22,-1
 6 6 l 1,23,-1
 7 6 l 1,24,-1
 7 7 l 1,25,-1
 6 7 l 1,26,-1
 3 7 l 1,27,-1
 2 7 l 1,20,-1
7 6 m 1,28,-1
 7 4 l 1,29,-1
 2 4 l 1,30,-1
 2 3 l 1,31,-1
 7 3 l 1,32,-1
 7 1 l 1,33,-1
 8 1 l 1,34,-1
 8 6 l 1,35,-1
 7 6 l 1,28,-1
7 1 m 1,36,-1
 7 0 l 1,37,-1
 2 0 l 1,38,-1
 2 1 l 1,39,-1
 7 1 l 1,36,-1
2 1 m 1,40,-1
 2 3 l 1,41,-1
 1 3 l 1,42,-1
 1 1 l 1,43,-1
 2 1 l 1,40,-1
2 6 m 1,44,-1
 2 5 l 1,45,-1
 1 5 l 1,46,-1
 1 6 l 1,47,-1
 2 6 l 1,44,-1
EndSplineSet
EndChar

StartChar: atilde
Encoding: 227 227 195
Width: 9
GlyphClass: 1
Flags: W
LayerCount: 2
Fore
SplineSet
2 11 m 1,0,-1
 2 10 l 1,1,-1
 3 10 l 1,2,-1
 4 10 l 1,3,-1
 4 11 l 1,4,-1
 3 11 l 1,5,-1
 2 11 l 1,0,-1
4 10 m 1,6,-1
 5 10 l 1,7,-1
 5 9 l 1,8,-1
 4 9 l 1,9,-1
 4 10 l 1,6,-1
5 9 m 1,10,-1
 6 9 l 1,11,-1
 7 9 l 1,12,-1
 7 8 l 1,13,-1
 6 8 l 1,14,-1
 5 8 l 1,15,-1
 5 9 l 1,10,-1
7 9 m 1,16,-1
 8 9 l 1,17,-1
 8 10 l 1,18,-1
 8 11 l 1,19,-1
 7 11 l 1,20,-1
 7 10 l 1,21,-1
 7 9 l 1,16,-1
2 10 m 1,22,-1
 2 9 l 1,23,-1
 2 8 l 1,24,-1
 1 8 l 1,25,-1
 1 9 l 1,26,-1
 1 10 l 1,27,-1
 2 10 l 1,22,-1
2 7 m 1,28,-1
 2 6 l 1,29,-1
 3 6 l 1,30,-1
 6 6 l 1,31,-1
 7 6 l 1,32,-1
 7 7 l 1,33,-1
 6 7 l 1,34,-1
 3 7 l 1,35,-1
 2 7 l 1,28,-1
7 6 m 1,36,-1
 7 4 l 1,37,-1
 2 4 l 1,38,-1
 2 3 l 1,39,-1
 7 3 l 1,40,-1
 7 1 l 1,41,-1
 8 1 l 1,42,-1
 8 6 l 1,43,-1
 7 6 l 1,36,-1
7 1 m 1,44,-1
 7 0 l 1,45,-1
 2 0 l 1,46,-1
 2 1 l 1,47,-1
 7 1 l 1,44,-1
2 1 m 1,48,-1
 2 3 l 1,49,-1
 1 3 l 1,50,-1
 1 1 l 1,51,-1
 2 1 l 1,48,-1
2 6 m 1,52,-1
 2 5 l 1,53,-1
 1 5 l 1,54,-1
 1 6 l 1,55,-1
 2 6 l 1,52,-1
EndSplineSet
EndChar

StartChar: adieresis
Encoding: 228 228 196
Width: 9
GlyphClass: 1
Flags: W
LayerCount: 2
Fore
SplineSet
2 11 m 1,0,-1
 2 8 l 1,1,-1
 3 8 l 1,2,-1
 3 11 l 1,3,-1
 2 11 l 1,0,-1
6 11 m 1,4,-1
 6 8 l 1,5,-1
 7 8 l 1,6,-1
 7 11 l 1,7,-1
 6 11 l 1,4,-1
2 7 m 1,8,-1
 2 6 l 1,9,-1
 3 6 l 1,10,-1
 6 6 l 1,11,-1
 7 6 l 1,12,-1
 7 7 l 1,13,-1
 6 7 l 1,14,-1
 3 7 l 1,15,-1
 2 7 l 1,8,-1
7 6 m 1,16,-1
 7 4 l 1,17,-1
 2 4 l 1,18,-1
 2 3 l 1,19,-1
 7 3 l 1,20,-1
 7 1 l 1,21,-1
 8 1 l 1,22,-1
 8 6 l 1,23,-1
 7 6 l 1,16,-1
7 1 m 1,24,-1
 7 0 l 1,25,-1
 2 0 l 1,26,-1
 2 1 l 1,27,-1
 7 1 l 1,24,-1
2 1 m 1,28,-1
 2 3 l 1,29,-1
 1 3 l 1,30,-1
 1 1 l 1,31,-1
 2 1 l 1,28,-1
2 6 m 1,32,-1
 2 5 l 1,33,-1
 1 5 l 1,34,-1
 1 6 l 1,35,-1
 2 6 l 1,32,-1
EndSplineSet
EndChar

StartChar: aring
Encoding: 229 229 197
Width: 9
GlyphClass: 1
Flags: W
LayerCount: 2
Fore
SplineSet
4 11 m 1,0,-1
 4 10 l 1,1,-1
 5 10 l 1,2,-1
 5 11 l 1,3,-1
 4 11 l 1,0,-1
5 10 m 1,4,-1
 6 10 l 1,5,-1
 6 9 l 1,6,-1
 5 9 l 1,7,-1
 5 10 l 1,4,-1
5 9 m 1,8,-1
 5 8 l 1,9,-1
 4 8 l 1,10,-1
 4 9 l 1,11,-1
 5 9 l 1,8,-1
4 9 m 1,12,-1
 3 9 l 1,13,-1
 3 10 l 1,14,-1
 4 10 l 1,15,-1
 4 9 l 1,12,-1
2 7 m 1,16,-1
 2 6 l 1,17,-1
 3 6 l 1,18,-1
 6 6 l 1,19,-1
 7 6 l 1,20,-1
 7 7 l 1,21,-1
 6 7 l 1,22,-1
 3 7 l 1,23,-1
 2 7 l 1,16,-1
7 6 m 1,24,-1
 7 4 l 1,25,-1
 2 4 l 1,26,-1
 2 3 l 1,27,-1
 7 3 l 1,28,-1
 7 1 l 1,29,-1
 8 1 l 1,30,-1
 8 6 l 1,31,-1
 7 6 l 1,24,-1
7 1 m 1,32,-1
 7 0 l 1,33,-1
 2 0 l 1,34,-1
 2 1 l 1,35,-1
 7 1 l 1,32,-1
2 1 m 1,36,-1
 2 3 l 1,37,-1
 1 3 l 1,38,-1
 1 1 l 1,39,-1
 2 1 l 1,36,-1
2 6 m 1,40,-1
 2 5 l 1,41,-1
 1 5 l 1,42,-1
 1 6 l 1,43,-1
 2 6 l 1,40,-1
EndSplineSet
EndChar

StartChar: ae
Encoding: 230 230 198
Width: 9
GlyphClass: 1
Flags: W
LayerCount: 2
Fore
SplineSet
2 7 m 1,0,-1
 2 6 l 1,1,-1
 3 6 l 1,2,-1
 4 6 l 1,3,-1
 4 4 l 1,4,-1
 2 4 l 1,5,-1
 2 3 l 1,6,-1
 4 3 l 1,7,-1
 4 1 l 1,8,-1
 2 1 l 1,9,-1
 2 0 l 1,10,-1
 3 0 l 1,11,-1
 6 0 l 1,12,-1
 7 0 l 1,13,-1
 7 1 l 1,14,-1
 6 1 l 1,15,-1
 5 1 l 1,16,-1
 5 3 l 1,17,-1
 7 3 l 1,18,-1
 7 4 l 1,19,-1
 5 4 l 1,20,-1
 5 6 l 1,21,-1
 7 6 l 1,22,-1
 7 7 l 1,23,-1
 5 7 l 1,24,-1
 4 7 l 1,25,-1
 3 7 l 1,26,-1
 2 7 l 1,0,-1
7 6 m 1,27,-1
 8 6 l 1,28,-1
 8 4 l 1,29,-1
 7 4 l 1,30,-1
 7 6 l 1,27,-1
7 1 m 1,31,-1
 7 2 l 1,32,-1
 8 2 l 1,33,-1
 8 1 l 1,34,-1
 7 1 l 1,31,-1
2 1 m 1,35,-1
 2 3 l 1,36,-1
 1 3 l 1,37,-1
 1 1 l 1,38,-1
 2 1 l 1,35,-1
2 6 m 1,39,-1
 2 5 l 1,40,-1
 1 5 l 1,41,-1
 1 6 l 1,42,-1
 2 6 l 1,39,-1
EndSplineSet
EndChar

StartChar: ccedilla
Encoding: 231 231 199
Width: 9
GlyphClass: 1
Flags: W
LayerCount: 2
Fore
SplineSet
3 7 m 1,0,-1
 3 6 l 1,1,-1
 4 6 l 1,2,-1
 5 6 l 1,3,-1
 6 6 l 1,4,-1
 7 6 l 1,5,-1
 7 7 l 1,6,-1
 6 7 l 1,7,-1
 5 7 l 1,8,-1
 4 7 l 1,9,-1
 3 7 l 1,0,-1
7 6 m 1,10,-1
 8 6 l 1,11,-1
 8 5 l 1,12,-1
 7 5 l 1,13,-1
 7 6 l 1,10,-1
3 6 m 1,14,-1
 3 5 l 1,15,-1
 2 5 l 1,16,-1
 2 6 l 1,17,-1
 3 6 l 1,14,-1
2 5 m 1,18,-1
 2 4 l 1,19,-1
 2 3 l 1,20,-1
 2 2 l 1,21,-1
 1 2 l 1,22,-1
 1 3 l 1,23,-1
 1 4 l 1,24,-1
 1 5 l 1,25,-1
 2 5 l 1,18,-1
2 2 m 1,26,-1
 3 2 l 1,27,-1
 3 1 l 1,28,-1
 2 1 l 1,29,-1
 2 2 l 1,26,-1
3 1 m 1,30,-1
 4 1 l 1,31,-1
 5 1 l 1,32,-1
 6 1 l 1,33,-1
 7 1 l 1,34,-1
 7 0 l 1,35,-1
 6 0 l 1,36,-1
 5 0 l 1,37,-1
 5 -1 l 1,38,-1
 4 -1 l 1,39,-1
 4 0 l 1,40,-1
 3 0 l 1,41,-1
 3 1 l 1,30,-1
7 1 m 1,42,-1
 7 2 l 1,43,-1
 8 2 l 1,44,-1
 8 1 l 1,45,-1
 7 1 l 1,42,-1
5 -1 m 1,46,-1
 6 -1 l 1,47,-1
 6 -2 l 1,48,-1
 5 -2 l 1,49,-1
 5 -1 l 1,46,-1
5 -2 m 1,50,-1
 5 -3 l 1,51,-1
 4 -3 l 1,52,-1
 4 -2 l 1,53,-1
 5 -2 l 1,50,-1
EndSplineSet
EndChar

StartChar: egrave
Encoding: 232 232 200
Width: 9
GlyphClass: 1
Flags: W
LayerCount: 2
Fore
SplineSet
3 11 m 1,0,-1
 3 10 l 1,1,-1
 4 10 l 1,2,-1
 4 11 l 1,3,-1
 3 11 l 1,0,-1
4 10 m 1,4,-1
 5 10 l 1,5,-1
 5 9 l 1,6,-1
 4 9 l 1,7,-1
 4 10 l 1,4,-1
5 9 m 1,8,-1
 6 9 l 1,9,-1
 6 8 l 1,10,-1
 5 8 l 1,11,-1
 5 9 l 1,8,-1
3 7 m 1,12,-1
 3 6 l 1,13,-1
 6 6 l 1,14,-1
 6 7 l 1,15,-1
 3 7 l 1,12,-1
6 6 m 1,16,-1
 7 6 l 1,17,-1
 7 5 l 1,18,-1
 6 5 l 1,19,-1
 6 6 l 1,16,-1
7 5 m 1,20,-1
 8 5 l 1,21,-1
 8 4 l 1,22,-1
 8 3 l 1,23,-1
 2 3 l 1,24,-1
 2 2 l 1,25,-1
 1 2 l 1,26,-1
 1 3 l 1,27,-1
 1 5 l 1,28,-1
 2 5 l 1,29,-1
 2 4 l 1,30,-1
 7 4 l 1,31,-1
 7 5 l 1,20,-1
2 2 m 1,32,-1
 3 2 l 1,33,-1
 3 1 l 1,34,-1
 2 1 l 1,35,-1
 2 2 l 1,32,-1
3 1 m 1,36,-1
 6 1 l 1,37,-1
 6 0 l 1,38,-1
 3 0 l 1,39,-1
 3 1 l 1,36,-1
6 1 m 1,40,-1
 6 2 l 1,41,-1
 7 2 l 1,42,-1
 7 1 l 1,43,-1
 6 1 l 1,40,-1
2 5 m 1,44,-1
 2 6 l 1,45,-1
 3 6 l 1,46,-1
 3 5 l 1,47,-1
 2 5 l 1,44,-1
EndSplineSet
EndChar

StartChar: eacute
Encoding: 233 233 201
Width: 9
GlyphClass: 1
Flags: W
LayerCount: 2
Fore
SplineSet
5 11 m 1,0,-1
 5 10 l 1,1,-1
 6 10 l 1,2,-1
 6 11 l 1,3,-1
 5 11 l 1,0,-1
5 10 m 1,4,-1
 5 9 l 1,5,-1
 4 9 l 1,6,-1
 4 10 l 1,7,-1
 5 10 l 1,4,-1
4 9 m 1,8,-1
 4 8 l 1,9,-1
 3 8 l 1,10,-1
 3 9 l 1,11,-1
 4 9 l 1,8,-1
3 7 m 1,12,-1
 3 6 l 1,13,-1
 6 6 l 1,14,-1
 6 7 l 1,15,-1
 3 7 l 1,12,-1
6 6 m 1,16,-1
 7 6 l 1,17,-1
 7 5 l 1,18,-1
 6 5 l 1,19,-1
 6 6 l 1,16,-1
7 5 m 1,20,-1
 8 5 l 1,21,-1
 8 4 l 1,22,-1
 8 3 l 1,23,-1
 2 3 l 1,24,-1
 2 2 l 1,25,-1
 1 2 l 1,26,-1
 1 3 l 1,27,-1
 1 5 l 1,28,-1
 2 5 l 1,29,-1
 2 4 l 1,30,-1
 7 4 l 1,31,-1
 7 5 l 1,20,-1
2 2 m 1,32,-1
 3 2 l 1,33,-1
 3 1 l 1,34,-1
 2 1 l 1,35,-1
 2 2 l 1,32,-1
3 1 m 1,36,-1
 6 1 l 1,37,-1
 6 0 l 1,38,-1
 3 0 l 1,39,-1
 3 1 l 1,36,-1
6 1 m 1,40,-1
 6 2 l 1,41,-1
 7 2 l 1,42,-1
 7 1 l 1,43,-1
 6 1 l 1,40,-1
2 5 m 1,44,-1
 2 6 l 1,45,-1
 3 6 l 1,46,-1
 3 5 l 1,47,-1
 2 5 l 1,44,-1
EndSplineSet
EndChar

StartChar: ecircumflex
Encoding: 234 234 202
Width: 9
GlyphClass: 1
Flags: W
LayerCount: 2
Fore
SplineSet
4 11 m 1,0,-1
 5 11 l 1,1,-1
 5 10 l 1,2,-1
 6 10 l 1,3,-1
 6 9 l 1,4,-1
 5 9 l 1,5,-1
 5 10 l 1,6,-1
 4 10 l 1,7,-1
 4 11 l 1,0,-1
6 9 m 1,8,-1
 7 9 l 1,9,-1
 7 8 l 1,10,-1
 6 8 l 1,11,-1
 6 9 l 1,8,-1
4 10 m 1,12,-1
 4 9 l 1,13,-1
 3 9 l 1,14,-1
 3 10 l 1,15,-1
 4 10 l 1,12,-1
3 9 m 1,16,-1
 3 8 l 1,17,-1
 2 8 l 1,18,-1
 2 9 l 1,19,-1
 3 9 l 1,16,-1
3 7 m 1,20,-1
 3 6 l 1,21,-1
 6 6 l 1,22,-1
 6 7 l 1,23,-1
 3 7 l 1,20,-1
6 6 m 1,24,-1
 7 6 l 1,25,-1
 7 5 l 1,26,-1
 6 5 l 1,27,-1
 6 6 l 1,24,-1
7 5 m 1,28,-1
 8 5 l 1,29,-1
 8 4 l 1,30,-1
 8 3 l 1,31,-1
 2 3 l 1,32,-1
 2 2 l 1,33,-1
 1 2 l 1,34,-1
 1 3 l 1,35,-1
 1 5 l 1,36,-1
 2 5 l 1,37,-1
 2 4 l 1,38,-1
 7 4 l 1,39,-1
 7 5 l 1,28,-1
2 2 m 1,40,-1
 3 2 l 1,41,-1
 3 1 l 1,42,-1
 2 1 l 1,43,-1
 2 2 l 1,40,-1
3 1 m 1,44,-1
 6 1 l 1,45,-1
 6 0 l 1,46,-1
 3 0 l 1,47,-1
 3 1 l 1,44,-1
6 1 m 1,48,-1
 6 2 l 1,49,-1
 7 2 l 1,50,-1
 7 1 l 1,51,-1
 6 1 l 1,48,-1
2 5 m 1,52,-1
 2 6 l 1,53,-1
 3 6 l 1,54,-1
 3 5 l 1,55,-1
 2 5 l 1,52,-1
EndSplineSet
EndChar

StartChar: edieresis
Encoding: 235 235 203
Width: 9
GlyphClass: 1
Flags: W
LayerCount: 2
Fore
SplineSet
2 11 m 1,0,-1
 2 8 l 1,1,-1
 3 8 l 1,2,-1
 3 11 l 1,3,-1
 2 11 l 1,0,-1
6 11 m 1,4,-1
 6 8 l 1,5,-1
 7 8 l 1,6,-1
 7 11 l 1,7,-1
 6 11 l 1,4,-1
3 7 m 1,8,-1
 3 6 l 1,9,-1
 6 6 l 1,10,-1
 6 7 l 1,11,-1
 3 7 l 1,8,-1
6 6 m 1,12,-1
 7 6 l 1,13,-1
 7 5 l 1,14,-1
 6 5 l 1,15,-1
 6 6 l 1,12,-1
7 5 m 1,16,-1
 8 5 l 1,17,-1
 8 4 l 1,18,-1
 8 3 l 1,19,-1
 2 3 l 1,20,-1
 2 2 l 1,21,-1
 1 2 l 1,22,-1
 1 3 l 1,23,-1
 1 5 l 1,24,-1
 2 5 l 1,25,-1
 2 4 l 1,26,-1
 7 4 l 1,27,-1
 7 5 l 1,16,-1
2 2 m 1,28,-1
 3 2 l 1,29,-1
 3 1 l 1,30,-1
 2 1 l 1,31,-1
 2 2 l 1,28,-1
3 1 m 1,32,-1
 6 1 l 1,33,-1
 6 0 l 1,34,-1
 3 0 l 1,35,-1
 3 1 l 1,32,-1
6 1 m 1,36,-1
 6 2 l 1,37,-1
 7 2 l 1,38,-1
 7 1 l 1,39,-1
 6 1 l 1,36,-1
2 5 m 1,40,-1
 2 6 l 1,41,-1
 3 6 l 1,42,-1
 3 5 l 1,43,-1
 2 5 l 1,40,-1
EndSplineSet
EndChar

StartChar: igrave
Encoding: 236 236 204
Width: 9
GlyphClass: 1
Flags: W
LayerCount: 2
Fore
SplineSet
4 5 m 1,0,-1
 5 5 l 1,1,-1
 5 5 l 1,2,-1
 5 4 l 1,3,-1
 5 3 l 1,4,-1
 5 2 l 1,5,-1
 5 1 l 1,6,-1
 5 0 l 1,7,-1
 4 0 l 1,8,-1
 4 1 l 1,9,-1
 4 2 l 1,10,-1
 4 3 l 1,11,-1
 4 4 l 1,12,-1
 4 5 l 1,13,-1
 4 5 l 1,0,-1
3 10 m 1,14,-1
 3 9 l 1,15,-1
 4 9 l 1,16,-1
 4 10 l 1,17,-1
 3 10 l 1,14,-1
4 9 m 1,18,-1
 5 9 l 1,19,-1
 5 8 l 1,20,-1
 4 8 l 1,21,-1
 4 9 l 1,18,-1
5 8 m 1,22,-1
 6 8 l 1,23,-1
 6 7 l 1,24,-1
 5 7 l 1,25,-1
 5 8 l 1,22,-1
EndSplineSet
EndChar

StartChar: iacute
Encoding: 237 237 205
Width: 9
GlyphClass: 1
Flags: W
LayerCount: 2
Fore
SplineSet
5 10 m 1,0,-1
 5 9 l 1,1,-1
 6 9 l 1,2,-1
 6 10 l 1,3,-1
 5 10 l 1,0,-1
5 9 m 1,4,-1
 5 8 l 1,5,-1
 4 8 l 1,6,-1
 4 9 l 1,7,-1
 5 9 l 1,4,-1
4 8 m 1,8,-1
 4 7 l 1,9,-1
 3 7 l 1,10,-1
 3 8 l 1,11,-1
 4 8 l 1,8,-1
4 5 m 1,12,-1
 4 4 l 1,13,-1
 4 3 l 1,14,-1
 4 2 l 1,15,-1
 4 1 l 1,16,-1
 4 0 l 1,17,-1
 5 0 l 1,18,-1
 5 1 l 1,19,-1
 5 2 l 1,20,-1
 5 3 l 1,21,-1
 5 4 l 1,22,-1
 5 5 l 1,23,-1
 4 5 l 1,12,-1
EndSplineSet
EndChar

StartChar: icircumflex
Encoding: 238 238 206
Width: 9
GlyphClass: 1
Flags: W
LayerCount: 2
Fore
SplineSet
4 10 m 1,0,-1
 5 10 l 1,1,-1
 5 9 l 1,2,-1
 6 9 l 1,3,-1
 6 8 l 1,4,-1
 5 8 l 1,5,-1
 5 9 l 1,6,-1
 4 9 l 1,7,-1
 4 10 l 1,0,-1
6 8 m 1,8,-1
 7 8 l 1,9,-1
 7 7 l 1,10,-1
 6 7 l 1,11,-1
 6 8 l 1,8,-1
4 9 m 1,12,-1
 4 8 l 1,13,-1
 3 8 l 1,14,-1
 3 9 l 1,15,-1
 4 9 l 1,12,-1
3 8 m 1,16,-1
 3 7 l 1,17,-1
 2 7 l 1,18,-1
 2 8 l 1,19,-1
 3 8 l 1,16,-1
4 5 m 1,20,-1
 4 4 l 1,21,-1
 4 3 l 1,22,-1
 4 2 l 1,23,-1
 4 1 l 1,24,-1
 4 0 l 1,25,-1
 5 0 l 1,26,-1
 5 1 l 1,27,-1
 5 2 l 1,28,-1
 5 3 l 1,29,-1
 5 4 l 1,30,-1
 5 5 l 1,31,-1
 4 5 l 1,20,-1
EndSplineSet
EndChar

StartChar: idieresis
Encoding: 239 239 207
Width: 9
GlyphClass: 1
Flags: W
LayerCount: 2
Fore
SplineSet
2 10 m 1,0,-1
 2 7 l 1,1,-1
 3 7 l 1,2,-1
 3 10 l 1,3,-1
 2 10 l 1,0,-1
6 10 m 1,4,-1
 6 7 l 1,5,-1
 7 7 l 1,6,-1
 7 10 l 1,7,-1
 6 10 l 1,4,-1
4 5 m 1,8,-1
 4 4 l 1,9,-1
 4 3 l 1,10,-1
 4 2 l 1,11,-1
 4 1 l 1,12,-1
 4 0 l 1,13,-1
 5 0 l 1,14,-1
 5 1 l 1,15,-1
 5 2 l 1,16,-1
 5 3 l 1,17,-1
 5 4 l 1,18,-1
 5 5 l 1,19,-1
 4 5 l 1,8,-1
EndSplineSet
EndChar

StartChar: eth
Encoding: 240 240 208
Width: 9
GlyphClass: 1
Flags: W
LayerCount: 2
Fore
SplineSet
3 11 m 1,0,-1
 3 10 l 1,1,-1
 5 10 l 1,2,-1
 5 11 l 1,3,-1
 3 11 l 1,0,-1
5 10 m 1,4,-1
 6 10 l 1,5,-1
 6 9 l 1,6,-1
 5 9 l 1,7,-1
 5 10 l 1,4,-1
6 10 m 1,8,-1
 7 10 l 1,9,-1
 7 11 l 1,10,-1
 6 11 l 1,11,-1
 6 10 l 1,8,-1
6 9 m 1,12,-1
 7 9 l 1,13,-1
 7 8 l 1,14,-1
 6 8 l 1,15,-1
 6 9 l 1,12,-1
7 8 m 1,16,-1
 8 8 l 1,17,-1
 8 7 l 1,18,-1
 8 5 l 1,19,-1
 8 4 l 1,20,-1
 8 3 l 1,21,-1
 8 2 l 1,22,-1
 7 2 l 1,23,-1
 7 3 l 1,24,-1
 7 4 l 1,25,-1
 7 5 l 1,26,-1
 6 5 l 1,27,-1
 6 6 l 1,28,-1
 7 6 l 1,29,-1
 7 7 l 1,30,-1
 7 8 l 1,16,-1
7 2 m 1,31,-1
 7 1 l 1,32,-1
 6 1 l 1,33,-1
 6 2 l 1,34,-1
 7 2 l 1,31,-1
6 1 m 1,35,-1
 6 0 l 1,36,-1
 5 0 l 1,37,-1
 4 0 l 1,38,-1
 3 0 l 1,39,-1
 3 1 l 1,40,-1
 4 1 l 1,41,-1
 5 1 l 1,42,-1
 6 1 l 1,35,-1
3 1 m 1,43,-1
 2 1 l 1,44,-1
 2 2 l 1,45,-1
 3 2 l 1,46,-1
 3 1 l 1,43,-1
2 2 m 1,47,-1
 1 2 l 1,48,-1
 1 3 l 1,49,-1
 1 4 l 1,50,-1
 1 5 l 1,51,-1
 2 5 l 1,52,-1
 2 4 l 1,53,-1
 2 3 l 1,54,-1
 2 2 l 1,47,-1
2 5 m 1,55,-1
 2 6 l 1,56,-1
 3 6 l 1,57,-1
 3 5 l 1,58,-1
 2 5 l 1,55,-1
3 6 m 1,59,-1
 3 7 l 1,60,-1
 4 7 l 1,61,-1
 5 7 l 1,62,-1
 6 7 l 1,63,-1
 6 6 l 1,64,-1
 5 6 l 1,65,-1
 4 6 l 1,66,-1
 3 6 l 1,59,-1
5 9 m 1,67,-1
 5 8 l 1,68,-1
 4 8 l 1,69,-1
 4 9 l 1,70,-1
 5 9 l 1,67,-1
EndSplineSet
EndChar

StartChar: ntilde
Encoding: 241 241 209
Width: 9
GlyphClass: 1
Flags: W
LayerCount: 2
Fore
SplineSet
2 11 m 1,0,-1
 2 10 l 1,1,-1
 3 10 l 1,2,-1
 4 10 l 1,3,-1
 4 11 l 1,4,-1
 3 11 l 1,5,-1
 2 11 l 1,0,-1
4 10 m 1,6,-1
 5 10 l 1,7,-1
 5 9 l 1,8,-1
 4 9 l 1,9,-1
 4 10 l 1,6,-1
5 9 m 1,10,-1
 6 9 l 1,11,-1
 7 9 l 1,12,-1
 7 8 l 1,13,-1
 6 8 l 1,14,-1
 5 8 l 1,15,-1
 5 9 l 1,10,-1
7 9 m 1,16,-1
 8 9 l 1,17,-1
 8 10 l 1,18,-1
 8 11 l 1,19,-1
 7 11 l 1,20,-1
 7 10 l 1,21,-1
 7 9 l 1,16,-1
2 10 m 1,22,-1
 2 9 l 1,23,-1
 2 8 l 1,24,-1
 1 8 l 1,25,-1
 1 9 l 1,26,-1
 1 10 l 1,27,-1
 2 10 l 1,22,-1
3 7 m 1,28,-1
 3 6 l 1,29,-1
 4 6 l 1,30,-1
 5 6 l 1,31,-1
 6 6 l 1,32,-1
 6 7 l 1,33,-1
 5 7 l 1,34,-1
 4 7 l 1,35,-1
 3 7 l 1,28,-1
6 6 m 1,36,-1
 7 6 l 1,37,-1
 7 5 l 1,38,-1
 6 5 l 1,39,-1
 6 6 l 1,36,-1
7 5 m 1,40,-1
 8 5 l 1,41,-1
 8 4 l 1,42,-1
 8 3 l 1,43,-1
 8 2 l 1,44,-1
 8 1 l 1,45,-1
 8 0 l 1,46,-1
 7 0 l 1,47,-1
 7 1 l 1,48,-1
 7 2 l 1,49,-1
 7 3 l 1,50,-1
 7 4 l 1,51,-1
 7 5 l 1,40,-1
3 6 m 1,52,-1
 3 5 l 1,53,-1
 2 5 l 1,54,-1
 2 6 l 1,55,-1
 3 6 l 1,52,-1
2 5 m 1,56,-1
 2 0 l 1,57,-1
 1 0 l 1,58,-1
 1 5 l 1,59,-1
 2 5 l 1,56,-1
EndSplineSet
EndChar

StartChar: ograve
Encoding: 242 242 210
Width: 9
GlyphClass: 1
Flags: W
LayerCount: 2
Fore
SplineSet
3 11 m 1,0,-1
 3 10 l 1,1,-1
 4 10 l 1,2,-1
 4 11 l 1,3,-1
 3 11 l 1,0,-1
4 10 m 1,4,-1
 5 10 l 1,5,-1
 5 9 l 1,6,-1
 4 9 l 1,7,-1
 4 10 l 1,4,-1
5 9 m 1,8,-1
 6 9 l 1,9,-1
 6 8 l 1,10,-1
 5 8 l 1,11,-1
 5 9 l 1,8,-1
3 7 m 1,12,-1
 3 6 l 1,13,-1
 4 6 l 1,14,-1
 5 6 l 1,15,-1
 6 6 l 1,16,-1
 6 7 l 1,17,-1
 5 7 l 1,18,-1
 4 7 l 1,19,-1
 3 7 l 1,12,-1
6 6 m 1,20,-1
 7 6 l 1,21,-1
 7 5 l 1,22,-1
 6 5 l 1,23,-1
 6 6 l 1,20,-1
7 5 m 1,24,-1
 8 5 l 1,25,-1
 8 4 l 1,26,-1
 8 3 l 1,27,-1
 8 2 l 1,28,-1
 7 2 l 1,29,-1
 7 3 l 1,30,-1
 7 4 l 1,31,-1
 7 5 l 1,24,-1
7 2 m 1,32,-1
 7 1 l 1,33,-1
 6 1 l 1,34,-1
 6 2 l 1,35,-1
 7 2 l 1,32,-1
6 1 m 1,36,-1
 6 0 l 1,37,-1
 5 0 l 1,38,-1
 4 0 l 1,39,-1
 3 0 l 1,40,-1
 3 1 l 1,41,-1
 4 1 l 1,42,-1
 5 1 l 1,43,-1
 6 1 l 1,36,-1
3 1 m 1,44,-1
 2 1 l 1,45,-1
 2 2 l 1,46,-1
 3 2 l 1,47,-1
 3 1 l 1,44,-1
2 2 m 1,48,-1
 1 2 l 1,49,-1
 1 3 l 1,50,-1
 1 4 l 1,51,-1
 1 5 l 1,52,-1
 2 5 l 1,53,-1
 2 4 l 1,54,-1
 2 3 l 1,55,-1
 2 2 l 1,48,-1
2 5 m 1,56,-1
 2 6 l 1,57,-1
 3 6 l 1,58,-1
 3 5 l 1,59,-1
 2 5 l 1,56,-1
EndSplineSet
EndChar

StartChar: oacute
Encoding: 243 243 211
Width: 9
GlyphClass: 1
Flags: W
LayerCount: 2
Fore
SplineSet
5 11 m 1,0,-1
 5 10 l 1,1,-1
 6 10 l 1,2,-1
 6 11 l 1,3,-1
 5 11 l 1,0,-1
5 10 m 1,4,-1
 5 9 l 1,5,-1
 4 9 l 1,6,-1
 4 10 l 1,7,-1
 5 10 l 1,4,-1
4 9 m 1,8,-1
 4 8 l 1,9,-1
 3 8 l 1,10,-1
 3 9 l 1,11,-1
 4 9 l 1,8,-1
3 7 m 1,12,-1
 3 6 l 1,13,-1
 4 6 l 1,14,-1
 5 6 l 1,15,-1
 6 6 l 1,16,-1
 6 7 l 1,17,-1
 5 7 l 1,18,-1
 4 7 l 1,19,-1
 3 7 l 1,12,-1
6 6 m 1,20,-1
 7 6 l 1,21,-1
 7 5 l 1,22,-1
 6 5 l 1,23,-1
 6 6 l 1,20,-1
7 5 m 1,24,-1
 8 5 l 1,25,-1
 8 4 l 1,26,-1
 8 3 l 1,27,-1
 8 2 l 1,28,-1
 7 2 l 1,29,-1
 7 3 l 1,30,-1
 7 4 l 1,31,-1
 7 5 l 1,24,-1
7 2 m 1,32,-1
 7 1 l 1,33,-1
 6 1 l 1,34,-1
 6 2 l 1,35,-1
 7 2 l 1,32,-1
6 1 m 1,36,-1
 6 0 l 1,37,-1
 5 0 l 1,38,-1
 4 0 l 1,39,-1
 3 0 l 1,40,-1
 3 1 l 1,41,-1
 4 1 l 1,42,-1
 5 1 l 1,43,-1
 6 1 l 1,36,-1
3 1 m 1,44,-1
 2 1 l 1,45,-1
 2 2 l 1,46,-1
 3 2 l 1,47,-1
 3 1 l 1,44,-1
2 2 m 1,48,-1
 1 2 l 1,49,-1
 1 3 l 1,50,-1
 1 4 l 1,51,-1
 1 5 l 1,52,-1
 2 5 l 1,53,-1
 2 4 l 1,54,-1
 2 3 l 1,55,-1
 2 2 l 1,48,-1
2 5 m 1,56,-1
 2 6 l 1,57,-1
 3 6 l 1,58,-1
 3 5 l 1,59,-1
 2 5 l 1,56,-1
EndSplineSet
EndChar

StartChar: ocircumflex
Encoding: 244 244 212
Width: 9
GlyphClass: 1
Flags: W
LayerCount: 2
Fore
SplineSet
4 11 m 1,0,-1
 5 11 l 1,1,-1
 5 10 l 1,2,-1
 6 10 l 1,3,-1
 6 9 l 1,4,-1
 5 9 l 1,5,-1
 5 10 l 1,6,-1
 4 10 l 1,7,-1
 4 11 l 1,0,-1
6 9 m 1,8,-1
 7 9 l 1,9,-1
 7 8 l 1,10,-1
 6 8 l 1,11,-1
 6 9 l 1,8,-1
4 10 m 1,12,-1
 4 9 l 1,13,-1
 3 9 l 1,14,-1
 3 10 l 1,15,-1
 4 10 l 1,12,-1
3 9 m 1,16,-1
 3 8 l 1,17,-1
 2 8 l 1,18,-1
 2 9 l 1,19,-1
 3 9 l 1,16,-1
3 7 m 1,20,-1
 3 6 l 1,21,-1
 4 6 l 1,22,-1
 5 6 l 1,23,-1
 6 6 l 1,24,-1
 6 7 l 1,25,-1
 5 7 l 1,26,-1
 4 7 l 1,27,-1
 3 7 l 1,20,-1
6 6 m 1,28,-1
 7 6 l 1,29,-1
 7 5 l 1,30,-1
 6 5 l 1,31,-1
 6 6 l 1,28,-1
7 5 m 1,32,-1
 8 5 l 1,33,-1
 8 4 l 1,34,-1
 8 3 l 1,35,-1
 8 2 l 1,36,-1
 7 2 l 1,37,-1
 7 3 l 1,38,-1
 7 4 l 1,39,-1
 7 5 l 1,32,-1
7 2 m 1,40,-1
 7 1 l 1,41,-1
 6 1 l 1,42,-1
 6 2 l 1,43,-1
 7 2 l 1,40,-1
6 1 m 1,44,-1
 6 0 l 1,45,-1
 5 0 l 1,46,-1
 4 0 l 1,47,-1
 3 0 l 1,48,-1
 3 1 l 1,49,-1
 4 1 l 1,50,-1
 5 1 l 1,51,-1
 6 1 l 1,44,-1
3 1 m 1,52,-1
 2 1 l 1,53,-1
 2 2 l 1,54,-1
 3 2 l 1,55,-1
 3 1 l 1,52,-1
2 2 m 1,56,-1
 1 2 l 1,57,-1
 1 3 l 1,58,-1
 1 4 l 1,59,-1
 1 5 l 1,60,-1
 2 5 l 1,61,-1
 2 4 l 1,62,-1
 2 3 l 1,63,-1
 2 2 l 1,56,-1
2 5 m 1,64,-1
 2 6 l 1,65,-1
 3 6 l 1,66,-1
 3 5 l 1,67,-1
 2 5 l 1,64,-1
EndSplineSet
EndChar

StartChar: otilde
Encoding: 245 245 213
Width: 9
GlyphClass: 1
Flags: W
LayerCount: 2
Fore
SplineSet
2 11 m 1,0,-1
 2 10 l 1,1,-1
 3 10 l 1,2,-1
 4 10 l 1,3,-1
 4 11 l 1,4,-1
 3 11 l 1,5,-1
 2 11 l 1,0,-1
4 10 m 1,6,-1
 5 10 l 1,7,-1
 5 9 l 1,8,-1
 4 9 l 1,9,-1
 4 10 l 1,6,-1
5 9 m 1,10,-1
 6 9 l 1,11,-1
 7 9 l 1,12,-1
 7 8 l 1,13,-1
 6 8 l 1,14,-1
 5 8 l 1,15,-1
 5 9 l 1,10,-1
7 9 m 1,16,-1
 8 9 l 1,17,-1
 8 10 l 1,18,-1
 8 11 l 1,19,-1
 7 11 l 1,20,-1
 7 10 l 1,21,-1
 7 9 l 1,16,-1
2 10 m 1,22,-1
 2 9 l 1,23,-1
 2 8 l 1,24,-1
 1 8 l 1,25,-1
 1 9 l 1,26,-1
 1 10 l 1,27,-1
 2 10 l 1,22,-1
3 7 m 1,28,-1
 3 6 l 1,29,-1
 4 6 l 1,30,-1
 5 6 l 1,31,-1
 6 6 l 1,32,-1
 6 7 l 1,33,-1
 5 7 l 1,34,-1
 4 7 l 1,35,-1
 3 7 l 1,28,-1
6 6 m 1,36,-1
 7 6 l 1,37,-1
 7 5 l 1,38,-1
 6 5 l 1,39,-1
 6 6 l 1,36,-1
7 5 m 1,40,-1
 8 5 l 1,41,-1
 8 4 l 1,42,-1
 8 3 l 1,43,-1
 8 2 l 1,44,-1
 7 2 l 1,45,-1
 7 3 l 1,46,-1
 7 4 l 1,47,-1
 7 5 l 1,40,-1
7 2 m 1,48,-1
 7 1 l 1,49,-1
 6 1 l 1,50,-1
 6 2 l 1,51,-1
 7 2 l 1,48,-1
6 1 m 1,52,-1
 6 0 l 1,53,-1
 5 0 l 1,54,-1
 4 0 l 1,55,-1
 3 0 l 1,56,-1
 3 1 l 1,57,-1
 4 1 l 1,58,-1
 5 1 l 1,59,-1
 6 1 l 1,52,-1
3 1 m 1,60,-1
 2 1 l 1,61,-1
 2 2 l 1,62,-1
 3 2 l 1,63,-1
 3 1 l 1,60,-1
2 2 m 1,64,-1
 1 2 l 1,65,-1
 1 3 l 1,66,-1
 1 4 l 1,67,-1
 1 5 l 1,68,-1
 2 5 l 1,69,-1
 2 4 l 1,70,-1
 2 3 l 1,71,-1
 2 2 l 1,64,-1
2 5 m 1,72,-1
 2 6 l 1,73,-1
 3 6 l 1,74,-1
 3 5 l 1,75,-1
 2 5 l 1,72,-1
EndSplineSet
EndChar

StartChar: odieresis
Encoding: 246 246 214
Width: 9
GlyphClass: 1
Flags: W
LayerCount: 2
Fore
SplineSet
2 11 m 1,0,-1
 2 8 l 1,1,-1
 3 8 l 1,2,-1
 3 11 l 1,3,-1
 2 11 l 1,0,-1
6 11 m 1,4,-1
 6 8 l 1,5,-1
 7 8 l 1,6,-1
 7 11 l 1,7,-1
 6 11 l 1,4,-1
3 7 m 1,8,-1
 3 6 l 1,9,-1
 4 6 l 1,10,-1
 5 6 l 1,11,-1
 6 6 l 1,12,-1
 6 7 l 1,13,-1
 5 7 l 1,14,-1
 4 7 l 1,15,-1
 3 7 l 1,8,-1
6 6 m 1,16,-1
 7 6 l 1,17,-1
 7 5 l 1,18,-1
 6 5 l 1,19,-1
 6 6 l 1,16,-1
7 5 m 1,20,-1
 8 5 l 1,21,-1
 8 4 l 1,22,-1
 8 3 l 1,23,-1
 8 2 l 1,24,-1
 7 2 l 1,25,-1
 7 3 l 1,26,-1
 7 4 l 1,27,-1
 7 5 l 1,20,-1
7 2 m 1,28,-1
 7 1 l 1,29,-1
 6 1 l 1,30,-1
 6 2 l 1,31,-1
 7 2 l 1,28,-1
6 1 m 1,32,-1
 6 0 l 1,33,-1
 5 0 l 1,34,-1
 4 0 l 1,35,-1
 3 0 l 1,36,-1
 3 1 l 1,37,-1
 4 1 l 1,38,-1
 5 1 l 1,39,-1
 6 1 l 1,32,-1
3 1 m 1,40,-1
 2 1 l 1,41,-1
 2 2 l 1,42,-1
 3 2 l 1,43,-1
 3 1 l 1,40,-1
2 2 m 1,44,-1
 1 2 l 1,45,-1
 1 3 l 1,46,-1
 1 4 l 1,47,-1
 1 5 l 1,48,-1
 2 5 l 1,49,-1
 2 4 l 1,50,-1
 2 3 l 1,51,-1
 2 2 l 1,44,-1
2 5 m 1,52,-1
 2 6 l 1,53,-1
 3 6 l 1,54,-1
 3 5 l 1,55,-1
 2 5 l 1,52,-1
EndSplineSet
EndChar

StartChar: divide
Encoding: 247 247 215
Width: 9
GlyphClass: 1
Flags: W
LayerCount: 2
Fore
SplineSet
4 12 m 1,0,-1
 4 9 l 1,1,-1
 5 9 l 1,2,-1
 5 12 l 1,3,-1
 4 12 l 1,0,-1
0 7 m 1,4,-1
 0 6 l 1,5,-1
 9 6 l 1,6,-1
 9 7 l 1,7,-1
 0 7 l 1,4,-1
4 3 m 1,8,-1
 4 0 l 1,9,-1
 5 0 l 1,10,-1
 5 3 l 1,11,-1
 4 3 l 1,8,-1
EndSplineSet
EndChar

StartChar: oslash
Encoding: 248 248 216
Width: 9
GlyphClass: 1
Flags: W
LayerCount: 2
Fore
SplineSet
8 9 m 1,0,-1
 8 8 l 1,1,-1
 9 8 l 1,2,-1
 9 9 l 1,3,-1
 8 9 l 1,0,-1
8 8 m 1,4,-1
 8 7 l 1,5,-1
 7 7 l 1,6,-1
 7 6 l 1,7,-1
 6 6 l 1,8,-1
 6 7 l 1,9,-1
 7 7 l 1,10,-1
 7 8 l 1,11,-1
 8 8 l 1,4,-1
7 6 m 1,12,-1
 8 6 l 1,13,-1
 8 5 l 1,14,-1
 8 4 l 1,15,-1
 8 3 l 1,16,-1
 7 3 l 1,17,-1
 7 4 l 1,18,-1
 7 5 l 1,19,-1
 7 6 l 1,12,-1
7 3 m 1,20,-1
 7 2 l 1,21,-1
 6 2 l 1,22,-1
 6 3 l 1,23,-1
 7 3 l 1,20,-1
6 2 m 1,24,-1
 6 1 l 1,25,-1
 5 1 l 1,26,-1
 4 1 l 1,27,-1
 3 1 l 1,28,-1
 3 2 l 1,29,-1
 4 2 l 1,30,-1
 5 2 l 1,31,-1
 6 2 l 1,24,-1
3 2 m 1,32,-1
 2 2 l 1,33,-1
 2 3 l 1,34,-1
 3 3 l 1,35,-1
 3 4 l 1,36,-1
 4 4 l 1,37,-1
 4 3 l 1,38,-1
 3 3 l 1,39,-1
 3 2 l 1,32,-1
2 3 m 1,40,-1
 1 3 l 1,41,-1
 1 4 l 1,42,-1
 1 5 l 1,43,-1
 1 6 l 1,44,-1
 2 6 l 1,45,-1
 2 5 l 1,46,-1
 2 4 l 1,47,-1
 2 3 l 1,40,-1
2 6 m 1,48,-1
 2 7 l 1,49,-1
 3 7 l 1,50,-1
 3 6 l 1,51,-1
 2 6 l 1,48,-1
3 7 m 1,52,-1
 3 8 l 1,53,-1
 4 8 l 1,54,-1
 5 8 l 1,55,-1
 6 8 l 1,56,-1
 6 7 l 1,57,-1
 5 7 l 1,58,-1
 4 7 l 1,59,-1
 3 7 l 1,52,-1
4 4 m 1,60,-1
 4 5 l 1,61,-1
 5 5 l 1,62,-1
 5 4 l 1,63,-1
 4 4 l 1,60,-1
5 5 m 1,64,-1
 5 6 l 1,65,-1
 6 6 l 1,66,-1
 6 5 l 1,67,-1
 5 5 l 1,64,-1
1 2 m 1,68,-1
 2 2 l 1,69,-1
 2 1 l 1,70,-1
 1 1 l 1,71,-1
 1 2 l 1,68,-1
1 1 m 1,72,-1
 1 0 l 1,73,-1
 0 0 l 1,74,-1
 0 1 l 1,75,-1
 1 1 l 1,72,-1
EndSplineSet
EndChar

StartChar: ugrave
Encoding: 249 249 217
Width: 9
GlyphClass: 1
Flags: W
LayerCount: 2
Fore
SplineSet
3 11 m 1,0,-1
 3 10 l 1,1,-1
 4 10 l 1,2,-1
 4 11 l 1,3,-1
 3 11 l 1,0,-1
4 10 m 1,4,-1
 5 10 l 1,5,-1
 5 9 l 1,6,-1
 4 9 l 1,7,-1
 4 10 l 1,4,-1
5 9 m 1,8,-1
 6 9 l 1,9,-1
 6 8 l 1,10,-1
 5 8 l 1,11,-1
 5 9 l 1,8,-1
1 7 m 1,12,-1
 1 6 l 1,13,-1
 1 5 l 1,14,-1
 1 4 l 1,15,-1
 1 3 l 1,16,-1
 1 2 l 1,17,-1
 2 2 l 1,18,-1
 2 3 l 1,19,-1
 2 4 l 1,20,-1
 2 5 l 1,21,-1
 2 6 l 1,22,-1
 2 7 l 1,23,-1
 1 7 l 1,12,-1
2 2 m 1,24,-1
 3 2 l 1,25,-1
 3 1 l 1,26,-1
 2 1 l 1,27,-1
 2 2 l 1,24,-1
3 1 m 1,28,-1
 4 1 l 1,29,-1
 5 1 l 1,30,-1
 6 1 l 1,31,-1
 6 0 l 1,32,-1
 5 0 l 1,33,-1
 4 0 l 1,34,-1
 3 0 l 1,35,-1
 3 1 l 1,28,-1
6 1 m 1,36,-1
 6 2 l 1,37,-1
 7 2 l 1,38,-1
 7 1 l 1,39,-1
 6 1 l 1,36,-1
7 2 m 1,40,-1
 8 2 l 1,41,-1
 8 3 l 1,42,-1
 8 4 l 1,43,-1
 8 5 l 1,44,-1
 8 6 l 1,45,-1
 8 7 l 1,46,-1
 7 7 l 1,47,-1
 7 6 l 1,48,-1
 7 5 l 1,49,-1
 7 4 l 1,50,-1
 7 3 l 1,51,-1
 7 2 l 1,40,-1
EndSplineSet
EndChar

StartChar: uacute
Encoding: 250 250 218
Width: 9
GlyphClass: 1
Flags: W
LayerCount: 2
Fore
SplineSet
5 11 m 1,0,-1
 5 10 l 1,1,-1
 6 10 l 1,2,-1
 6 11 l 1,3,-1
 5 11 l 1,0,-1
5 10 m 1,4,-1
 5 9 l 1,5,-1
 4 9 l 1,6,-1
 4 10 l 1,7,-1
 5 10 l 1,4,-1
4 9 m 1,8,-1
 4 8 l 1,9,-1
 3 8 l 1,10,-1
 3 9 l 1,11,-1
 4 9 l 1,8,-1
1 7 m 1,12,-1
 1 6 l 1,13,-1
 1 5 l 1,14,-1
 1 4 l 1,15,-1
 1 3 l 1,16,-1
 1 2 l 1,17,-1
 2 2 l 1,18,-1
 2 3 l 1,19,-1
 2 4 l 1,20,-1
 2 5 l 1,21,-1
 2 6 l 1,22,-1
 2 7 l 1,23,-1
 1 7 l 1,12,-1
2 2 m 1,24,-1
 3 2 l 1,25,-1
 3 1 l 1,26,-1
 2 1 l 1,27,-1
 2 2 l 1,24,-1
3 1 m 1,28,-1
 4 1 l 1,29,-1
 5 1 l 1,30,-1
 6 1 l 1,31,-1
 6 0 l 1,32,-1
 5 0 l 1,33,-1
 4 0 l 1,34,-1
 3 0 l 1,35,-1
 3 1 l 1,28,-1
6 1 m 1,36,-1
 6 2 l 1,37,-1
 7 2 l 1,38,-1
 7 1 l 1,39,-1
 6 1 l 1,36,-1
7 2 m 1,40,-1
 8 2 l 1,41,-1
 8 3 l 1,42,-1
 8 4 l 1,43,-1
 8 5 l 1,44,-1
 8 6 l 1,45,-1
 8 7 l 1,46,-1
 7 7 l 1,47,-1
 7 6 l 1,48,-1
 7 5 l 1,49,-1
 7 4 l 1,50,-1
 7 3 l 1,51,-1
 7 2 l 1,40,-1
EndSplineSet
EndChar

StartChar: ucircumflex
Encoding: 251 251 219
Width: 9
GlyphClass: 1
Flags: W
LayerCount: 2
Fore
SplineSet
4 11 m 1,0,-1
 5 11 l 1,1,-1
 5 10 l 1,2,-1
 6 10 l 1,3,-1
 6 9 l 1,4,-1
 5 9 l 1,5,-1
 5 10 l 1,6,-1
 4 10 l 1,7,-1
 4 11 l 1,0,-1
6 9 m 1,8,-1
 7 9 l 1,9,-1
 7 8 l 1,10,-1
 6 8 l 1,11,-1
 6 9 l 1,8,-1
4 10 m 1,12,-1
 4 9 l 1,13,-1
 3 9 l 1,14,-1
 3 10 l 1,15,-1
 4 10 l 1,12,-1
3 9 m 1,16,-1
 3 8 l 1,17,-1
 2 8 l 1,18,-1
 2 9 l 1,19,-1
 3 9 l 1,16,-1
1 7 m 1,20,-1
 1 6 l 1,21,-1
 1 5 l 1,22,-1
 1 4 l 1,23,-1
 1 3 l 1,24,-1
 1 2 l 1,25,-1
 2 2 l 1,26,-1
 2 3 l 1,27,-1
 2 4 l 1,28,-1
 2 5 l 1,29,-1
 2 6 l 1,30,-1
 2 7 l 1,31,-1
 1 7 l 1,20,-1
2 2 m 1,32,-1
 3 2 l 1,33,-1
 3 1 l 1,34,-1
 2 1 l 1,35,-1
 2 2 l 1,32,-1
3 1 m 1,36,-1
 4 1 l 1,37,-1
 5 1 l 1,38,-1
 6 1 l 1,39,-1
 6 0 l 1,40,-1
 5 0 l 1,41,-1
 4 0 l 1,42,-1
 3 0 l 1,43,-1
 3 1 l 1,36,-1
6 1 m 1,44,-1
 6 2 l 1,45,-1
 7 2 l 1,46,-1
 7 1 l 1,47,-1
 6 1 l 1,44,-1
7 2 m 1,48,-1
 8 2 l 1,49,-1
 8 3 l 1,50,-1
 8 4 l 1,51,-1
 8 5 l 1,52,-1
 8 6 l 1,53,-1
 8 7 l 1,54,-1
 7 7 l 1,55,-1
 7 6 l 1,56,-1
 7 5 l 1,57,-1
 7 4 l 1,58,-1
 7 3 l 1,59,-1
 7 2 l 1,48,-1
EndSplineSet
EndChar

StartChar: udieresis
Encoding: 252 252 220
Width: 9
GlyphClass: 1
Flags: W
LayerCount: 2
Fore
SplineSet
2 11 m 1,0,-1
 2 8 l 1,1,-1
 3 8 l 1,2,-1
 3 11 l 1,3,-1
 2 11 l 1,0,-1
6 11 m 1,4,-1
 6 8 l 1,5,-1
 7 8 l 1,6,-1
 7 11 l 1,7,-1
 6 11 l 1,4,-1
1 7 m 1,8,-1
 1 6 l 1,9,-1
 1 5 l 1,10,-1
 1 4 l 1,11,-1
 1 3 l 1,12,-1
 1 2 l 1,13,-1
 2 2 l 1,14,-1
 2 3 l 1,15,-1
 2 4 l 1,16,-1
 2 5 l 1,17,-1
 2 6 l 1,18,-1
 2 7 l 1,19,-1
 1 7 l 1,8,-1
2 2 m 1,20,-1
 3 2 l 1,21,-1
 3 1 l 1,22,-1
 2 1 l 1,23,-1
 2 2 l 1,20,-1
3 1 m 1,24,-1
 4 1 l 1,25,-1
 5 1 l 1,26,-1
 6 1 l 1,27,-1
 6 0 l 1,28,-1
 5 0 l 1,29,-1
 4 0 l 1,30,-1
 3 0 l 1,31,-1
 3 1 l 1,24,-1
6 1 m 1,32,-1
 6 2 l 1,33,-1
 7 2 l 1,34,-1
 7 1 l 1,35,-1
 6 1 l 1,32,-1
7 2 m 1,36,-1
 8 2 l 1,37,-1
 8 3 l 1,38,-1
 8 4 l 1,39,-1
 8 5 l 1,40,-1
 8 6 l 1,41,-1
 8 7 l 1,42,-1
 7 7 l 1,43,-1
 7 6 l 1,44,-1
 7 5 l 1,45,-1
 7 4 l 1,46,-1
 7 3 l 1,47,-1
 7 2 l 1,36,-1
EndSplineSet
EndChar

StartChar: yacute
Encoding: 253 253 221
Width: 9
GlyphClass: 1
Flags: W
LayerCount: 2
Fore
SplineSet
5 11 m 1,0,-1
 5 10 l 1,1,-1
 6 10 l 1,2,-1
 6 11 l 1,3,-1
 5 11 l 1,0,-1
5 10 m 1,4,-1
 5 9 l 1,5,-1
 4 9 l 1,6,-1
 4 10 l 1,7,-1
 5 10 l 1,4,-1
4 9 m 1,8,-1
 4 8 l 1,9,-1
 3 8 l 1,10,-1
 3 9 l 1,11,-1
 4 9 l 1,8,-1
1 7 m 1,12,-1
 1 2 l 1,13,-1
 2 2 l 1,14,-1
 2 7 l 1,15,-1
 1 7 l 1,12,-1
2 2 m 1,16,-1
 3 2 l 1,17,-1
 3 1 l 1,18,-1
 2 1 l 1,19,-1
 2 2 l 1,16,-1
3 1 m 1,20,-1
 6 1 l 1,21,-1
 6 0 l 1,22,-1
 3 0 l 1,23,-1
 3 1 l 1,20,-1
6 1 m 1,24,-1
 7 1 l 1,25,-1
 7 -1 l 1,26,-1
 8 -1 l 1,27,-1
 8 7 l 1,28,-1
 7 7 l 1,29,-1
 7 2 l 1,30,-1
 6 2 l 1,31,-1
 6 1 l 1,24,-1
7 -1 m 1,32,-1
 7 -2 l 1,33,-1
 6 -2 l 1,34,-1
 6 -1 l 1,35,-1
 7 -1 l 1,32,-1
6 -2 m 1,36,-1
 6 -3 l 1,37,-1
 3 -3 l 1,38,-1
 3 -2 l 1,39,-1
 6 -2 l 1,36,-1
3 -2 m 1,40,-1
 2 -2 l 1,41,-1
 2 -1 l 1,42,-1
 3 -1 l 1,43,-1
 3 -2 l 1,40,-1
EndSplineSet
EndChar

StartChar: thorn
Encoding: 254 254 222
Width: 9
GlyphClass: 1
Flags: W
LayerCount: 2
Fore
SplineSet
1 11 m 1,0,-1
 1 0 l 1,1,-1
 2 0 l 1,2,-1
 2 3 l 1,3,-1
 3 3 l 1,4,-1
 3 4 l 1,5,-1
 2 4 l 1,6,-1
 2 7 l 1,7,-1
 3 7 l 1,8,-1
 3 8 l 1,9,-1
 2 8 l 1,10,-1
 2 11 l 1,11,-1
 1 11 l 1,0,-1
3 8 m 1,12,-1
 4 8 l 1,13,-1
 5 8 l 1,14,-1
 6 8 l 1,15,-1
 6 9 l 1,16,-1
 5 9 l 1,17,-1
 4 9 l 1,18,-1
 3 9 l 1,19,-1
 3 8 l 1,12,-1
6 8 m 1,20,-1
 7 8 l 1,21,-1
 7 7 l 1,22,-1
 6 7 l 1,23,-1
 6 8 l 1,20,-1
7 7 m 1,24,-1
 8 7 l 1,25,-1
 8 6 l 1,26,-1
 8 5 l 1,27,-1
 8 4 l 1,28,-1
 7 4 l 1,29,-1
 7 5 l 1,30,-1
 7 6 l 1,31,-1
 7 7 l 1,24,-1
7 4 m 1,32,-1
 7 3 l 1,33,-1
 6 3 l 1,34,-1
 6 4 l 1,35,-1
 7 4 l 1,32,-1
6 3 m 1,36,-1
 6 2 l 1,37,-1
 5 2 l 1,38,-1
 4 2 l 1,39,-1
 3 2 l 1,40,-1
 3 3 l 1,41,-1
 4 3 l 1,42,-1
 5 3 l 1,43,-1
 6 3 l 1,36,-1
EndSplineSet
EndChar

StartChar: ydieresis
Encoding: 255 255 223
Width: 9
GlyphClass: 1
Flags: W
LayerCount: 2
Fore
SplineSet
2 11 m 1,0,-1
 2 8 l 1,1,-1
 3 8 l 1,2,-1
 3 11 l 1,3,-1
 2 11 l 1,0,-1
6 11 m 1,4,-1
 6 8 l 1,5,-1
 7 8 l 1,6,-1
 7 11 l 1,7,-1
 6 11 l 1,4,-1
1 7 m 1,8,-1
 1 2 l 1,9,-1
 2 2 l 1,10,-1
 2 7 l 1,11,-1
 1 7 l 1,8,-1
2 2 m 1,12,-1
 3 2 l 1,13,-1
 3 1 l 1,14,-1
 2 1 l 1,15,-1
 2 2 l 1,12,-1
3 1 m 1,16,-1
 6 1 l 1,17,-1
 6 0 l 1,18,-1
 3 0 l 1,19,-1
 3 1 l 1,16,-1
6 1 m 1,20,-1
 7 1 l 1,21,-1
 7 -1 l 1,22,-1
 8 -1 l 1,23,-1
 8 7 l 1,24,-1
 7 7 l 1,25,-1
 7 2 l 1,26,-1
 6 2 l 1,27,-1
 6 1 l 1,20,-1
7 -1 m 1,28,-1
 7 -2 l 1,29,-1
 6 -2 l 1,30,-1
 6 -1 l 1,31,-1
 7 -1 l 1,28,-1
6 -2 m 1,32,-1
 6 -3 l 1,33,-1
 3 -3 l 1,34,-1
 3 -2 l 1,35,-1
 6 -2 l 1,32,-1
3 -2 m 1,36,-1
 2 -2 l 1,37,-1
 2 -1 l 1,38,-1
 3 -1 l 1,39,-1
 3 -2 l 1,36,-1
EndSplineSet
EndChar

StartChar: uni2016
Encoding: 8214 8214 224
Width: 9
GlyphClass: 1
Flags: W
LayerCount: 2
Fore
SplineSet
6 14 m 1,0,-1
 6 -4 l 1,1,-1
 7 -4 l 1,2,-1
 7 14 l 1,3,-1
 6 14 l 1,0,-1
2 14 m 1,4,-1
 2 -4 l 1,5,-1
 3 -4 l 1,6,-1
 3 14 l 1,7,-1
 2 14 l 1,4,-1
EndSplineSet
EndChar

StartChar: ellipsis
Encoding: 8230 8230 225
Width: 9
GlyphClass: 1
Flags: W
LayerCount: 2
Fore
SplineSet
4 1 m 1,0,-1
 4 -2 l 1,1,-1
 5 -2 l 1,2,-1
 5 1 l 1,3,-1
 4 1 l 1,0,-1
1 1 m 1,4,-1
 1 -2 l 1,5,-1
 2 -2 l 1,6,-1
 2 1 l 1,7,-1
 1 1 l 1,4,-1
7 1 m 1,8,-1
 7 -2 l 1,9,-1
 8 -2 l 1,10,-1
 8 1 l 1,11,-1
 7 1 l 1,8,-1
EndSplineSet
EndChar

StartChar: exclamdbl
Encoding: 8252 8252 226
Width: 9
GlyphClass: 1
Flags: W
LayerCount: 2
Fore
SplineSet
2 14 m 1,0,-1
 2 5 l 1,1,-1
 3 5 l 1,2,-1
 3 14 l 1,3,-1
 2 14 l 1,0,-1
2 2 m 1,4,-1
 2 -1 l 1,5,-1
 3 -1 l 1,6,-1
 3 2 l 1,7,-1
 2 2 l 1,4,-1
6 14 m 1,8,-1
 6 5 l 1,9,-1
 7 5 l 1,10,-1
 7 14 l 1,11,-1
 6 14 l 1,8,-1
6 2 m 1,12,-1
 6 -1 l 1,13,-1
 7 -1 l 1,14,-1
 7 2 l 1,15,-1
 6 2 l 1,12,-1
EndSplineSet
EndChar

StartChar: arrowleft
Encoding: 8592 8592 227
Width: 9
GlyphClass: 1
Flags: W
LayerCount: 2
Fore
SplineSet
3 7 m 1,0,-1
 2 7 l 1,1,-1
 2 6 l 1,2,-1
 1 6 l 1,3,-1
 1 5 l 1,4,-1
 0 5 l 1,5,-1
 0 4 l 1,6,-1
 1 4 l 1,7,-1
 1 3 l 1,8,-1
 2 3 l 1,9,-1
 2 2 l 1,10,-1
 3 2 l 1,11,-1
 3 4 l 1,12,-1
 9 4 l 1,13,-1
 9 5 l 1,14,-1
 3 5 l 1,15,-1
 3 7 l 1,0,-1
EndSplineSet
EndChar

StartChar: arrowup
Encoding: 8593 8593 228
Width: 9
GlyphClass: 1
Flags: W
LayerCount: 2
Fore
SplineSet
4 14 m 1,0,-1
 4 13 l 1,1,-1
 3 13 l 1,2,-1
 3 12 l 1,3,-1
 2 12 l 1,4,-1
 2 11 l 1,5,-1
 4 11 l 1,6,-1
 4 -4 l 1,7,-1
 5 -4 l 1,8,-1
 5 11 l 1,9,-1
 7 11 l 1,10,-1
 7 12 l 1,11,-1
 6 12 l 1,12,-1
 6 13 l 1,13,-1
 5 13 l 1,14,-1
 5 14 l 1,15,-1
 4 14 l 1,0,-1
EndSplineSet
EndChar

StartChar: arrowright
Encoding: 8594 8594 229
Width: 9
GlyphClass: 1
Flags: W
LayerCount: 2
Fore
SplineSet
6 8 m 1,0,-1
 6 6 l 1,1,-1
 0 6 l 1,2,-1
 0 5 l 1,3,-1
 6 5 l 1,4,-1
 6 3 l 1,5,-1
 7 3 l 1,6,-1
 7 4 l 1,7,-1
 8 4 l 1,8,-1
 8 5 l 1,9,-1
 9 5 l 1,10,-1
 9 6 l 1,11,-1
 8 6 l 1,12,-1
 8 7 l 1,13,-1
 7 7 l 1,14,-1
 7 8 l 1,15,-1
 6 8 l 1,0,-1
EndSplineSet
EndChar

StartChar: arrowdown
Encoding: 8595 8595 230
Width: 9
GlyphClass: 1
Flags: W
LayerCount: 2
Fore
SplineSet
5 -4 m 1,0,-1
 5 -3 l 1,1,-1
 6 -3 l 1,2,-1
 6 -2 l 1,3,-1
 7 -2 l 1,4,-1
 7 -1 l 1,5,-1
 5 -1 l 1,6,-1
 5 14 l 1,7,-1
 4 14 l 1,8,-1
 4 -1 l 1,9,-1
 2 -1 l 1,10,-1
 2 -2 l 1,11,-1
 3 -2 l 1,12,-1
 3 -3 l 1,13,-1
 4 -3 l 1,14,-1
 4 -4 l 1,15,-1
 5 -4 l 1,0,-1
EndSplineSet
EndChar

StartChar: arrowboth
Encoding: 8596 8596 231
Width: 9
GlyphClass: 1
Flags: W
LayerCount: 2
Fore
SplineSet
2 8 m 1,0,-1
 2 7 l 1,1,-1
 1 7 l 1,2,-1
 1 6 l 1,3,-1
 0 6 l 1,4,-1
 0 5 l 1,5,-1
 1 5 l 1,6,-1
 1 4 l 1,7,-1
 2 4 l 1,8,-1
 2 3 l 1,9,-1
 3 3 l 1,10,-1
 3 5 l 1,11,-1
 6 5 l 1,12,-1
 6 3 l 1,13,-1
 7 3 l 1,14,-1
 7 4 l 1,15,-1
 8 4 l 1,16,-1
 8 5 l 1,17,-1
 9 5 l 1,18,-1
 9 6 l 1,19,-1
 8 6 l 1,20,-1
 8 7 l 1,21,-1
 7 7 l 1,22,-1
 7 8 l 1,23,-1
 6 8 l 1,24,-1
 6 6 l 1,25,-1
 3 6 l 1,26,-1
 3 8 l 1,27,-1
 2 8 l 1,0,-1
EndSplineSet
EndChar

StartChar: arrowupdn
Encoding: 8597 8597 232
Width: 9
GlyphClass: 1
Flags: W
LayerCount: 2
Fore
SplineSet
4 14 m 1,0,-1
 4 13 l 1,1,-1
 3 13 l 1,2,-1
 3 12 l 1,3,-1
 2 12 l 1,4,-1
 2 11 l 1,5,-1
 4 11 l 1,6,-1
 4 -1 l 1,7,-1
 2 -1 l 1,8,-1
 2 -2 l 1,9,-1
 3 -2 l 1,10,-1
 3 -3 l 1,11,-1
 4 -3 l 1,12,-1
 4 -4 l 1,13,-1
 5 -4 l 1,14,-1
 5 -3 l 1,15,-1
 6 -3 l 1,16,-1
 6 -2 l 1,17,-1
 7 -2 l 1,18,-1
 7 -1 l 1,19,-1
 5 -1 l 1,20,-1
 5 11 l 1,21,-1
 7 11 l 1,22,-1
 7 12 l 1,23,-1
 6 12 l 1,24,-1
 6 13 l 1,25,-1
 5 13 l 1,26,-1
 5 14 l 1,27,-1
 4 14 l 1,0,-1
EndSplineSet
EndChar

StartChar: arrowupdnbse
Encoding: 8616 8616 233
Width: 9
GlyphClass: 1
Flags: W
LayerCount: 2
Fore
SplineSet
4 14 m 1,0,-1
 4 13 l 1,1,-1
 3 13 l 1,2,-1
 3 12 l 1,3,-1
 2 12 l 1,4,-1
 2 11 l 1,5,-1
 4 11 l 1,6,-1
 4 0 l 1,7,-1
 2 0 l 1,8,-1
 2 -1 l 1,9,-1
 3 -1 l 1,10,-1
 3 -2 l 1,11,-1
 4 -2 l 1,12,-1
 4 -3 l 1,13,-1
 0 -3 l 1,14,-1
 0 -4 l 1,15,-1
 9 -4 l 1,16,-1
 9 -3 l 1,17,-1
 5 -3 l 1,18,-1
 5 -2 l 1,19,-1
 6 -2 l 1,20,-1
 6 -1 l 1,21,-1
 7 -1 l 1,22,-1
 7 0 l 1,23,-1
 5 0 l 1,24,-1
 5 11 l 1,25,-1
 7 11 l 1,26,-1
 7 12 l 1,27,-1
 6 12 l 1,28,-1
 6 13 l 1,29,-1
 5 13 l 1,30,-1
 5 14 l 1,31,-1
 4 14 l 1,0,-1
EndSplineSet
EndChar

StartChar: upblock
Encoding: 9600 9600 234
Width: 9
GlyphClass: 1
Flags: W
LayerCount: 2
Fore
SplineSet
0 5 m 1,0,-1
 9 5 l 1,1,-1
 9 14 l 1,2,-1
 0 14 l 1,3,-1
 0 5 l 1,0,-1
EndSplineSet
EndChar

StartChar: uni2582
Encoding: 9602 9602 235
Width: 9
GlyphClass: 1
Flags: W
LayerCount: 2
Fore
SplineSet
0 -4 m 1,0,-1
 9 -4 l 1,1,-1
 9 1 l 1,2,-1
 0 1 l 1,3,-1
 0 -4 l 1,0,-1
EndSplineSet
EndChar

StartChar: dnblock
Encoding: 9604 9604 236
Width: 9
GlyphClass: 1
Flags: W
LayerCount: 2
Fore
SplineSet
0 -4 m 1,0,-1
 9 -4 l 1,1,-1
 9 5 l 1,2,-1
 0 5 l 1,3,-1
 0 -4 l 1,0,-1
EndSplineSet
EndChar

StartChar: block
Encoding: 9608 9608 237
Width: 9
GlyphClass: 1
Flags: W
LayerCount: 2
Fore
SplineSet
0 -4 m 1,0,-1
 9 -4 l 1,1,-1
 9 14 l 1,2,-1
 0 14 l 1,3,-1
 0 -4 l 1,0,-1
EndSplineSet
EndChar

StartChar: lfblock
Encoding: 9612 9612 238
Width: 9
GlyphClass: 1
Flags: W
LayerCount: 2
Fore
SplineSet
0 -4 m 1,0,-1
 5 -4 l 1,1,-1
 5 14 l 1,2,-1
 0 14 l 1,3,-1
 0 -4 l 1,0,-1
EndSplineSet
EndChar

StartChar: rtblock
Encoding: 9616 9616 239
Width: 9
GlyphClass: 1
Flags: W
LayerCount: 2
Fore
SplineSet
4 -4 m 1,0,-1
 9 -4 l 1,1,-1
 9 14 l 1,2,-1
 4 14 l 1,3,-1
 4 -4 l 1,0,-1
EndSplineSet
EndChar

StartChar: ltshade
Encoding: 9617 9617 240
Width: 9
GlyphClass: 1
Flags: W
LayerCount: 2
Fore
SplineSet
0 14 m 1,0,-1
 0 13 l 1,1,-1
 1 13 l 1,2,-1
 1 14 l 1,3,-1
 0 14 l 1,0,-1
3 14 m 1,4,-1
 3 13 l 1,5,-1
 4 13 l 1,6,-1
 4 14 l 1,7,-1
 3 14 l 1,4,-1
6 14 m 1,8,-1
 6 13 l 1,9,-1
 7 13 l 1,10,-1
 7 14 l 1,11,-1
 6 14 l 1,8,-1
1 12 m 1,12,-1
 1 11 l 1,13,-1
 2 11 l 1,14,-1
 2 12 l 1,15,-1
 1 12 l 1,12,-1
4 12 m 1,16,-1
 4 11 l 1,17,-1
 5 11 l 1,18,-1
 5 12 l 1,19,-1
 4 12 l 1,16,-1
7 12 m 1,20,-1
 7 11 l 1,21,-1
 8 11 l 1,22,-1
 8 12 l 1,23,-1
 7 12 l 1,20,-1
2 10 m 1,24,-1
 2 9 l 1,25,-1
 3 9 l 1,26,-1
 3 10 l 1,27,-1
 2 10 l 1,24,-1
5 10 m 1,28,-1
 5 9 l 1,29,-1
 6 9 l 1,30,-1
 6 10 l 1,31,-1
 5 10 l 1,28,-1
8 10 m 1,32,-1
 8 9 l 1,33,-1
 9 9 l 1,34,-1
 9 10 l 1,35,-1
 8 10 l 1,32,-1
0 8 m 1,36,-1
 0 7 l 1,37,-1
 1 7 l 1,38,-1
 1 8 l 1,39,-1
 0 8 l 1,36,-1
3 8 m 1,40,-1
 3 7 l 1,41,-1
 4 7 l 1,42,-1
 4 8 l 1,43,-1
 3 8 l 1,40,-1
6 8 m 1,44,-1
 6 7 l 1,45,-1
 7 7 l 1,46,-1
 7 8 l 1,47,-1
 6 8 l 1,44,-1
1 6 m 1,48,-1
 1 5 l 1,49,-1
 2 5 l 1,50,-1
 2 6 l 1,51,-1
 1 6 l 1,48,-1
4 6 m 1,52,-1
 4 5 l 1,53,-1
 5 5 l 1,54,-1
 5 6 l 1,55,-1
 4 6 l 1,52,-1
7 6 m 1,56,-1
 7 5 l 1,57,-1
 8 5 l 1,58,-1
 8 6 l 1,59,-1
 7 6 l 1,56,-1
2 4 m 1,60,-1
 2 3 l 1,61,-1
 3 3 l 1,62,-1
 3 4 l 1,63,-1
 2 4 l 1,60,-1
5 4 m 1,64,-1
 5 3 l 1,65,-1
 6 3 l 1,66,-1
 6 4 l 1,67,-1
 5 4 l 1,64,-1
8 4 m 1,68,-1
 8 3 l 1,69,-1
 9 3 l 1,70,-1
 9 4 l 1,71,-1
 8 4 l 1,68,-1
0 2 m 1,72,-1
 0 1 l 1,73,-1
 1 1 l 1,74,-1
 1 2 l 1,75,-1
 0 2 l 1,72,-1
3 2 m 1,76,-1
 3 1 l 1,77,-1
 4 1 l 1,78,-1
 4 2 l 1,79,-1
 3 2 l 1,76,-1
6 2 m 1,80,-1
 6 1 l 1,81,-1
 7 1 l 1,82,-1
 7 2 l 1,83,-1
 6 2 l 1,80,-1
1 0 m 1,84,-1
 1 -1 l 1,85,-1
 2 -1 l 1,86,-1
 2 0 l 1,87,-1
 1 0 l 1,84,-1
4 0 m 1,88,-1
 4 -1 l 1,89,-1
 5 -1 l 1,90,-1
 5 0 l 1,91,-1
 4 0 l 1,88,-1
7 0 m 1,92,-1
 7 -1 l 1,93,-1
 8 -1 l 1,94,-1
 8 0 l 1,95,-1
 7 0 l 1,92,-1
2 -2 m 1,96,-1
 2 -3 l 1,97,-1
 3 -3 l 1,98,-1
 3 -2 l 1,99,-1
 2 -2 l 1,96,-1
5 -2 m 1,100,-1
 5 -3 l 1,101,-1
 6 -3 l 1,102,-1
 6 -2 l 1,103,-1
 5 -2 l 1,100,-1
8 -2 m 1,104,-1
 8 -3 l 1,105,-1
 9 -3 l 1,106,-1
 9 -2 l 1,107,-1
 8 -2 l 1,104,-1
EndSplineSet
EndChar

StartChar: shade
Encoding: 9618 9618 241
Width: 9
GlyphClass: 1
Flags: W
LayerCount: 2
Fore
SplineSet
0 14 m 1,0,-1
 0 13 l 1,1,-1
 1 13 l 1,2,-1
 1 14 l 1,3,-1
 0 14 l 1,0,-1
1 13 m 1,4,-1
 2 13 l 1,5,-1
 2 12 l 1,6,-1
 1 12 l 1,7,-1
 1 13 l 1,4,-1
2 12 m 1,8,-1
 3 12 l 1,9,-1
 3 11 l 1,10,-1
 2 11 l 1,11,-1
 2 12 l 1,8,-1
3 11 m 1,12,-1
 4 11 l 1,13,-1
 4 10 l 1,14,-1
 3 10 l 1,15,-1
 3 11 l 1,12,-1
4 10 m 1,16,-1
 5 10 l 1,17,-1
 5 9 l 1,18,-1
 4 9 l 1,19,-1
 4 10 l 1,16,-1
5 9 m 1,20,-1
 6 9 l 1,21,-1
 6 8 l 1,22,-1
 5 8 l 1,23,-1
 5 9 l 1,20,-1
6 8 m 1,24,-1
 7 8 l 1,25,-1
 7 7 l 1,26,-1
 6 7 l 1,27,-1
 6 8 l 1,24,-1
7 7 m 1,28,-1
 8 7 l 1,29,-1
 8 6 l 1,30,-1
 7 6 l 1,31,-1
 7 7 l 1,28,-1
8 6 m 1,32,-1
 9 6 l 1,33,-1
 9 5 l 1,34,-1
 8 5 l 1,35,-1
 8 6 l 1,32,-1
3 14 m 1,36,-1
 3 13 l 1,37,-1
 4 13 l 1,38,-1
 4 14 l 1,39,-1
 3 14 l 1,36,-1
4 13 m 1,40,-1
 5 13 l 1,41,-1
 5 12 l 1,42,-1
 4 12 l 1,43,-1
 4 13 l 1,40,-1
5 12 m 1,44,-1
 6 12 l 1,45,-1
 6 11 l 1,46,-1
 5 11 l 1,47,-1
 5 12 l 1,44,-1
6 11 m 1,48,-1
 7 11 l 1,49,-1
 7 10 l 1,50,-1
 6 10 l 1,51,-1
 6 11 l 1,48,-1
7 10 m 1,52,-1
 8 10 l 1,53,-1
 8 9 l 1,54,-1
 7 9 l 1,55,-1
 7 10 l 1,52,-1
8 9 m 1,56,-1
 9 9 l 1,57,-1
 9 8 l 1,58,-1
 8 8 l 1,59,-1
 8 9 l 1,56,-1
6 14 m 1,60,-1
 6 13 l 1,61,-1
 7 13 l 1,62,-1
 7 14 l 1,63,-1
 6 14 l 1,60,-1
7 13 m 1,64,-1
 8 13 l 1,65,-1
 8 12 l 1,66,-1
 7 12 l 1,67,-1
 7 13 l 1,64,-1
8 12 m 1,68,-1
 9 12 l 1,69,-1
 9 11 l 1,70,-1
 8 11 l 1,71,-1
 8 12 l 1,68,-1
0 11 m 1,72,-1
 1 11 l 1,73,-1
 1 10 l 1,74,-1
 0 10 l 1,75,-1
 0 11 l 1,72,-1
1 10 m 1,76,-1
 2 10 l 1,77,-1
 2 9 l 1,78,-1
 1 9 l 1,79,-1
 1 10 l 1,76,-1
2 9 m 1,80,-1
 3 9 l 1,81,-1
 3 8 l 1,82,-1
 2 8 l 1,83,-1
 2 9 l 1,80,-1
3 8 m 1,84,-1
 4 8 l 1,85,-1
 4 7 l 1,86,-1
 3 7 l 1,87,-1
 3 8 l 1,84,-1
4 7 m 1,88,-1
 5 7 l 1,89,-1
 5 6 l 1,90,-1
 4 6 l 1,91,-1
 4 7 l 1,88,-1
5 6 m 1,92,-1
 6 6 l 1,93,-1
 6 5 l 1,94,-1
 5 5 l 1,95,-1
 5 6 l 1,92,-1
6 5 m 1,96,-1
 7 5 l 1,97,-1
 7 4 l 1,98,-1
 6 4 l 1,99,-1
 6 5 l 1,96,-1
7 4 m 1,100,-1
 8 4 l 1,101,-1
 8 3 l 1,102,-1
 7 3 l 1,103,-1
 7 4 l 1,100,-1
8 3 m 1,104,-1
 9 3 l 1,105,-1
 9 2 l 1,106,-1
 8 2 l 1,107,-1
 8 3 l 1,104,-1
0 8 m 1,108,-1
 1 8 l 1,109,-1
 1 7 l 1,110,-1
 0 7 l 1,111,-1
 0 8 l 1,108,-1
1 7 m 1,112,-1
 2 7 l 1,113,-1
 2 6 l 1,114,-1
 1 6 l 1,115,-1
 1 7 l 1,112,-1
2 6 m 1,116,-1
 3 6 l 1,117,-1
 3 5 l 1,118,-1
 2 5 l 1,119,-1
 2 6 l 1,116,-1
3 5 m 1,120,-1
 4 5 l 1,121,-1
 4 4 l 1,122,-1
 3 4 l 1,123,-1
 3 5 l 1,120,-1
4 4 m 1,124,-1
 5 4 l 1,125,-1
 5 3 l 1,126,-1
 4 3 l 1,127,-1
 4 4 l 1,124,-1
5 3 m 1,128,-1
 6 3 l 1,129,-1
 6 2 l 1,130,-1
 5 2 l 1,131,-1
 5 3 l 1,128,-1
6 2 m 1,132,-1
 7 2 l 1,133,-1
 7 1 l 1,134,-1
 6 1 l 1,135,-1
 6 2 l 1,132,-1
7 1 m 1,136,-1
 8 1 l 1,137,-1
 8 0 l 1,138,-1
 7 0 l 1,139,-1
 7 1 l 1,136,-1
8 0 m 1,140,-1
 9 0 l 1,141,-1
 9 -1 l 1,142,-1
 8 -1 l 1,143,-1
 8 0 l 1,140,-1
0 5 m 1,144,-1
 1 5 l 1,145,-1
 1 4 l 1,146,-1
 0 4 l 1,147,-1
 0 5 l 1,144,-1
1 4 m 1,148,-1
 2 4 l 1,149,-1
 2 3 l 1,150,-1
 1 3 l 1,151,-1
 1 4 l 1,148,-1
2 3 m 1,152,-1
 3 3 l 1,153,-1
 3 2 l 1,154,-1
 2 2 l 1,155,-1
 2 3 l 1,152,-1
3 2 m 1,156,-1
 4 2 l 1,157,-1
 4 1 l 1,158,-1
 3 1 l 1,159,-1
 3 2 l 1,156,-1
4 1 m 1,160,-1
 5 1 l 1,161,-1
 5 0 l 1,162,-1
 4 0 l 1,163,-1
 4 1 l 1,160,-1
5 0 m 1,164,-1
 6 0 l 1,165,-1
 6 -1 l 1,166,-1
 5 -1 l 1,167,-1
 5 0 l 1,164,-1
6 -1 m 1,168,-1
 7 -1 l 1,169,-1
 7 -2 l 1,170,-1
 6 -2 l 1,171,-1
 6 -1 l 1,168,-1
7 -2 m 1,172,-1
 8 -2 l 1,173,-1
 8 -3 l 1,174,-1
 7 -3 l 1,175,-1
 7 -2 l 1,172,-1
8 -3 m 1,176,-1
 9 -3 l 1,177,-1
 9 -4 l 1,178,-1
 8 -4 l 1,179,-1
 8 -3 l 1,176,-1
0 2 m 1,180,-1
 1 2 l 1,181,-1
 1 1 l 1,182,-1
 0 1 l 1,183,-1
 0 2 l 1,180,-1
1 1 m 1,184,-1
 2 1 l 1,185,-1
 2 0 l 1,186,-1
 1 0 l 1,187,-1
 1 1 l 1,184,-1
2 0 m 1,188,-1
 3 0 l 1,189,-1
 3 -1 l 1,190,-1
 2 -1 l 1,191,-1
 2 0 l 1,188,-1
3 -1 m 1,192,-1
 4 -1 l 1,193,-1
 4 -2 l 1,194,-1
 3 -2 l 1,195,-1
 3 -1 l 1,192,-1
4 -2 m 1,196,-1
 5 -2 l 1,197,-1
 5 -3 l 1,198,-1
 4 -3 l 1,199,-1
 4 -2 l 1,196,-1
5 -3 m 1,200,-1
 6 -3 l 1,201,-1
 6 -4 l 1,202,-1
 5 -4 l 1,203,-1
 5 -3 l 1,200,-1
0 -1 m 1,204,-1
 1 -1 l 1,205,-1
 1 -2 l 1,206,-1
 0 -2 l 1,207,-1
 0 -1 l 1,204,-1
1 -2 m 1,208,-1
 2 -2 l 1,209,-1
 2 -3 l 1,210,-1
 1 -3 l 1,211,-1
 1 -2 l 1,208,-1
2 -3 m 1,212,-1
 3 -3 l 1,213,-1
 3 -4 l 1,214,-1
 2 -4 l 1,215,-1
 2 -3 l 1,212,-1
EndSplineSet
EndChar

StartChar: dkshade
Encoding: 9619 9619 242
Width: 9
GlyphClass: 1
Flags: W
LayerCount: 2
Fore
SplineSet
0 14 m 1,0,-1
 0 13 l 1,1,-1
 1 13 l 1,2,-1
 1 12 l 1,3,-1
 2 12 l 1,4,-1
 2 11 l 1,5,-1
 3 11 l 1,6,-1
 3 10 l 1,7,-1
 4 10 l 1,8,-1
 4 9 l 1,9,-1
 5 9 l 1,10,-1
 5 8 l 1,11,-1
 6 8 l 1,12,-1
 6 7 l 1,13,-1
 7 7 l 1,14,-1
 7 6 l 1,15,-1
 8 6 l 1,16,-1
 8 5 l 1,17,-1
 9 5 l 1,18,-1
 9 7 l 1,19,-1
 8 7 l 1,20,-1
 8 8 l 1,21,-1
 7 8 l 1,22,-1
 7 9 l 1,23,-1
 6 9 l 1,24,-1
 6 10 l 1,25,-1
 5 10 l 1,26,-1
 5 11 l 1,27,-1
 4 11 l 1,28,-1
 4 12 l 1,29,-1
 3 12 l 1,30,-1
 3 13 l 1,31,-1
 2 13 l 1,32,-1
 2 14 l 1,33,-1
 1 14 l 1,34,-1
 0 14 l 1,0,-1
3 13 m 1,35,-1
 4 13 l 1,36,-1
 4 12 l 1,37,-1
 5 12 l 1,38,-1
 5 11 l 1,39,-1
 6 11 l 1,40,-1
 6 10 l 1,41,-1
 7 10 l 1,42,-1
 7 9 l 1,43,-1
 8 9 l 1,44,-1
 8 8 l 1,45,-1
 9 8 l 1,46,-1
 9 10 l 1,47,-1
 8 10 l 1,48,-1
 8 11 l 1,49,-1
 7 11 l 1,50,-1
 7 12 l 1,51,-1
 6 12 l 1,52,-1
 6 13 l 1,53,-1
 5 13 l 1,54,-1
 5 14 l 1,55,-1
 4 14 l 1,56,-1
 3 14 l 1,57,-1
 3 13 l 1,35,-1
6 13 m 1,58,-1
 7 13 l 1,59,-1
 7 12 l 1,60,-1
 8 12 l 1,61,-1
 8 11 l 1,62,-1
 9 11 l 1,63,-1
 9 13 l 1,64,-1
 8 13 l 1,65,-1
 8 14 l 1,66,-1
 7 14 l 1,67,-1
 6 14 l 1,68,-1
 6 13 l 1,58,-1
8 5 m 1,69,-1
 8 4 l 1,70,-1
 9 4 l 1,71,-1
 9 2 l 1,72,-1
 8 2 l 1,73,-1
 8 3 l 1,74,-1
 7 3 l 1,75,-1
 7 4 l 1,76,-1
 6 4 l 1,77,-1
 6 5 l 1,78,-1
 5 5 l 1,79,-1
 5 6 l 1,80,-1
 4 6 l 1,81,-1
 4 7 l 1,82,-1
 3 7 l 1,83,-1
 3 8 l 1,84,-1
 2 8 l 1,85,-1
 2 9 l 1,86,-1
 1 9 l 1,87,-1
 1 10 l 1,88,-1
 0 10 l 1,89,-1
 0 12 l 1,90,-1
 1 12 l 1,91,-1
 1 11 l 1,92,-1
 2 11 l 1,93,-1
 2 10 l 1,94,-1
 3 10 l 1,95,-1
 3 9 l 1,96,-1
 4 9 l 1,97,-1
 4 8 l 1,98,-1
 5 8 l 1,99,-1
 5 7 l 1,100,-1
 6 7 l 1,101,-1
 6 6 l 1,102,-1
 7 6 l 1,103,-1
 7 5 l 1,104,-1
 8 5 l 1,69,-1
8 2 m 1,105,-1
 8 1 l 1,106,-1
 9 1 l 1,107,-1
 9 -1 l 1,108,-1
 8 -1 l 1,109,-1
 8 0 l 1,110,-1
 7 0 l 1,111,-1
 7 1 l 1,112,-1
 6 1 l 1,113,-1
 6 2 l 1,114,-1
 5 2 l 1,115,-1
 5 3 l 1,116,-1
 4 3 l 1,117,-1
 4 4 l 1,118,-1
 3 4 l 1,119,-1
 3 5 l 1,120,-1
 2 5 l 1,121,-1
 2 6 l 1,122,-1
 1 6 l 1,123,-1
 1 7 l 1,124,-1
 0 7 l 1,125,-1
 0 9 l 1,126,-1
 1 9 l 1,127,-1
 1 8 l 1,128,-1
 2 8 l 1,129,-1
 2 7 l 1,130,-1
 3 7 l 1,131,-1
 3 6 l 1,132,-1
 4 6 l 1,133,-1
 4 5 l 1,134,-1
 5 5 l 1,135,-1
 5 4 l 1,136,-1
 6 4 l 1,137,-1
 6 3 l 1,138,-1
 7 3 l 1,139,-1
 7 2 l 1,140,-1
 8 2 l 1,105,-1
8 -1 m 1,141,-1
 8 -2 l 1,142,-1
 9 -2 l 1,143,-1
 9 -4 l 1,144,-1
 8 -4 l 1,145,-1
 8 -3 l 1,146,-1
 7 -3 l 1,147,-1
 7 -2 l 1,148,-1
 6 -2 l 1,149,-1
 6 -1 l 1,150,-1
 5 -1 l 1,151,-1
 5 0 l 1,152,-1
 4 0 l 1,153,-1
 4 1 l 1,154,-1
 3 1 l 1,155,-1
 3 2 l 1,156,-1
 2 2 l 1,157,-1
 2 3 l 1,158,-1
 1 3 l 1,159,-1
 1 4 l 1,160,-1
 0 4 l 1,161,-1
 0 6 l 1,162,-1
 1 6 l 1,163,-1
 1 5 l 1,164,-1
 2 5 l 1,165,-1
 2 4 l 1,166,-1
 3 4 l 1,167,-1
 3 3 l 1,168,-1
 4 3 l 1,169,-1
 4 2 l 1,170,-1
 5 2 l 1,171,-1
 5 1 l 1,172,-1
 6 1 l 1,173,-1
 6 0 l 1,174,-1
 7 0 l 1,175,-1
 7 -1 l 1,176,-1
 8 -1 l 1,141,-1
7 -3 m 1,177,-1
 7 -4 l 1,178,-1
 6 -4 l 1,179,-1
 5 -4 l 1,180,-1
 5 -3 l 1,181,-1
 4 -3 l 1,182,-1
 4 -2 l 1,183,-1
 3 -2 l 1,184,-1
 3 -1 l 1,185,-1
 2 -1 l 1,186,-1
 2 0 l 1,187,-1
 1 0 l 1,188,-1
 1 1 l 1,189,-1
 0 1 l 1,190,-1
 0 3 l 1,191,-1
 1 3 l 1,192,-1
 1 2 l 1,193,-1
 2 2 l 1,194,-1
 2 1 l 1,195,-1
 3 1 l 1,196,-1
 3 0 l 1,197,-1
 4 0 l 1,198,-1
 4 -1 l 1,199,-1
 5 -1 l 1,200,-1
 5 -2 l 1,201,-1
 6 -2 l 1,202,-1
 6 -3 l 1,203,-1
 7 -3 l 1,177,-1
4 -3 m 1,204,-1
 4 -4 l 1,205,-1
 3 -4 l 1,206,-1
 2 -4 l 1,207,-1
 2 -3 l 1,208,-1
 1 -3 l 1,209,-1
 1 -2 l 1,210,-1
 0 -2 l 1,211,-1
 0 0 l 1,212,-1
 1 0 l 1,213,-1
 1 -1 l 1,214,-1
 2 -1 l 1,215,-1
 2 -2 l 1,216,-1
 3 -2 l 1,217,-1
 3 -3 l 1,218,-1
 4 -3 l 1,204,-1
1 -3 m 1,219,-1
 1 -4 l 1,220,-1
 0 -4 l 1,221,-1
 0 -3 l 1,222,-1
 1 -3 l 1,219,-1
EndSplineSet
EndChar

StartChar: uni2596
Encoding: 9622 9622 243
Width: 9
GlyphClass: 1
Flags: W
LayerCount: 2
Fore
SplineSet
0 -4 m 1,0,-1
 5 -4 l 1,1,-1
 5 5 l 1,2,-1
 0 5 l 1,3,-1
 0 -4 l 1,0,-1
EndSplineSet
EndChar

StartChar: uni2597
Encoding: 9623 9623 244
Width: 9
GlyphClass: 1
Flags: W
LayerCount: 2
Fore
SplineSet
4 -4 m 1,0,-1
 9 -4 l 1,1,-1
 9 5 l 1,2,-1
 4 5 l 1,3,-1
 4 -4 l 1,0,-1
EndSplineSet
EndChar

StartChar: uni2598
Encoding: 9624 9624 245
Width: 9
GlyphClass: 1
Flags: W
LayerCount: 2
Fore
SplineSet
0 5 m 1,0,-1
 5 5 l 1,1,-1
 5 14 l 1,2,-1
 0 14 l 1,3,-1
 0 5 l 1,0,-1
EndSplineSet
EndChar

StartChar: uni2599
Encoding: 9625 9625 246
Width: 9
GlyphClass: 1
Flags: W
LayerCount: 2
Fore
SplineSet
5 14 m 1,0,-1
 0 14 l 1,1,-1
 0 -4 l 1,2,-1
 4 -4 l 1,3,-1
 5 -4 l 1,4,-1
 9 -4 l 1,5,-1
 9 5 l 1,6,-1
 5 5 l 1,7,-1
 5 14 l 1,0,-1
EndSplineSet
EndChar

StartChar: uni259A
Encoding: 9626 9626 247
Width: 9
GlyphClass: 1
Flags: W
LayerCount: 2
Fore
SplineSet
0 14 m 1,0,-1
 0 5 l 1,1,-1
 4 5 l 1,2,-1
 4 -4 l 1,3,-1
 9 -4 l 1,4,-1
 9 5 l 1,5,-1
 5 5 l 1,6,-1
 5 14 l 1,7,-1
 0 14 l 1,0,-1
EndSplineSet
EndChar

StartChar: uni259B
Encoding: 9627 9627 248
Width: 9
GlyphClass: 1
Flags: W
LayerCount: 2
Fore
SplineSet
5 -4 m 1,0,-1
 5 5 l 1,1,-1
 9 5 l 1,2,-1
 9 14 l 1,3,-1
 5 14 l 1,4,-1
 4 14 l 1,5,-1
 0 14 l 1,6,-1
 0 -4 l 1,7,-1
 5 -4 l 1,0,-1
EndSplineSet
EndChar

StartChar: uni259C
Encoding: 9628 9628 249
Width: 9
GlyphClass: 1
Flags: W
LayerCount: 2
Fore
SplineSet
4 -4 m 1,0,-1
 9 -4 l 1,1,-1
 9 14 l 1,2,-1
 5 14 l 1,3,-1
 4 14 l 1,4,-1
 0 14 l 1,5,-1
 0 5 l 1,6,-1
 4 5 l 1,7,-1
 4 -4 l 1,0,-1
EndSplineSet
EndChar

StartChar: uni259D
Encoding: 9629 9629 250
Width: 9
GlyphClass: 1
Flags: W
LayerCount: 2
Fore
SplineSet
4 5 m 1,0,-1
 9 5 l 1,1,-1
 9 14 l 1,2,-1
 4 14 l 1,3,-1
 4 5 l 1,0,-1
EndSplineSet
EndChar

StartChar: uni259E
Encoding: 9630 9630 251
Width: 9
GlyphClass: 1
Flags: W
LayerCount: 2
Fore
SplineSet
9 14 m 1,0,-1
 4 14 l 1,1,-1
 4 5 l 1,2,-1
 0 5 l 1,3,-1
 0 -4 l 1,4,-1
 5 -4 l 1,5,-1
 5 5 l 1,6,-1
 9 5 l 1,7,-1
 9 14 l 1,0,-1
EndSplineSet
EndChar

StartChar: uni259F
Encoding: 9631 9631 252
Width: 9
GlyphClass: 1
Flags: W
LayerCount: 2
Fore
SplineSet
4 14 m 1,0,-1
 4 5 l 1,1,-1
 0 5 l 1,2,-1
 0 -4 l 1,3,-1
 4 -4 l 1,4,-1
 5 -4 l 1,5,-1
 9 -4 l 1,6,-1
 9 14 l 1,7,-1
 4 14 l 1,0,-1
EndSplineSet
EndChar

StartChar: H22073
Encoding: 9633 9633 253
Width: 9
GlyphClass: 1
Flags: W
LayerCount: 2
Fore
SplineSet
4 -4 m 25,0,-1
 4 -1 l 25,1,-1
 5 -1 l 25,2,-1
 5 -2 l 25,3,-1
 6 -2 l 25,4,-1
 6 -1 l 25,5,-1
 7 -1 l 25,6,-1
 7 -2 l 25,7,-1
 6 -2 l 25,8,-1
 6 -3 l 25,9,-1
 7 -3 l 25,10,-1
 7 -4 l 25,11,-1
 6 -4 l 25,12,-1
 6 -3 l 25,13,-1
 5 -3 l 25,14,-1
 5 -4 l 25,15,-1
 4 -4 l 25,0,-1
0 -1 m 25,16,-1
 3 -1 l 25,17,-1
 3 -2 l 25,18,-1
 2 -2 l 25,19,-1
 2 -3 l 25,20,-1
 3 -3 l 25,21,-1
 3 -4 l 25,22,-1
 2 -4 l 25,23,-1
 2 -3 l 25,24,-1
 1 -3 l 25,25,-1
 1 -4 l 25,26,-1
 0 -4 l 25,27,-1
 0 -1 l 25,16,-1
6 0 m 25,28,-1
 6 3 l 25,29,-1
 9 3 l 25,30,-1
 9 0 l 25,31,-1
 7 0 l 25,32,-1
 7 1 l 25,33,-1
 8 1 l 25,34,-1
 8 2 l 25,35,-1
 7 2 l 25,36,-1
 7 0 l 25,37,-1
 6 0 l 25,28,-1
4 3 m 25,38,-1
 4 6 l 25,39,-1
 7 6 l 25,40,-1
 7 4 l 25,41,-1
 5 4 l 25,42,-1
 5 3 l 25,43,-1
 4 3 l 25,38,-1
1 1 m 25,44,-1
 2 1 l 25,45,-1
 2 0 l 25,46,-1
 1 0 l 25,47,-1
 1 1 l 25,44,-1
0 4 m 25,48,-1
 0 5 l 25,49,-1
 1 5 l 25,50,-1
 1 6 l 25,51,-1
 2 6 l 25,52,-1
 2 5 l 25,53,-1
 3 5 l 25,54,-1
 3 3 l 25,55,-1
 2 3 l 25,56,-1
 2 2 l 25,57,-1
 1 2 l 25,58,-1
 1 3 l 25,59,-1
 2 3 l 25,60,-1
 2 5 l 25,61,-1
 1 5 l 25,62,-1
 1 4 l 25,63,-1
 0 4 l 25,48,-1
4 7 m 25,64,-1
 4 10 l 25,65,-1
 7 10 l 25,66,-1
 7 9 l 25,67,-1
 6 9 l 25,68,-1
 6 8 l 25,69,-1
 7 8 l 25,70,-1
 7 7 l 25,71,-1
 4 7 l 25,64,-1
0 10 m 25,72,-1
 3 10 l 25,73,-1
 3 9 l 25,74,-1
 2 9 l 25,75,-1
 2 8 l 25,76,-1
 3 8 l 25,77,-1
 3 7 l 25,78,-1
 2 7 l 25,79,-1
 2 8 l 25,80,-1
 1 8 l 25,81,-1
 1 7 l 25,82,-1
 0 7 l 25,83,-1
 0 10 l 25,72,-1
4 11 m 25,84,-1
 4 14 l 25,85,-1
 7 14 l 25,86,-1
 7 11 l 25,87,-1
 5 11 l 25,88,-1
 5 12 l 25,89,-1
 6 12 l 25,90,-1
 6 13 l 25,91,-1
 5 13 l 25,92,-1
 5 11 l 25,93,-1
 4 11 l 25,84,-1
0 11 m 25,94,-1
 0 14 l 25,95,-1
 3 14 l 25,96,-1
 3 11 l 25,97,-1
 2 11 l 25,98,-1
 2 12 l 25,99,-1
 1 12 l 25,100,-1
 1 11 l 25,101,-1
 0 11 l 25,94,-1
EndSplineSet
EndChar

StartChar: triagup
Encoding: 9650 9650 254
Width: 9
GlyphClass: 1
Flags: W
LayerCount: 2
Fore
SplineSet
4 6 m 1,0,-1
 4 4 l 1,1,-1
 3 4 l 1,2,-1
 3 2 l 1,3,-1
 2 2 l 1,4,-1
 2 0 l 1,5,-1
 1 0 l 1,6,-1
 1 -2 l 1,7,-1
 0 -2 l 1,8,-1
 0 -4 l 1,9,-1
 1 -4 l 1,10,-1
 2 -4 l 1,11,-1
 3 -4 l 1,12,-1
 4 -4 l 1,13,-1
 5 -4 l 1,14,-1
 6 -4 l 1,15,-1
 7 -4 l 1,16,-1
 8 -4 l 1,17,-1
 9 -4 l 1,18,-1
 9 -2 l 1,19,-1
 8 -2 l 1,20,-1
 8 0 l 1,21,-1
 7 0 l 1,22,-1
 7 2 l 1,23,-1
 6 2 l 1,24,-1
 6 4 l 1,25,-1
 5 4 l 1,26,-1
 5 6 l 1,27,-1
 4 6 l 1,0,-1
EndSplineSet
EndChar

StartChar: uni25B6
Encoding: 9654 9654 255
Width: 9
GlyphClass: 1
Flags: W
LayerCount: 2
Fore
SplineSet
0 14 m 1,0,-1
 0 -4 l 1,1,-1
 1 -4 l 1,2,-1
 1 -2 l 1,3,-1
 2 -2 l 1,4,-1
 2 0 l 1,5,-1
 3 0 l 1,6,-1
 3 2 l 1,7,-1
 4 2 l 1,8,-1
 4 4 l 1,9,-1
 5 4 l 1,10,-1
 5 6 l 1,11,-1
 4 6 l 1,12,-1
 4 8 l 1,13,-1
 3 8 l 1,14,-1
 3 10 l 1,15,-1
 2 10 l 1,16,-1
 2 12 l 1,17,-1
 1 12 l 1,18,-1
 1 14 l 1,19,-1
 0 14 l 1,0,-1
EndSplineSet
EndChar

StartChar: triagdn
Encoding: 9660 9660 256
Width: 9
GlyphClass: 1
Flags: W
LayerCount: 2
Fore
SplineSet
5 4 m 1,0,-1
 5 6 l 1,1,-1
 6 6 l 1,2,-1
 6 8 l 1,3,-1
 7 8 l 1,4,-1
 7 10 l 1,5,-1
 8 10 l 1,6,-1
 8 12 l 1,7,-1
 9 12 l 1,8,-1
 9 14 l 1,9,-1
 8 14 l 1,10,-1
 7 14 l 1,11,-1
 6 14 l 1,12,-1
 5 14 l 1,13,-1
 4 14 l 1,14,-1
 3 14 l 1,15,-1
 2 14 l 1,16,-1
 1 14 l 1,17,-1
 0 14 l 1,18,-1
 0 12 l 1,19,-1
 1 12 l 1,20,-1
 1 10 l 1,21,-1
 2 10 l 1,22,-1
 2 8 l 1,23,-1
 3 8 l 1,24,-1
 3 6 l 1,25,-1
 4 6 l 1,26,-1
 4 4 l 1,27,-1
 5 4 l 1,0,-1
EndSplineSet
EndChar

StartChar: uni25C0
Encoding: 9664 9664 257
Width: 9
GlyphClass: 1
Flags: W
LayerCount: 2
Fore
SplineSet
9 14 m 1,0,-1
 8 14 l 1,1,-1
 8 12 l 1,2,-1
 7 12 l 1,3,-1
 7 10 l 1,4,-1
 6 10 l 1,5,-1
 6 8 l 1,6,-1
 5 8 l 1,7,-1
 5 6 l 1,8,-1
 4 6 l 1,9,-1
 4 4 l 1,10,-1
 5 4 l 1,11,-1
 5 2 l 1,12,-1
 6 2 l 1,13,-1
 6 0 l 1,14,-1
 7 0 l 1,15,-1
 7 -2 l 1,16,-1
 8 -2 l 1,17,-1
 8 -4 l 1,18,-1
 9 -4 l 1,19,-1
 9 14 l 1,0,-1
EndSplineSet
EndChar

StartChar: circle
Encoding: 9675 9675 258
Width: 9
GlyphClass: 1
Flags: W
LayerCount: 2
Fore
SplineSet
3 8 m 1,0,-1
 3 7 l 1,1,-1
 6 7 l 1,2,-1
 6 8 l 1,3,-1
 3 8 l 1,0,-1
6 7 m 1,4,-1
 7 7 l 1,5,-1
 7 6 l 1,6,-1
 6 6 l 1,7,-1
 6 7 l 1,4,-1
7 6 m 1,8,-1
 7 4 l 1,9,-1
 8 4 l 1,10,-1
 8 6 l 1,11,-1
 7 6 l 1,8,-1
7 4 m 1,12,-1
 7 3 l 1,13,-1
 6 3 l 1,14,-1
 6 4 l 1,15,-1
 7 4 l 1,12,-1
6 3 m 1,16,-1
 6 2 l 1,17,-1
 3 2 l 1,18,-1
 3 3 l 1,19,-1
 6 3 l 1,16,-1
3 3 m 1,20,-1
 2 3 l 1,21,-1
 2 4 l 1,22,-1
 3 4 l 1,23,-1
 3 3 l 1,20,-1
2 4 m 1,24,-1
 2 6 l 1,25,-1
 1 6 l 1,26,-1
 1 4 l 1,27,-1
 2 4 l 1,24,-1
2 6 m 1,28,-1
 2 7 l 1,29,-1
 3 7 l 1,30,-1
 3 6 l 1,31,-1
 2 6 l 1,28,-1
EndSplineSet
EndChar

StartChar: H18533
Encoding: 9679 9679 259
Width: 9
GlyphClass: 1
Flags: W
LayerCount: 2
Fore
SplineSet
3 7 m 1,0,-1
 3 6 l 1,1,-1
 2 6 l 1,2,-1
 2 4 l 1,3,-1
 3 4 l 1,4,-1
 3 3 l 1,5,-1
 6 3 l 1,6,-1
 6 4 l 1,7,-1
 7 4 l 1,8,-1
 7 6 l 1,9,-1
 6 6 l 1,10,-1
 6 7 l 1,11,-1
 3 7 l 1,0,-1
EndSplineSet
EndChar

StartChar: invbullet
Encoding: 9688 9688 260
Width: 9
GlyphClass: 1
Flags: W
LayerCount: 2
Fore
SplineSet
0 14 m 1,0,-1
 0 -4 l 1,1,-1
 9 -4 l 1,2,-1
 9 14 l 1,3,-1
 0 14 l 1,0,-1
3 7 m 1,4,-1
 6 7 l 1,5,-1
 6 6 l 1,6,-1
 7 6 l 1,7,-1
 7 4 l 1,8,-1
 6 4 l 1,9,-1
 6 3 l 1,10,-1
 3 3 l 1,11,-1
 3 4 l 1,12,-1
 2 4 l 1,13,-1
 2 6 l 1,14,-1
 3 6 l 1,15,-1
 3 7 l 1,4,-1
EndSplineSet
EndChar

StartChar: invcircle
Encoding: 9689 9689 261
Width: 9
GlyphClass: 1
Flags: W
LayerCount: 2
Fore
SplineSet
0 14 m 1,0,-1
 0 -4 l 1,1,-1
 9 -4 l 1,2,-1
 9 14 l 1,3,-1
 0 14 l 1,0,-1
3 8 m 1,4,-1
 6 8 l 1,5,-1
 6 7 l 1,6,-1
 7 7 l 1,7,-1
 7 6 l 1,8,-1
 8 6 l 1,9,-1
 8 4 l 1,10,-1
 7 4 l 1,11,-1
 7 3 l 1,12,-1
 6 3 l 1,13,-1
 6 2 l 1,14,-1
 3 2 l 1,15,-1
 3 3 l 1,16,-1
 2 3 l 1,17,-1
 2 4 l 1,18,-1
 1 4 l 1,19,-1
 1 6 l 1,20,-1
 2 6 l 1,21,-1
 2 7 l 1,22,-1
 3 7 l 1,23,-1
 3 8 l 1,4,-1
3 7 m 1,24,-1
 3 6 l 1,25,-1
 2 6 l 1,26,-1
 2 4 l 1,27,-1
 3 4 l 1,28,-1
 3 3 l 1,29,-1
 6 3 l 1,30,-1
 6 4 l 1,31,-1
 7 4 l 1,32,-1
 7 6 l 1,33,-1
 6 6 l 1,34,-1
 6 7 l 1,35,-1
 3 7 l 1,24,-1
EndSplineSet
EndChar

StartChar: uni25E2
Encoding: 9698 9698 262
Width: 9
GlyphClass: 1
Flags: W
LayerCount: 2
Fore
SplineSet
8 14 m 1,0,-1
 8 12 l 1,1,-1
 7 12 l 1,2,-1
 7 10 l 1,3,-1
 6 10 l 1,4,-1
 6 8 l 1,5,-1
 5 8 l 1,6,-1
 5 6 l 1,7,-1
 4 6 l 1,8,-1
 4 4 l 1,9,-1
 3 4 l 1,10,-1
 3 2 l 1,11,-1
 2 2 l 1,12,-1
 2 0 l 1,13,-1
 1 0 l 1,14,-1
 1 -2 l 1,15,-1
 0 -2 l 1,16,-1
 0 -4 l 1,17,-1
 1 -4 l 1,18,-1
 9 -4 l 1,19,-1
 9 12 l 1,20,-1
 9 14 l 1,21,-1
 8 14 l 1,0,-1
EndSplineSet
EndChar

StartChar: uni25E3
Encoding: 9699 9699 263
Width: 9
GlyphClass: 1
Flags: W
LayerCount: 2
Fore
SplineSet
1 14 m 1,0,-1
 0 14 l 1,1,-1
 0 12 l 1,2,-1
 0 -4 l 1,3,-1
 8 -4 l 1,4,-1
 9 -4 l 1,5,-1
 9 -2 l 1,6,-1
 8 -2 l 1,7,-1
 8 0 l 1,8,-1
 7 0 l 1,9,-1
 7 2 l 1,10,-1
 6 2 l 1,11,-1
 6 4 l 1,12,-1
 5 4 l 1,13,-1
 5 6 l 1,14,-1
 4 6 l 1,15,-1
 4 8 l 1,16,-1
 3 8 l 1,17,-1
 3 10 l 1,18,-1
 2 10 l 1,19,-1
 2 12 l 1,20,-1
 1 12 l 1,21,-1
 1 14 l 1,0,-1
EndSplineSet
EndChar

StartChar: uni25E4
Encoding: 9700 9700 264
Width: 9
GlyphClass: 1
Flags: W
LayerCount: 2
Fore
SplineSet
1 -4 m 1,0,-1
 1 -2 l 1,1,-1
 2 -2 l 1,2,-1
 2 0 l 1,3,-1
 3 0 l 1,4,-1
 3 2 l 1,5,-1
 4 2 l 1,6,-1
 4 4 l 1,7,-1
 5 4 l 1,8,-1
 5 6 l 1,9,-1
 6 6 l 1,10,-1
 6 8 l 1,11,-1
 7 8 l 1,12,-1
 7 10 l 1,13,-1
 8 10 l 1,14,-1
 8 12 l 1,15,-1
 9 12 l 1,16,-1
 9 14 l 1,17,-1
 8 14 l 1,18,-1
 0 14 l 1,19,-1
 0 -2 l 1,20,-1
 0 -4 l 1,21,-1
 1 -4 l 1,0,-1
EndSplineSet
EndChar

StartChar: uni25E5
Encoding: 9701 9701 265
Width: 9
GlyphClass: 1
Flags: W
LayerCount: 2
Fore
SplineSet
8 -4 m 1,0,-1
 9 -4 l 1,1,-1
 9 -2 l 1,2,-1
 9 14 l 1,3,-1
 1 14 l 1,4,-1
 0 14 l 1,5,-1
 0 12 l 1,6,-1
 1 12 l 1,7,-1
 1 10 l 1,8,-1
 2 10 l 1,9,-1
 2 8 l 1,10,-1
 3 8 l 1,11,-1
 3 6 l 1,12,-1
 4 6 l 1,13,-1
 4 4 l 1,14,-1
 5 4 l 1,15,-1
 5 2 l 1,16,-1
 6 2 l 1,17,-1
 6 0 l 1,18,-1
 7 0 l 1,19,-1
 7 -2 l 1,20,-1
 8 -2 l 1,21,-1
 8 -4 l 1,0,-1
EndSplineSet
EndChar

StartChar: smileface
Encoding: 9786 9786 266
Width: 9
GlyphClass: 1
Flags: W
LayerCount: 2
Fore
SplineSet
3 10 m 1,0,-1
 3 9 l 1,1,-1
 6 9 l 1,2,-1
 6 10 l 1,3,-1
 3 10 l 1,0,-1
6 9 m 1,4,-1
 7 9 l 1,5,-1
 7 8 l 1,6,-1
 6 8 l 1,7,-1
 6 9 l 1,4,-1
7 8 m 1,8,-1
 7 2 l 1,9,-1
 8 2 l 1,10,-1
 8 8 l 1,11,-1
 7 8 l 1,8,-1
7 2 m 1,12,-1
 7 1 l 1,13,-1
 6 1 l 1,14,-1
 6 2 l 1,15,-1
 7 2 l 1,12,-1
6 1 m 1,16,-1
 6 0 l 1,17,-1
 3 0 l 1,18,-1
 3 1 l 1,19,-1
 6 1 l 1,16,-1
3 1 m 1,20,-1
 2 1 l 1,21,-1
 2 2 l 1,22,-1
 3 2 l 1,23,-1
 3 1 l 1,20,-1
2 2 m 1,24,-1
 2 8 l 1,25,-1
 1 8 l 1,26,-1
 1 2 l 1,27,-1
 2 2 l 1,24,-1
2 8 m 1,28,-1
 2 9 l 1,29,-1
 3 9 l 1,30,-1
 3 8 l 1,31,-1
 2 8 l 1,28,-1
3 7 m 1,32,-1
 3 6 l 1,33,-1
 4 6 l 1,34,-1
 4 7 l 1,35,-1
 3 7 l 1,32,-1
5 7 m 1,36,-1
 5 6 l 1,37,-1
 6 6 l 1,38,-1
 6 7 l 1,39,-1
 5 7 l 1,36,-1
3 4 m 1,40,-1
 3 3 l 1,41,-1
 4 3 l 1,42,-1
 4 2 l 1,43,-1
 5 2 l 1,44,-1
 5 3 l 1,45,-1
 6 3 l 1,46,-1
 6 4 l 1,47,-1
 3 4 l 1,40,-1
EndSplineSet
EndChar

StartChar: invsmileface
Encoding: 9787 9787 267
Width: 9
GlyphClass: 1
Flags: W
LayerCount: 2
Fore
SplineSet
3 10 m 1,0,-1
 3 9 l 1,1,-1
 2 9 l 1,2,-1
 2 8 l 1,3,-1
 1 8 l 1,4,-1
 1 2 l 1,5,-1
 2 2 l 1,6,-1
 2 1 l 1,7,-1
 3 1 l 1,8,-1
 3 0 l 1,9,-1
 6 0 l 1,10,-1
 6 1 l 1,11,-1
 7 1 l 1,12,-1
 7 2 l 1,13,-1
 8 2 l 1,14,-1
 8 8 l 1,15,-1
 7 8 l 1,16,-1
 7 9 l 1,17,-1
 6 9 l 1,18,-1
 6 10 l 1,19,-1
 3 10 l 1,0,-1
3 7 m 1,20,-1
 4 7 l 1,21,-1
 4 6 l 1,22,-1
 3 6 l 1,23,-1
 3 7 l 1,20,-1
5 7 m 1,24,-1
 6 7 l 1,25,-1
 6 6 l 1,26,-1
 5 6 l 1,27,-1
 5 7 l 1,24,-1
3 4 m 1,28,-1
 6 4 l 1,29,-1
 6 3 l 1,30,-1
 5 3 l 1,31,-1
 5 2 l 1,32,-1
 4 2 l 1,33,-1
 4 3 l 1,34,-1
 3 3 l 1,35,-1
 3 4 l 1,28,-1
EndSplineSet
EndChar

StartChar: sun
Encoding: 9788 9788 268
Width: 9
GlyphClass: 1
Flags: W
LayerCount: 2
Fore
SplineSet
4 10 m 1,0,-1
 4 8 l 1,1,-1
 5 8 l 1,2,-1
 5 10 l 1,3,-1
 4 10 l 1,0,-1
5 8 m 1,4,-1
 7 8 l 1,5,-1
 7 6 l 1,6,-1
 6 6 l 1,7,-1
 6 7 l 1,8,-1
 5 7 l 1,9,-1
 5 8 l 1,4,-1
7 8 m 1,10,-1
 8 8 l 1,11,-1
 8 9 l 1,12,-1
 7 9 l 1,13,-1
 7 8 l 1,10,-1
7 6 m 1,14,-1
 9 6 l 1,15,-1
 9 5 l 1,16,-1
 7 5 l 1,17,-1
 7 6 l 1,14,-1
7 5 m 1,18,-1
 7 3 l 1,19,-1
 5 3 l 1,20,-1
 5 4 l 1,21,-1
 6 4 l 1,22,-1
 6 5 l 1,23,-1
 7 5 l 1,18,-1
7 3 m 1,24,-1
 8 3 l 1,25,-1
 8 2 l 1,26,-1
 7 2 l 1,27,-1
 7 3 l 1,24,-1
5 3 m 1,28,-1
 5 1 l 1,29,-1
 4 1 l 1,30,-1
 4 3 l 1,31,-1
 5 3 l 1,28,-1
4 3 m 1,32,-1
 2 3 l 1,33,-1
 2 5 l 1,34,-1
 3 5 l 1,35,-1
 3 4 l 1,36,-1
 4 4 l 1,37,-1
 4 3 l 1,32,-1
2 3 m 1,38,-1
 2 2 l 1,39,-1
 1 2 l 1,40,-1
 1 3 l 1,41,-1
 2 3 l 1,38,-1
2 5 m 1,42,-1
 0 5 l 1,43,-1
 0 6 l 1,44,-1
 2 6 l 1,45,-1
 2 5 l 1,42,-1
2 6 m 1,46,-1
 2 8 l 1,47,-1
 4 8 l 1,48,-1
 4 7 l 1,49,-1
 3 7 l 1,50,-1
 3 6 l 1,51,-1
 2 6 l 1,46,-1
2 8 m 1,52,-1
 2 9 l 1,53,-1
 1 9 l 1,54,-1
 1 8 l 1,55,-1
 2 8 l 1,52,-1
EndSplineSet
EndChar

StartChar: female
Encoding: 9792 9792 269
Width: 9
GlyphClass: 1
Flags: W
LayerCount: 2
Fore
SplineSet
3 11 m 1,0,-1
 3 10 l 1,1,-1
 4 10 l 1,2,-1
 5 10 l 1,3,-1
 6 10 l 1,4,-1
 6 11 l 1,5,-1
 5 11 l 1,6,-1
 4 11 l 1,7,-1
 3 11 l 1,0,-1
6 10 m 1,8,-1
 7 10 l 1,9,-1
 7 9 l 1,10,-1
 6 9 l 1,11,-1
 6 10 l 1,8,-1
7 9 m 1,12,-1
 8 9 l 1,13,-1
 8 8 l 1,14,-1
 8 7 l 1,15,-1
 8 6 l 1,16,-1
 7 6 l 1,17,-1
 7 7 l 1,18,-1
 7 8 l 1,19,-1
 7 9 l 1,12,-1
7 6 m 1,20,-1
 7 5 l 1,21,-1
 6 5 l 1,22,-1
 6 6 l 1,23,-1
 7 6 l 1,20,-1
6 5 m 1,24,-1
 5 5 l 1,25,-1
 4 5 l 1,26,-1
 3 5 l 1,27,-1
 3 4 l 1,28,-1
 4 4 l 1,29,-1
 4 3 l 1,30,-1
 2 3 l 1,31,-1
 2 2 l 1,32,-1
 4 2 l 1,33,-1
 4 0 l 1,34,-1
 5 0 l 1,35,-1
 5 2 l 1,36,-1
 7 2 l 1,37,-1
 7 3 l 1,38,-1
 5 3 l 1,39,-1
 5 4 l 1,40,-1
 6 4 l 1,41,-1
 6 5 l 1,24,-1
3 5 m 1,42,-1
 2 5 l 1,43,-1
 2 6 l 1,44,-1
 3 6 l 1,45,-1
 3 5 l 1,42,-1
2 6 m 1,46,-1
 1 6 l 1,47,-1
 1 7 l 1,48,-1
 1 8 l 1,49,-1
 1 9 l 1,50,-1
 2 9 l 1,51,-1
 2 8 l 1,52,-1
 2 7 l 1,53,-1
 2 6 l 1,46,-1
2 9 m 1,54,-1
 2 10 l 1,55,-1
 3 10 l 1,56,-1
 3 9 l 1,57,-1
 2 9 l 1,54,-1
EndSplineSet
EndChar

StartChar: male
Encoding: 9794 9794 270
Width: 9
GlyphClass: 1
Flags: W
LayerCount: 2
Fore
SplineSet
5 11 m 1,0,-1
 5 10 l 1,1,-1
 6 10 l 1,2,-1
 6 9 l 1,3,-1
 7 9 l 1,4,-1
 7 8 l 1,5,-1
 8 8 l 1,6,-1
 8 10 l 1,7,-1
 8 11 l 1,8,-1
 5 11 l 1,0,-1
6 9 m 1,9,-1
 6 8 l 1,10,-1
 5 8 l 1,11,-1
 5 9 l 1,12,-1
 6 9 l 1,9,-1
5 8 m 1,13,-1
 5 7 l 1,14,-1
 6 7 l 1,15,-1
 6 6 l 1,16,-1
 5 6 l 1,17,-1
 4 6 l 1,18,-1
 3 6 l 1,19,-1
 3 7 l 1,20,-1
 4 7 l 1,21,-1
 4 8 l 1,22,-1
 5 8 l 1,13,-1
6 6 m 1,23,-1
 7 6 l 1,24,-1
 7 5 l 1,25,-1
 6 5 l 1,26,-1
 6 6 l 1,23,-1
7 5 m 1,27,-1
 8 5 l 1,28,-1
 8 4 l 1,29,-1
 8 3 l 1,30,-1
 8 2 l 1,31,-1
 7 2 l 1,32,-1
 7 3 l 1,33,-1
 7 4 l 1,34,-1
 7 5 l 1,27,-1
7 2 m 1,35,-1
 7 1 l 1,36,-1
 6 1 l 1,37,-1
 6 2 l 1,38,-1
 7 2 l 1,35,-1
6 1 m 1,39,-1
 6 0 l 1,40,-1
 5 0 l 1,41,-1
 4 0 l 1,42,-1
 3 0 l 1,43,-1
 3 1 l 1,44,-1
 4 1 l 1,45,-1
 5 1 l 1,46,-1
 6 1 l 1,39,-1
3 1 m 1,47,-1
 2 1 l 1,48,-1
 2 2 l 1,49,-1
 3 2 l 1,50,-1
 3 1 l 1,47,-1
2 2 m 1,51,-1
 1 2 l 1,52,-1
 1 3 l 1,53,-1
 1 4 l 1,54,-1
 1 5 l 1,55,-1
 2 5 l 1,56,-1
 2 4 l 1,57,-1
 2 3 l 1,58,-1
 2 2 l 1,51,-1
2 5 m 1,59,-1
 2 6 l 1,60,-1
 3 6 l 1,61,-1
 3 5 l 1,62,-1
 2 5 l 1,59,-1
EndSplineSet
EndChar

StartChar: spade
Encoding: 9824 9824 271
Width: 9
GlyphClass: 1
Flags: W
LayerCount: 2
Fore
SplineSet
4 4 m 1,0,-1
 5 4 l 1,1,-1
 5 3 l 1,2,-1
 4 3 l 1,3,-1
 4 4 l 1,0,-1
5 12 m 1,4,-1
 6 12 l 1,5,-1
 6 3 l 1,6,-1
 8 3 l 1,7,-1
 8 2 l 1,8,-1
 7 2 l 1,9,-1
 7 1 l 1,10,-1
 6 1 l 1,11,-1
 6 -2 l 1,12,-1
 5 -2 l 1,13,-1
 5 -3 l 1,14,-1
 4 -3 l 1,15,-1
 4 -2 l 1,16,-1
 3 -2 l 1,17,-1
 3 1 l 1,18,-1
 2 1 l 1,19,-1
 2 2 l 1,20,-1
 1 2 l 1,21,-1
 1 3 l 1,22,-1
 3 3 l 1,23,-1
 3 12 l 1,24,-1
 4 12 l 1,25,-1
 4 2 l 1,26,-1
 5 2 l 1,27,-1
 5 12 l 1,4,-1
4 13 m 1,28,-1
 5 13 l 1,29,-1
 5 12 l 1,30,-1
 4 12 l 1,31,-1
 4 13 l 1,28,-1
EndSplineSet
EndChar

StartChar: club
Encoding: 9827 9827 272
Width: 9
GlyphClass: 1
Flags: W
LayerCount: 2
Fore
SplineSet
4 11 m 1,0,-1
 5 11 l 1,1,-1
 5 10 l 1,2,-1
 6 10 l 1,3,-1
 6 9 l 1,4,-1
 5 9 l 1,5,-1
 5 7 l 1,6,-1
 6 7 l 1,7,-1
 6 6 l 1,8,-1
 5 6 l 1,9,-1
 5 2 l 1,10,-1
 6 2 l 1,11,-1
 6 1 l 1,12,-1
 5 1 l 1,13,-1
 5 -3 l 1,14,-1
 4 -3 l 1,15,-1
 4 4 l 1,16,-1
 3 4 l 1,17,-1
 3 5 l 1,18,-1
 4 5 l 1,19,-1
 4 7 l 1,20,-1
 3 7 l 1,21,-1
 3 8 l 1,22,-1
 4 8 l 1,23,-1
 4 9 l 1,24,-1
 3 9 l 1,25,-1
 3 10 l 1,26,-1
 4 10 l 1,27,-1
 4 11 l 1,0,-1
6 11 m 1,28,-1
 7 11 l 1,29,-1
 7 10 l 1,30,-1
 6 10 l 1,31,-1
 6 11 l 1,28,-1
2 11 m 1,32,-1
 3 11 l 1,33,-1
 3 10 l 1,34,-1
 2 10 l 1,35,-1
 2 11 l 1,32,-1
5 12 m 1,36,-1
 6 12 l 1,37,-1
 6 11 l 1,38,-1
 5 11 l 1,39,-1
 5 12 l 1,36,-1
3 12 m 1,40,-1
 4 12 l 1,41,-1
 4 11 l 1,42,-1
 3 11 l 1,43,-1
 3 12 l 1,40,-1
4 13 m 1,44,-1
 5 13 l 1,45,-1
 5 12 l 1,46,-1
 4 12 l 1,47,-1
 4 13 l 1,44,-1
EndSplineSet
EndChar

StartChar: heart
Encoding: 9829 9829 273
Width: 9
GlyphClass: 1
Flags: W
LayerCount: 2
Fore
SplineSet
3 1 m 1,0,-1
 4 1 l 1,1,-1
 4 -1 l 1,2,-1
 5 -1 l 1,3,-1
 5 1 l 1,4,-1
 6 1 l 1,5,-1
 6 -1 l 1,6,-1
 7 -1 l 1,7,-1
 7 -2 l 1,8,-1
 2 -2 l 1,9,-1
 2 -1 l 1,10,-1
 3 -1 l 1,11,-1
 3 1 l 1,0,-1
5 3 m 1,12,-1
 6 3 l 1,13,-1
 6 2 l 1,14,-1
 5 2 l 1,15,-1
 5 3 l 1,12,-1
4 2 m 1,16,-1
 5 2 l 1,17,-1
 5 1 l 1,18,-1
 4 1 l 1,19,-1
 4 2 l 1,16,-1
3 3 m 1,20,-1
 4 3 l 1,21,-1
 4 2 l 1,22,-1
 3 2 l 1,23,-1
 3 3 l 1,20,-1
4 4 m 1,24,-1
 5 4 l 1,25,-1
 5 3 l 1,26,-1
 4 3 l 1,27,-1
 4 4 l 1,24,-1
5 6 m 1,28,-1
 6 6 l 1,29,-1
 6 4 l 1,30,-1
 5 4 l 1,31,-1
 5 6 l 1,28,-1
3 6 m 1,32,-1
 4 6 l 1,33,-1
 4 4 l 1,34,-1
 3 4 l 1,35,-1
 3 6 l 1,32,-1
6 8 m 1,36,-1
 7 8 l 1,37,-1
 7 6 l 1,38,-1
 6 6 l 1,39,-1
 6 8 l 1,36,-1
5 9 m 1,40,-1
 6 9 l 1,41,-1
 6 8 l 1,42,-1
 5 8 l 1,43,-1
 5 9 l 1,40,-1
4 8 m 1,44,-1
 5 8 l 1,45,-1
 5 6 l 1,46,-1
 4 6 l 1,47,-1
 4 8 l 1,44,-1
3 9 m 1,48,-1
 4 9 l 1,49,-1
 4 8 l 1,50,-1
 3 8 l 1,51,-1
 3 9 l 1,48,-1
2 8 m 1,52,-1
 3 8 l 1,53,-1
 3 6 l 1,54,-1
 2 6 l 1,55,-1
 2 8 l 1,52,-1
0 12 m 1,56,-1
 9 12 l 1,57,-1
 9 11 l 1,58,-1
 8 11 l 1,59,-1
 8 8 l 1,60,-1
 7 8 l 1,61,-1
 7 11 l 1,62,-1
 2 11 l 1,63,-1
 2 8 l 1,64,-1
 1 8 l 1,65,-1
 1 11 l 1,66,-1
 0 11 l 1,67,-1
 0 12 l 1,56,-1
EndSplineSet
EndChar

StartChar: diamond
Encoding: 9830 9830 274
Width: 9
GlyphClass: 1
Flags: W
LayerCount: 2
Fore
SplineSet
7 2 m 1,0,-1
 8 2 l 1,1,-1
 8 1 l 1,2,-1
 7 1 l 1,3,-1
 7 2 l 1,0,-1
2 1 m 1,4,-1
 7 1 l 1,5,-1
 7 0 l 1,6,-1
 2 0 l 1,7,-1
 2 1 l 1,4,-1
1 2 m 1,8,-1
 2 2 l 1,9,-1
 2 1 l 1,10,-1
 1 1 l 1,11,-1
 1 2 l 1,8,-1
2 3 m 1,12,-1
 7 3 l 1,13,-1
 7 2 l 1,14,-1
 6 2 l 1,15,-1
 6 1 l 1,16,-1
 5 1 l 1,17,-1
 5 2 l 1,18,-1
 4 2 l 1,19,-1
 4 1 l 1,20,-1
 3 1 l 1,21,-1
 3 2 l 1,22,-1
 2 2 l 1,23,-1
 2 3 l 1,12,-1
4 8 m 1,24,-1
 5 8 l 1,25,-1
 5 7 l 1,26,-1
 7 7 l 1,27,-1
 7 6 l 1,28,-1
 6 6 l 1,29,-1
 6 4 l 1,30,-1
 5 4 l 1,31,-1
 5 5 l 1,32,-1
 4 5 l 1,33,-1
 4 4 l 1,34,-1
 3 4 l 1,35,-1
 3 6 l 1,36,-1
 2 6 l 1,37,-1
 2 7 l 1,38,-1
 4 7 l 1,39,-1
 4 8 l 1,24,-1
9 8 m 1,40,-1
 8 8 l 1,41,-1
 8 4 l 1,42,-1
 7 4 l 1,43,-1
 7 3 l 1,44,-1
 8 3 l 1,45,-1
 8 2 l 1,46,-1
 9 2 l 1,47,-1
 9 8 l 1,40,-1
8 8 m 1,48,-1
 7 8 l 1,49,-1
 7 9 l 1,50,-1
 8 9 l 1,51,-1
 8 8 l 1,48,-1
2 10 m 1,52,-1
 7 10 l 1,53,-1
 7 9 l 1,54,-1
 2 9 l 1,55,-1
 2 10 l 1,52,-1
1 9 m 1,56,-1
 2 9 l 1,57,-1
 2 8 l 1,58,-1
 1 8 l 1,59,-1
 1 9 l 1,56,-1
0 8 m 1,60,-1
 0 2 l 1,61,-1
 1 2 l 1,62,-1
 1 3 l 1,63,-1
 2 3 l 1,64,-1
 2 4 l 1,65,-1
 1 4 l 1,66,-1
 1 8 l 1,67,-1
 0 8 l 1,60,-1
EndSplineSet
EndChar

StartChar: musicalnote
Encoding: 9834 9834 275
Width: 9
GlyphClass: 1
Flags: W
LayerCount: 2
Fore
SplineSet
3 10 m 1,0,-1
 3 3 l 1,1,-1
 2 3 l 1,2,-1
 2 2 l 1,3,-1
 1 2 l 1,4,-1
 1 1 l 1,5,-1
 2 1 l 1,6,-1
 2 0 l 1,7,-1
 3 0 l 1,8,-1
 3 1 l 1,9,-1
 4 1 l 1,10,-1
 4 2 l 1,11,-1
 4 9 l 1,12,-1
 8 9 l 1,13,-1
 8 10 l 1,14,-1
 4 10 l 1,15,-1
 3 10 l 1,0,-1
EndSplineSet
EndChar

StartChar: musicalnotedbl
Encoding: 9835 9835 276
Width: 9
GlyphClass: 1
Flags: W
LayerCount: 2
Fore
SplineSet
3 10 m 1,0,-1
 3 3 l 1,1,-1
 2 3 l 1,2,-1
 2 2 l 1,3,-1
 1 2 l 1,4,-1
 1 1 l 1,5,-1
 2 1 l 1,6,-1
 2 0 l 1,7,-1
 3 0 l 1,8,-1
 3 1 l 1,9,-1
 4 1 l 1,10,-1
 4 2 l 1,11,-1
 4 9 l 1,12,-1
 7 9 l 1,13,-1
 7 3 l 1,14,-1
 6 3 l 1,15,-1
 6 2 l 1,16,-1
 5 2 l 1,17,-1
 5 1 l 1,18,-1
 6 1 l 1,19,-1
 6 0 l 1,20,-1
 7 0 l 1,21,-1
 7 1 l 1,22,-1
 8 1 l 1,23,-1
 8 2 l 1,24,-1
 8 9 l 1,25,-1
 8 10 l 1,26,-1
 4 10 l 1,27,-1
 3 10 l 1,0,-1
EndSplineSet
EndChar

StartChar: V_T_F.dlig
Encoding: 1114114 -1 277
Width: 9
VWidth: 0
Flags: W
LayerCount: 2
Fore
SplineSet
8 14 m 25,0,-1
 9 14 l 1,1,-1
 9 13 l 1,2,3
 8.001953125 13 l 2,4,5
 8 14 8 14 8 14 c 25,0,-1
0 14 m 25,6,-1
 1 14 l 1,7,8
 1.001953125 13 l 1,9,10
 0 13 l 1,11,-1
 0 14 l 25,6,-1
1.001953125 13 m 1,12,-1
 1.001953125 10.998046875 l 1,13,-1
 2.001953125 10.998046875 l 1,14,-1
 2.001953125 13 l 1,15,-1
 1.001953125 13 l 1,12,-1
2.001953125 10.998046875 m 1,16,-1
 2 9 l 1,17,-1
 3 9 l 1,18,-1
 3.001953125 10.998046875 l 1,19,-1
 2.001953125 10.998046875 l 1,16,-1
3 9 m 1,20,-1
 3 7 l 1,21,-1
 4 7 l 1,22,-1
 4 5 l 1,23,-1
 0 5 l 1,24,-1
 0 4 l 1,25,-1
 4.001953125 4 l 1,26,-1
 4.001953125 -4.001953125 l 1,27,-1
 5.001953125 -4.001953125 l 1,28,-1
 5.001953125 2 l 1,29,-1
 9 2 l 1,30,-1
 9 3 l 1,31,-1
 5.001953125 3 l 1,32,-1
 5.001953125 4 l 1,33,-1
 9 4 l 1,34,-1
 9 5 l 1,35,-1
 5 5 l 1,36,-1
 5 7 l 1,37,-1
 6 7 l 1,38,-1
 6 9 l 1,39,-1
 5 9 l 1,40,-1
 5 7 l 1,41,-1
 4 7 l 1,42,-1
 4 9 l 1,43,-1
 3 9 l 1,20,-1
6 9 m 1,44,-1
 7 9 l 1,45,-1
 7.001953125 10.998046875 l 1,46,-1
 6.001953125 10.998046875 l 1,47,-1
 6 9 l 1,44,-1
7.001953125 10.998046875 m 1,48,-1
 8.001953125 10.998046875 l 1,49,-1
 8.001953125 13 l 1,50,-1
 7.001953125 13 l 1,51,-1
 7.001953125 10.998046875 l 1,48,-1
EndSplineSet
EndChar
